<svg xmlns:xlink="http://www.w3.org/1999/xlink" version="1.1" class="highcharts-root" style="font-family:&quot;Lucida Grande&quot;, &quot;Lucida Sans Unicode&quot;, Arial, Helvetica, sans-serif;font-size:12px;" xmlns="http://www.w3.org/2000/svg" width="600" height="400" viewBox="0 0 600 400"><desc>Created with Highcharts 7.0.1</desc><defs><clipPath id="highcharts-rk1kwq8-75"><rect x="0" y="0" width="531" height="353" fill="none"></rect></clipPath></defs><rect fill="#ffffff" class="highcharts-background" x="0" y="0" width="600" height="400" rx="0" ry="0"></rect><rect fill="none" class="highcharts-plot-background" x="59" y="10" width="531" height="353"></rect><g class="highcharts-grid highcharts-xaxis-grid " data-z-index="1"><path fill="none" data-z-index="1" class="highcharts-grid-line" d="M 191.5 10 L 191.5 363" opacity="1"></path><path fill="none" data-z-index="1" class="highcharts-grid-line" d="M 324.5 10 L 324.5 363" opacity="1"></path><path fill="none" data-z-index="1" class="highcharts-grid-line" d="M 456.5 10 L 456.5 363" opacity="1"></path><path fill="none" data-z-index="1" class="highcharts-grid-line" d="M 589.5 10 L 589.5 363" opacity="1"></path><path fill="none" data-z-index="1" class="highcharts-grid-line" d="M 58.5 10 L 58.5 363" opacity="1"></path></g><g class="highcharts-grid highcharts-yaxis-grid " data-z-index="1"><path fill="none" stroke="#e6e6e6" stroke-width="1" data-z-index="1" class="highcharts-grid-line" d="M 59 363.5 L 590 363.5" opacity="1"></path><path fill="none" stroke="#e6e6e6" stroke-width="1" data-z-index="1" class="highcharts-grid-line" d="M 59 292.5 L 590 292.5" opacity="1"></path><path fill="none" stroke="#e6e6e6" stroke-width="1" data-z-index="1" class="highcharts-grid-line" d="M 59 222.5 L 590 222.5" opacity="1"></path><path fill="none" stroke="#e6e6e6" stroke-width="1" data-z-index="1" class="highcharts-grid-line" d="M 59 151.5 L 590 151.5" opacity="1"></path><path fill="none" stroke="#e6e6e6" stroke-width="1" data-z-index="1" class="highcharts-grid-line" d="M 59 81.5 L 590 81.5" opacity="1"></path><path fill="none" stroke="#e6e6e6" stroke-width="1" data-z-index="1" class="highcharts-grid-line" d="M 59 9.5 L 590 9.5" opacity="1"></path></g><rect fill="none" class="highcharts-plot-border" data-z-index="1" x="59" y="10" width="531" height="353"></rect><g class="highcharts-axis highcharts-xaxis " data-z-index="2"><path fill="none" class="highcharts-tick" stroke="#ccd6eb" stroke-width="1" d="M 191.5 363 L 191.5 373" opacity="1"></path><path fill="none" class="highcharts-tick" stroke="#ccd6eb" stroke-width="1" d="M 324.5 363 L 324.5 373" opacity="1"></path><path fill="none" class="highcharts-tick" stroke="#ccd6eb" stroke-width="1" d="M 456.5 363 L 456.5 373" opacity="1"></path><path fill="none" class="highcharts-tick" stroke="#ccd6eb" stroke-width="1" d="M 590.5 363 L 590.5 373" opacity="1"></path><path fill="none" class="highcharts-tick" stroke="#ccd6eb" stroke-width="1" d="M 58.5 363 L 58.5 373" opacity="1"></path><path fill="none" class="highcharts-axis-line" stroke="#ccd6eb" stroke-width="1" data-z-index="7" d="M 59 363.5 L 590 363.5"></path></g><g class="highcharts-axis highcharts-yaxis " data-z-index="2"><path fill="none" class="highcharts-axis-line" data-z-index="7" d="M 59 10 L 59 363"></path></g><text x="109" y="40" data-z-index="2" style="position:absolute;color:#333333;fill:#333333;"></text><g class="highcharts-series-group" data-z-index="3"><g data-z-index="0.1" class="highcharts-series highcharts-series-0 highcharts-column-series " transform="translate(59,10) scale(1 1)" clip-path="url(#highcharts-rk1kwq8-75)"><rect x="34.5" y="353.5" width="64" height="0" fill="#8dc9e8" stroke="#ffffff" stroke-width="1" class="highcharts-point"></rect><rect x="166.5" y="352.5" width="64" height="1" fill="#8dc9e8" stroke="#ffffff" stroke-width="1" class="highcharts-point"></rect><rect x="299.5" y="109.5" width="64" height="244" fill="#8dc9e8" stroke="#ffffff" stroke-width="1" class="highcharts-point"></rect><rect x="432.5" y="43.5" width="64" height="310" fill="#8dc9e8" stroke="#ffffff" stroke-width="1" class="highcharts-point"></rect></g><g data-z-index="0.1" class="highcharts-markers highcharts-series-0 highcharts-column-series " transform="translate(59,10) scale(1 1)" clip-path="none"></g></g><g class="highcharts-exporting-group" data-z-index="3"></g><text x="300" text-anchor="middle" class="highcharts-title" data-z-index="4" style="color:#333333;font-size:18px;fill:#333333;" y="24"></text><text x="300" text-anchor="middle" class="highcharts-subtitle" data-z-index="4" style="color:#666666;fill:#666666;" y="24"></text><g class="highcharts-axis-labels highcharts-xaxis-labels " data-z-index="7"><text x="125.375" style="color:#666666;cursor:default;font-size:11px;fill:#666666;" text-anchor="middle" transform="translate(0,0)" y="382" opacity="1">2014</text><text x="258.125" style="color:#666666;cursor:default;font-size:11px;fill:#666666;" text-anchor="middle" transform="translate(0,0)" y="382" opacity="1">2015</text><text x="390.875" style="color:#666666;cursor:default;font-size:11px;fill:#666666;" text-anchor="middle" transform="translate(0,0)" y="382" opacity="1">2016</text><text x="523.625" style="color:#666666;cursor:default;font-size:11px;fill:#666666;" text-anchor="middle" transform="translate(0,0)" y="382" opacity="1">2017</text></g><g class="highcharts-axis-labels highcharts-yaxis-labels " data-z-index="7"><text x="44" style="color:#666666;cursor:default;font-size:11px;fill:#666666;" text-anchor="end" transform="translate(0,0)" y="367" opacity="1">0</text><text x="44" style="color:#666666;cursor:default;font-size:11px;fill:#666666;" text-anchor="end" transform="translate(0,0)" y="296" opacity="1">500k</text><text x="44" style="color:#666666;cursor:default;font-size:11px;fill:#666666;" text-anchor="end" transform="translate(0,0)" y="225" opacity="1"><tspan>1 000k</tspan></text><text x="44" style="color:#666666;cursor:default;font-size:11px;fill:#666666;" text-anchor="end" transform="translate(0,0)" y="155" opacity="1"><tspan>1 500k</tspan></text><text x="44" style="color:#666666;cursor:default;font-size:11px;fill:#666666;" text-anchor="end" transform="translate(0,0)" y="84" opacity="1"><tspan>2 000k</tspan></text><text x="44" style="color:#666666;cursor:default;font-size:11px;fill:#666666;" text-anchor="end" transform="translate(0,0)" y="14" opacity="1"><tspan>2 500k</tspan></text></g></svg>