<svg xmlns:xlink="http://www.w3.org/1999/xlink" version="1.1" class="highcharts-root" style="font-family:&quot;Lucida Grande&quot;, &quot;Lucida Sans Unicode&quot;, Arial, Helvetica, sans-serif;font-size:12px;" xmlns="http://www.w3.org/2000/svg" width="600" height="400" viewBox="0 0 600 400"><desc>Created with Highcharts 7.0.1</desc><defs><clipPath id="highcharts-kpzo3rb-413"><rect x="0" y="0" width="522" height="235" fill="none"></rect></clipPath></defs><rect fill="#ffffff" class="highcharts-background" x="0" y="0" width="600" height="400" rx="0" ry="0"></rect><rect fill="none" class="highcharts-plot-background" x="68" y="10" width="522" height="235"></rect><g class="highcharts-grid highcharts-xaxis-grid " data-z-index="1"><path fill="none" data-z-index="1" class="highcharts-grid-line" d="M 111.5 10 L 111.5 245" opacity="1"></path><path fill="none" data-z-index="1" class="highcharts-grid-line" d="M 154.5 10 L 154.5 245" opacity="1"></path><path fill="none" data-z-index="1" class="highcharts-grid-line" d="M 198.5 10 L 198.5 245" opacity="1"></path><path fill="none" data-z-index="1" class="highcharts-grid-line" d="M 241.5 10 L 241.5 245" opacity="1"></path><path fill="none" data-z-index="1" class="highcharts-grid-line" d="M 285.5 10 L 285.5 245" opacity="1"></path><path fill="none" data-z-index="1" class="highcharts-grid-line" d="M 328.5 10 L 328.5 245" opacity="1"></path><path fill="none" data-z-index="1" class="highcharts-grid-line" d="M 372.5 10 L 372.5 245" opacity="1"></path><path fill="none" data-z-index="1" class="highcharts-grid-line" d="M 415.5 10 L 415.5 245" opacity="1"></path><path fill="none" data-z-index="1" class="highcharts-grid-line" d="M 459.5 10 L 459.5 245" opacity="1"></path><path fill="none" data-z-index="1" class="highcharts-grid-line" d="M 502.5 10 L 502.5 245" opacity="1"></path><path fill="none" data-z-index="1" class="highcharts-grid-line" d="M 546.5 10 L 546.5 245" opacity="1"></path><path fill="none" data-z-index="1" class="highcharts-grid-line" d="M 589.5 10 L 589.5 245" opacity="1"></path><path fill="none" data-z-index="1" class="highcharts-grid-line" d="M 67.5 10 L 67.5 245" opacity="1"></path></g><g class="highcharts-grid highcharts-yaxis-grid " data-z-index="1"><path fill="none" stroke="#e6e6e6" stroke-width="1" data-z-index="1" class="highcharts-grid-line" d="M 68 245.5 L 590 245.5" opacity="1"></path><path fill="none" stroke="#e6e6e6" stroke-width="1" data-z-index="1" class="highcharts-grid-line" d="M 68 198.5 L 590 198.5" opacity="1"></path><path fill="none" stroke="#e6e6e6" stroke-width="1" data-z-index="1" class="highcharts-grid-line" d="M 68 151.5 L 590 151.5" opacity="1"></path><path fill="none" stroke="#e6e6e6" stroke-width="1" data-z-index="1" class="highcharts-grid-line" d="M 68 104.5 L 590 104.5" opacity="1"></path><path fill="none" stroke="#e6e6e6" stroke-width="1" data-z-index="1" class="highcharts-grid-line" d="M 68 57.5 L 590 57.5" opacity="1"></path><path fill="none" stroke="#e6e6e6" stroke-width="1" data-z-index="1" class="highcharts-grid-line" d="M 68 9.5 L 590 9.5" opacity="1"></path></g><rect fill="none" class="highcharts-plot-border" data-z-index="1" x="68" y="10" width="522" height="235"></rect><g class="highcharts-axis highcharts-xaxis " data-z-index="2"><path fill="none" class="highcharts-tick" stroke="#ccd6eb" stroke-width="1" d="M 111.5 245 L 111.5 255" opacity="1"></path><path fill="none" class="highcharts-tick" stroke="#ccd6eb" stroke-width="1" d="M 154.5 245 L 154.5 255" opacity="1"></path><path fill="none" class="highcharts-tick" stroke="#ccd6eb" stroke-width="1" d="M 198.5 245 L 198.5 255" opacity="1"></path><path fill="none" class="highcharts-tick" stroke="#ccd6eb" stroke-width="1" d="M 241.5 245 L 241.5 255" opacity="1"></path><path fill="none" class="highcharts-tick" stroke="#ccd6eb" stroke-width="1" d="M 285.5 245 L 285.5 255" opacity="1"></path><path fill="none" class="highcharts-tick" stroke="#ccd6eb" stroke-width="1" d="M 328.5 245 L 328.5 255" opacity="1"></path><path fill="none" class="highcharts-tick" stroke="#ccd6eb" stroke-width="1" d="M 372.5 245 L 372.5 255" opacity="1"></path><path fill="none" class="highcharts-tick" stroke="#ccd6eb" stroke-width="1" d="M 415.5 245 L 415.5 255" opacity="1"></path><path fill="none" class="highcharts-tick" stroke="#ccd6eb" stroke-width="1" d="M 459.5 245 L 459.5 255" opacity="1"></path><path fill="none" class="highcharts-tick" stroke="#ccd6eb" stroke-width="1" d="M 502.5 245 L 502.5 255" opacity="1"></path><path fill="none" class="highcharts-tick" stroke="#ccd6eb" stroke-width="1" d="M 546.5 245 L 546.5 255" opacity="1"></path><path fill="none" class="highcharts-tick" stroke="#ccd6eb" stroke-width="1" d="M 590.5 245 L 590.5 255" opacity="1"></path><path fill="none" class="highcharts-tick" stroke="#ccd6eb" stroke-width="1" d="M 67.5 245 L 67.5 255" opacity="1"></path><path fill="none" class="highcharts-axis-line" stroke="#ccd6eb" stroke-width="1" data-z-index="7" d="M 68 245.5 L 590 245.5"></path></g><g class="highcharts-axis highcharts-yaxis " data-z-index="2"><text x="25.078125" data-z-index="7" text-anchor="middle" transform="translate(0,0) rotate(270 25.078125 127.5)" class="highcharts-axis-title" style="color:#666666;fill:#666666;" y="127.5"><tspan>Totale</tspan></text><path fill="none" class="highcharts-axis-line" data-z-index="7" d="M 68 10 L 68 245"></path></g><text x="118" y="40" data-z-index="2" style="position:absolute;color:#333333;fill:#333333;"></text><g class="highcharts-series-group" data-z-index="3"><g data-z-index="0.1" class="highcharts-series highcharts-series-0 highcharts-column-series " transform="translate(68,10) scale(1 1)" clip-path="url(#highcharts-kpzo3rb-413)"><rect x="8.5" y="211.5" width="3" height="24" fill="#34495e" stroke="#ffffff" stroke-width="1" class="highcharts-point"></rect><rect x="52.5" y="215.5" width="3" height="20" fill="#34495e" stroke="#ffffff" stroke-width="1" class="highcharts-point"></rect><rect x="95.5" y="215.5" width="3" height="20" fill="#34495e" stroke="#ffffff" stroke-width="1" class="highcharts-point"></rect><rect x="139.5" y="220.5" width="3" height="15" fill="#34495e" stroke="#ffffff" stroke-width="1" class="highcharts-point"></rect><rect x="182.5" y="218.5" width="3" height="17" fill="#34495e" stroke="#ffffff" stroke-width="1" class="highcharts-point"></rect><rect x="226.5" y="222.5" width="3" height="13" fill="#34495e" stroke="#ffffff" stroke-width="1" class="highcharts-point"></rect><rect x="269.5" y="220.5" width="3" height="15" fill="#34495e" stroke="#ffffff" stroke-width="1" class="highcharts-point"></rect><rect x="313.5" y="213.5" width="3" height="22" fill="#34495e" stroke="#ffffff" stroke-width="1" class="highcharts-point"></rect><rect x="356.5" y="221.5" width="3" height="14" fill="#34495e" stroke="#ffffff" stroke-width="1" class="highcharts-point"></rect><rect x="400.5" y="219.5" width="3" height="16" fill="#34495e" stroke="#ffffff" stroke-width="1" class="highcharts-point"></rect><rect x="443.5" y="217.5" width="3" height="18" fill="#34495e" stroke="#ffffff" stroke-width="1" class="highcharts-point"></rect><rect x="487.5" y="235.5" width="3" height="0" fill="#34495e" stroke="#ffffff" stroke-width="1" class="highcharts-point"></rect></g><g data-z-index="0.1" class="highcharts-markers highcharts-series-0 highcharts-column-series " transform="translate(68,10) scale(1 1)" clip-path="none"></g><g data-z-index="0.1" class="highcharts-series highcharts-series-1 highcharts-column-series " transform="translate(68,10) scale(1 1)" clip-path="url(#highcharts-kpzo3rb-413)"><rect x="11.5" y="52.5" width="3" height="183" fill="#e73c68" stroke="#ffffff" stroke-width="1" class="highcharts-point"></rect><rect x="55.5" y="77.5" width="3" height="158" fill="#e73c68" stroke="#ffffff" stroke-width="1" class="highcharts-point"></rect><rect x="98.5" y="64.5" width="3" height="171" fill="#e73c68" stroke="#ffffff" stroke-width="1" class="highcharts-point"></rect><rect x="142.5" y="141.5" width="3" height="94" fill="#e73c68" stroke="#ffffff" stroke-width="1" class="highcharts-point"></rect><rect x="185.5" y="154.5" width="3" height="81" fill="#e73c68" stroke="#ffffff" stroke-width="1" class="highcharts-point"></rect><rect x="229.5" y="133.5" width="3" height="102" fill="#e73c68" stroke="#ffffff" stroke-width="1" class="highcharts-point"></rect><rect x="272.5" y="23.5" width="3" height="212" fill="#e73c68" stroke="#ffffff" stroke-width="1" class="highcharts-point"></rect><rect x="316.5" y="81.5" width="3" height="154" fill="#e73c68" stroke="#ffffff" stroke-width="1" class="highcharts-point"></rect><rect x="359.5" y="101.5" width="3" height="134" fill="#e73c68" stroke="#ffffff" stroke-width="1" class="highcharts-point"></rect><rect x="403.5" y="235.5" width="3" height="0" fill="#e73c68" stroke="#ffffff" stroke-width="1" class="highcharts-point"></rect><rect x="446.5" y="235.5" width="3" height="0" fill="#e73c68" stroke="#ffffff" stroke-width="1" class="highcharts-point"></rect><rect x="490.5" y="235.5" width="3" height="0" fill="#e73c68" stroke="#ffffff" stroke-width="1" class="highcharts-point"></rect></g><g data-z-index="0.1" class="highcharts-markers highcharts-series-1 highcharts-column-series " transform="translate(68,10) scale(1 1)" clip-path="none"></g><g data-z-index="0.1" class="highcharts-series highcharts-series-2 highcharts-column-series " transform="translate(68,10) scale(1 1)" clip-path="url(#highcharts-kpzo3rb-413)"><rect x="15.5" y="23.5" width="3" height="212" fill="#2ecc71" stroke="#ffffff" stroke-width="1" class="highcharts-point"></rect><rect x="58.5" y="33.5" width="3" height="202" fill="#2ecc71" stroke="#ffffff" stroke-width="1" class="highcharts-point"></rect><rect x="102.5" y="47.5" width="3" height="188" fill="#2ecc71" stroke="#ffffff" stroke-width="1" class="highcharts-point"></rect><rect x="145.5" y="165.5" width="3" height="70" fill="#2ecc71" stroke="#ffffff" stroke-width="1" class="highcharts-point"></rect><rect x="189.5" y="159.5" width="3" height="76" fill="#2ecc71" stroke="#ffffff" stroke-width="1" class="highcharts-point"></rect><rect x="232.5" y="125.5" width="3" height="110" fill="#2ecc71" stroke="#ffffff" stroke-width="1" class="highcharts-point"></rect><rect x="276.5" y="77.5" width="3" height="158" fill="#2ecc71" stroke="#ffffff" stroke-width="1" class="highcharts-point"></rect><rect x="319.5" y="82.5" width="3" height="153" fill="#2ecc71" stroke="#ffffff" stroke-width="1" class="highcharts-point"></rect><rect x="363.5" y="149.5" width="3" height="86" fill="#2ecc71" stroke="#ffffff" stroke-width="1" class="highcharts-point"></rect><rect x="406.5" y="175.5" width="3" height="60" fill="#2ecc71" stroke="#ffffff" stroke-width="1" class="highcharts-point"></rect><rect x="450.5" y="235.5" width="3" height="0" fill="#2ecc71" stroke="#ffffff" stroke-width="1" class="highcharts-point"></rect><rect x="493.5" y="235.5" width="3" height="0" fill="#2ecc71" stroke="#ffffff" stroke-width="1" class="highcharts-point"></rect></g><g data-z-index="0.1" class="highcharts-markers highcharts-series-2 highcharts-column-series " transform="translate(68,10) scale(1 1)" clip-path="none"></g><g data-z-index="0.1" class="highcharts-series highcharts-series-3 highcharts-column-series " transform="translate(68,10) scale(1 1)" clip-path="url(#highcharts-kpzo3rb-413)"><rect x="18.5" y="231.5" width="3" height="4" fill="#e74c3c" stroke="#ffffff" stroke-width="1" class="highcharts-point"></rect><rect x="61.5" y="231.5" width="3" height="4" fill="#e74c3c" stroke="#ffffff" stroke-width="1" class="highcharts-point"></rect><rect x="105.5" y="230.5" width="3" height="5" fill="#e74c3c" stroke="#ffffff" stroke-width="1" class="highcharts-point"></rect><rect x="148.5" y="228.5" width="3" height="7" fill="#e74c3c" stroke="#ffffff" stroke-width="1" class="highcharts-point"></rect><rect x="192.5" y="161.5" width="3" height="74" fill="#e74c3c" stroke="#ffffff" stroke-width="1" class="highcharts-point"></rect><rect x="235.5" y="186.5" width="3" height="49" fill="#e74c3c" stroke="#ffffff" stroke-width="1" class="highcharts-point"></rect><rect x="279.5" y="235.5" width="3" height="0" fill="#e74c3c" stroke="#ffffff" stroke-width="1" class="highcharts-point"></rect><rect x="322.5" y="105.5" width="3" height="130" fill="#e74c3c" stroke="#ffffff" stroke-width="1" class="highcharts-point"></rect><rect x="366.5" y="215.5" width="3" height="20" fill="#e74c3c" stroke="#ffffff" stroke-width="1" class="highcharts-point"></rect><rect x="409.5" y="235.5" width="3" height="0" fill="#e74c3c" stroke="#ffffff" stroke-width="1" class="highcharts-point"></rect><rect x="453.5" y="235.5" width="3" height="0" fill="#e74c3c" stroke="#ffffff" stroke-width="1" class="highcharts-point"></rect><rect x="496.5" y="235.5" width="3" height="0" fill="#e74c3c" stroke="#ffffff" stroke-width="1" class="highcharts-point"></rect></g><g data-z-index="0.1" class="highcharts-markers highcharts-series-3 highcharts-column-series " transform="translate(68,10) scale(1 1)" clip-path="none"></g><g data-z-index="0.1" class="highcharts-series highcharts-series-4 highcharts-column-series " transform="translate(68,10) scale(1 1)" clip-path="url(#highcharts-kpzo3rb-413)"><rect x="21.5" y="231.5" width="3" height="4" fill="#e67e22" stroke="#ffffff" stroke-width="1" class="highcharts-point"></rect><rect x="65.5" y="231.5" width="3" height="4" fill="#e67e22" stroke="#ffffff" stroke-width="1" class="highcharts-point"></rect><rect x="108.5" y="230.5" width="3" height="5" fill="#e67e22" stroke="#ffffff" stroke-width="1" class="highcharts-point"></rect><rect x="152.5" y="230.5" width="3" height="5" fill="#e67e22" stroke="#ffffff" stroke-width="1" class="highcharts-point"></rect><rect x="195.5" y="230.5" width="3" height="5" fill="#e67e22" stroke="#ffffff" stroke-width="1" class="highcharts-point"></rect><rect x="239.5" y="230.5" width="3" height="5" fill="#e67e22" stroke="#ffffff" stroke-width="1" class="highcharts-point"></rect><rect x="282.5" y="229.5" width="3" height="6" fill="#e67e22" stroke="#ffffff" stroke-width="1" class="highcharts-point"></rect><rect x="326.5" y="229.5" width="3" height="6" fill="#e67e22" stroke="#ffffff" stroke-width="1" class="highcharts-point"></rect><rect x="369.5" y="230.5" width="3" height="5" fill="#e67e22" stroke="#ffffff" stroke-width="1" class="highcharts-point"></rect><rect x="413.5" y="235.5" width="3" height="0" fill="#e67e22" stroke="#ffffff" stroke-width="1" class="highcharts-point"></rect><rect x="456.5" y="235.5" width="3" height="0" fill="#e67e22" stroke="#ffffff" stroke-width="1" class="highcharts-point"></rect><rect x="500.5" y="235.5" width="3" height="0" fill="#e67e22" stroke="#ffffff" stroke-width="1" class="highcharts-point"></rect></g><g data-z-index="0.1" class="highcharts-markers highcharts-series-4 highcharts-column-series " transform="translate(68,10) scale(1 1)" clip-path="none"></g><g data-z-index="0.1" class="highcharts-series highcharts-series-5 highcharts-column-series " transform="translate(68,10) scale(1 1)" clip-path="url(#highcharts-kpzo3rb-413)"><rect x="24.5" y="214.5" width="3" height="21" fill="#3498db" stroke="#ffffff" stroke-width="1" class="highcharts-point"></rect><rect x="68.5" y="225.5" width="3" height="10" fill="#3498db" stroke="#ffffff" stroke-width="1" class="highcharts-point"></rect><rect x="111.5" y="216.5" width="3" height="19" fill="#3498db" stroke="#ffffff" stroke-width="1" class="highcharts-point"></rect><rect x="155.5" y="216.5" width="3" height="19" fill="#3498db" stroke="#ffffff" stroke-width="1" class="highcharts-point"></rect><rect x="198.5" y="221.5" width="3" height="14" fill="#3498db" stroke="#ffffff" stroke-width="1" class="highcharts-point"></rect><rect x="242.5" y="198.5" width="3" height="37" fill="#3498db" stroke="#ffffff" stroke-width="1" class="highcharts-point"></rect><rect x="285.5" y="178.5" width="3" height="57" fill="#3498db" stroke="#ffffff" stroke-width="1" class="highcharts-point"></rect><rect x="329.5" y="210.5" width="3" height="25" fill="#3498db" stroke="#ffffff" stroke-width="1" class="highcharts-point"></rect><rect x="372.5" y="180.5" width="3" height="55" fill="#3498db" stroke="#ffffff" stroke-width="1" class="highcharts-point"></rect><rect x="416.5" y="235.5" width="3" height="0" fill="#3498db" stroke="#ffffff" stroke-width="1" class="highcharts-point"></rect><rect x="459.5" y="235.5" width="3" height="0" fill="#3498db" stroke="#ffffff" stroke-width="1" class="highcharts-point"></rect><rect x="503.5" y="235.5" width="3" height="0" fill="#3498db" stroke="#ffffff" stroke-width="1" class="highcharts-point"></rect></g><g data-z-index="0.1" class="highcharts-markers highcharts-series-5 highcharts-column-series " transform="translate(68,10) scale(1 1)" clip-path="none"></g><g data-z-index="0.1" class="highcharts-series highcharts-series-6 highcharts-column-series " transform="translate(68,10) scale(1 1)" clip-path="url(#highcharts-kpzo3rb-413)"><rect x="28.5" y="175.5" width="3" height="60" fill="#e67e22" stroke="#ffffff" stroke-width="1" class="highcharts-point"></rect><rect x="71.5" y="183.5" width="3" height="52" fill="#e67e22" stroke="#ffffff" stroke-width="1" class="highcharts-point"></rect><rect x="115.5" y="181.5" width="3" height="54" fill="#e67e22" stroke="#ffffff" stroke-width="1" class="highcharts-point"></rect><rect x="158.5" y="187.5" width="3" height="48" fill="#e67e22" stroke="#ffffff" stroke-width="1" class="highcharts-point"></rect><rect x="202.5" y="186.5" width="3" height="49" fill="#e67e22" stroke="#ffffff" stroke-width="1" class="highcharts-point"></rect><rect x="245.5" y="179.5" width="3" height="56" fill="#e67e22" stroke="#ffffff" stroke-width="1" class="highcharts-point"></rect><rect x="289.5" y="168.5" width="3" height="67" fill="#e67e22" stroke="#ffffff" stroke-width="1" class="highcharts-point"></rect><rect x="332.5" y="165.5" width="3" height="70" fill="#e67e22" stroke="#ffffff" stroke-width="1" class="highcharts-point"></rect><rect x="376.5" y="179.5" width="3" height="56" fill="#e67e22" stroke="#ffffff" stroke-width="1" class="highcharts-point"></rect><rect x="419.5" y="188.5" width="3" height="47" fill="#e67e22" stroke="#ffffff" stroke-width="1" class="highcharts-point"></rect><rect x="463.5" y="235.5" width="3" height="0" fill="#e67e22" stroke="#ffffff" stroke-width="1" class="highcharts-point"></rect><rect x="506.5" y="235.5" width="3" height="0" fill="#e67e22" stroke="#ffffff" stroke-width="1" class="highcharts-point"></rect></g><g data-z-index="0.1" class="highcharts-markers highcharts-series-6 highcharts-column-series " transform="translate(68,10) scale(1 1)" clip-path="none"></g><g data-z-index="0.1" class="highcharts-series highcharts-series-7 highcharts-column-series " transform="translate(68,10) scale(1 1)" clip-path="url(#highcharts-kpzo3rb-413)"><rect x="31.5" y="223.5" width="3" height="12" fill="#556b8d" stroke="#ffffff" stroke-width="1" class="highcharts-point"></rect><rect x="74.5" y="225.5" width="3" height="10" fill="#556b8d" stroke="#ffffff" stroke-width="1" class="highcharts-point"></rect><rect x="118.5" y="224.5" width="3" height="11" fill="#556b8d" stroke="#ffffff" stroke-width="1" class="highcharts-point"></rect><rect x="161.5" y="225.5" width="3" height="10" fill="#556b8d" stroke="#ffffff" stroke-width="1" class="highcharts-point"></rect><rect x="205.5" y="225.5" width="3" height="10" fill="#556b8d" stroke="#ffffff" stroke-width="1" class="highcharts-point"></rect><rect x="248.5" y="225.5" width="3" height="10" fill="#556b8d" stroke="#ffffff" stroke-width="1" class="highcharts-point"></rect><rect x="292.5" y="226.5" width="3" height="9" fill="#556b8d" stroke="#ffffff" stroke-width="1" class="highcharts-point"></rect><rect x="335.5" y="226.5" width="3" height="9" fill="#556b8d" stroke="#ffffff" stroke-width="1" class="highcharts-point"></rect><rect x="379.5" y="226.5" width="3" height="9" fill="#556b8d" stroke="#ffffff" stroke-width="1" class="highcharts-point"></rect><rect x="422.5" y="235.5" width="3" height="0" fill="#556b8d" stroke="#ffffff" stroke-width="1" class="highcharts-point"></rect><rect x="466.5" y="235.5" width="3" height="0" fill="#556b8d" stroke="#ffffff" stroke-width="1" class="highcharts-point"></rect><rect x="509.5" y="235.5" width="3" height="0" fill="#556b8d" stroke="#ffffff" stroke-width="1" class="highcharts-point"></rect></g><g data-z-index="0.1" class="highcharts-markers highcharts-series-7 highcharts-column-series " transform="translate(68,10) scale(1 1)" clip-path="none"></g></g><g class="highcharts-exporting-group" data-z-index="3"></g><text x="300" text-anchor="middle" class="highcharts-title" data-z-index="4" style="color:#333333;font-size:18px;fill:#333333;" y="24"></text><text x="300" text-anchor="middle" class="highcharts-subtitle" data-z-index="4" style="color:#666666;fill:#666666;" y="24"></text><g class="highcharts-legend" data-z-index="7" transform="translate(74,314)"><rect fill="none" class="highcharts-legend-box" rx="0" ry="0" x="0" y="0" width="451" height="71" visibility="visible"></rect><g data-z-index="1"><g><g class="highcharts-legend-item highcharts-column-series highcharts-color-undefined highcharts-series-0" data-z-index="1" transform="translate(8,3)"><text x="21" style="color:#333333;cursor:pointer;font-size:12px;font-weight:bold;fill:#333333;" text-anchor="start" data-z-index="2" y="15"><tspan>OPENO11</tspan></text><rect x="2" y="4" width="12" height="12" fill="#34495e" rx="6" ry="6" class="highcharts-point" data-z-index="3"></rect></g><g class="highcharts-legend-item highcharts-column-series highcharts-color-undefined highcharts-series-1" data-z-index="1" transform="translate(235.515625,3)"><text x="21" y="15" style="color:#333333;cursor:pointer;font-size:12px;font-weight:bold;fill:#333333;" text-anchor="start" data-z-index="2"><tspan>CAMPUS SANPAOLO</tspan></text><rect x="2" y="4" width="12" height="12" fill="#e73c68" rx="6" ry="6" class="highcharts-point" data-z-index="3"></rect></g><g class="highcharts-legend-item highcharts-column-series highcharts-color-undefined highcharts-series-2" data-z-index="1" transform="translate(8,18)"><text x="21" y="15" style="color:#333333;cursor:pointer;font-size:12px;font-weight:bold;fill:#333333;" text-anchor="start" data-z-index="2"><tspan>Vil. OLIMPICO BARDONECCHIA</tspan></text><rect x="2" y="4" width="12" height="12" fill="#2ecc71" rx="6" ry="6" class="highcharts-point" data-z-index="3"></rect></g><g class="highcharts-legend-item highcharts-column-series highcharts-color-undefined highcharts-series-3" data-z-index="1" transform="translate(235.515625,18)"><text x="21" y="15" style="color:#333333;cursor:pointer;font-size:12px;font-weight:bold;fill:#333333;" text-anchor="start" data-z-index="2"><tspan>CESENATICO</tspan></text><rect x="2" y="4" width="12" height="12" fill="#e74c3c" rx="6" ry="6" class="highcharts-point" data-z-index="3"></rect></g><g class="highcharts-legend-item highcharts-column-series highcharts-color-undefined highcharts-series-4" data-z-index="1" transform="translate(8,33)"><text x="21" y="15" style="color:#333333;cursor:pointer;font-size:12px;font-weight:bold;fill:#333333;" text-anchor="start" data-z-index="2"><tspan>KELUAR</tspan></text><rect x="2" y="4" width="12" height="12" fill="#e67e22" rx="6" ry="6" class="highcharts-point" data-z-index="3"></rect></g><g class="highcharts-legend-item highcharts-column-series highcharts-color-undefined highcharts-series-5" data-z-index="1" transform="translate(235.515625,33)"><text x="21" y="15" style="color:#333333;cursor:pointer;font-size:12px;font-weight:bold;fill:#333333;" text-anchor="start" data-z-index="2"><tspan>SAN PELLEGRINO MISANO ADRIATICO</tspan></text><rect x="2" y="4" width="12" height="12" fill="#3498db" rx="6" ry="6" class="highcharts-point" data-z-index="3"></rect></g><g class="highcharts-legend-item highcharts-column-series highcharts-color-undefined highcharts-series-6" data-z-index="1" transform="translate(8,48)"><text x="21" y="15" style="color:#333333;cursor:pointer;font-size:12px;font-weight:bold;fill:#333333;" text-anchor="start" data-z-index="2"><tspan>SHARING TORINO</tspan></text><rect x="2" y="4" width="12" height="12" fill="#e67e22" rx="6" ry="6" class="highcharts-point" data-z-index="3"></rect></g><g class="highcharts-legend-item highcharts-column-series highcharts-color-undefined highcharts-series-7" data-z-index="1" transform="translate(235.515625,48)"><text x="21" y="15" style="color:#333333;cursor:pointer;font-size:12px;font-weight:bold;fill:#333333;" text-anchor="start" data-z-index="2"><tspan>OSTELLO DI RIVOLI</tspan></text><rect x="2" y="4" width="12" height="12" fill="#556b8d" rx="6" ry="6" class="highcharts-point" data-z-index="3"></rect></g></g></g></g><g class="highcharts-axis-labels highcharts-xaxis-labels " data-z-index="7"><text x="92.34272486435067" style="color:#666666;cursor:default;font-size:11px;fill:#666666;" text-anchor="end" transform="translate(0,0) rotate(-45 92.34272486435067 261)" y="261" opacity="1">Gennaio</text><text x="135.84272486435069" style="color:#666666;cursor:default;font-size:11px;fill:#666666;" text-anchor="end" transform="translate(0,0) rotate(-45 135.84272486435069 261)" y="261" opacity="1">Febbraio</text><text x="179.34272486435069" style="color:#666666;cursor:default;font-size:11px;fill:#666666;" text-anchor="end" transform="translate(0,0) rotate(-45 179.34272486435069 261)" y="261" opacity="1">Marzo</text><text x="222.84272486435069" style="color:#666666;cursor:default;font-size:11px;fill:#666666;" text-anchor="end" transform="translate(0,0) rotate(-45 222.84272486435069 261)" y="261" opacity="1">Aprile</text><text x="266.34272486435066" style="color:#666666;cursor:default;font-size:11px;fill:#666666;" text-anchor="end" transform="translate(0,0) rotate(-45 266.34272486435066 261)" y="261" opacity="1">Maggio</text><text x="309.84272486435066" style="color:#666666;cursor:default;font-size:11px;fill:#666666;" text-anchor="end" transform="translate(0,0) rotate(-45 309.84272486435066 261)" y="261" opacity="1">Giugno</text><text x="353.34272486435066" style="color:#666666;cursor:default;font-size:11px;fill:#666666;" text-anchor="end" transform="translate(0,0) rotate(-45 353.34272486435066 261)" y="261" opacity="1">Luglio</text><text x="396.84272486435066" style="color:#666666;cursor:default;font-size:11px;fill:#666666;" text-anchor="end" transform="translate(0,0) rotate(-45 396.84272486435066 261)" y="261" opacity="1">Agosto</text><text x="440.34272486435066" style="color:#666666;cursor:default;font-size:11px;fill:#666666;" text-anchor="end" transform="translate(0,0) rotate(-45 440.34272486435066 261)" y="261" opacity="1">Settembre</text><text x="483.84272486435066" style="color:#666666;cursor:default;font-size:11px;fill:#666666;" text-anchor="end" transform="translate(0,0) rotate(-45 483.84272486435066 261)" y="261" opacity="1">Ottobre</text><text x="527.3427248643507" style="color:#666666;cursor:default;font-size:11px;fill:#666666;" text-anchor="end" transform="translate(0,0) rotate(-45 527.3427248643507 261)" y="261" opacity="1">Novembre</text><text x="570.8427248643507" style="color:#666666;cursor:default;font-size:11px;fill:#666666;" text-anchor="end" transform="translate(0,0) rotate(-45 570.8427248643507 261)" y="261" opacity="1">Dicembre</text></g><g class="highcharts-axis-labels highcharts-yaxis-labels " data-z-index="7"><text x="53" style="color:#666666;cursor:default;font-size:11px;fill:#666666;" text-anchor="end" transform="translate(0,0)" y="249" opacity="1">0</text><text x="53" style="color:#666666;cursor:default;font-size:11px;fill:#666666;" text-anchor="end" transform="translate(0,0)" y="202" opacity="1">5k</text><text x="53" style="color:#666666;cursor:default;font-size:11px;fill:#666666;" text-anchor="end" transform="translate(0,0)" y="155" opacity="1">10k</text><text x="53" style="color:#666666;cursor:default;font-size:11px;fill:#666666;" text-anchor="end" transform="translate(0,0)" y="108" opacity="1">15k</text><text x="53" style="color:#666666;cursor:default;font-size:11px;fill:#666666;" text-anchor="end" transform="translate(0,0)" y="61" opacity="1">20k</text><text x="53" style="color:#666666;cursor:default;font-size:11px;fill:#666666;" text-anchor="end" transform="translate(0,0)" y="14" opacity="1">25k</text></g></svg>