<svg xmlns:xlink="http://www.w3.org/1999/xlink" version="1.1" class="highcharts-root" style="font-family:&quot;Lucida Grande&quot;, &quot;Lucida Sans Unicode&quot;, Arial, Helvetica, sans-serif;font-size:12px;" xmlns="http://www.w3.org/2000/svg" width="600" height="400" viewBox="0 0 600 400"><desc>Created with Highcharts 7.0.3</desc><defs><clipPath id="highcharts-wj9thqo-155"><rect x="0" y="0" width="522" height="280" fill="none"></rect></clipPath></defs><rect fill="#ffffff" class="highcharts-background" x="0" y="0" width="600" height="400" rx="0" ry="0"></rect><rect fill="none" class="highcharts-plot-background" x="68" y="10" width="522" height="280"></rect><g class="highcharts-grid highcharts-xaxis-grid " data-z-index="1"><path fill="none" data-z-index="1" class="highcharts-grid-line" d="M 111.5 10 L 111.5 290" opacity="1"></path><path fill="none" data-z-index="1" class="highcharts-grid-line" d="M 154.5 10 L 154.5 290" opacity="1"></path><path fill="none" data-z-index="1" class="highcharts-grid-line" d="M 198.5 10 L 198.5 290" opacity="1"></path><path fill="none" data-z-index="1" class="highcharts-grid-line" d="M 241.5 10 L 241.5 290" opacity="1"></path><path fill="none" data-z-index="1" class="highcharts-grid-line" d="M 285.5 10 L 285.5 290" opacity="1"></path><path fill="none" data-z-index="1" class="highcharts-grid-line" d="M 328.5 10 L 328.5 290" opacity="1"></path><path fill="none" data-z-index="1" class="highcharts-grid-line" d="M 372.5 10 L 372.5 290" opacity="1"></path><path fill="none" data-z-index="1" class="highcharts-grid-line" d="M 415.5 10 L 415.5 290" opacity="1"></path><path fill="none" data-z-index="1" class="highcharts-grid-line" d="M 459.5 10 L 459.5 290" opacity="1"></path><path fill="none" data-z-index="1" class="highcharts-grid-line" d="M 502.5 10 L 502.5 290" opacity="1"></path><path fill="none" data-z-index="1" class="highcharts-grid-line" d="M 546.5 10 L 546.5 290" opacity="1"></path><path fill="none" data-z-index="1" class="highcharts-grid-line" d="M 589.5 10 L 589.5 290" opacity="1"></path><path fill="none" data-z-index="1" class="highcharts-grid-line" d="M 67.5 10 L 67.5 290" opacity="1"></path></g><g class="highcharts-grid highcharts-yaxis-grid " data-z-index="1"><path fill="none" stroke="#e6e6e6" stroke-width="1" data-z-index="1" class="highcharts-grid-line" d="M 68 290.5 L 590 290.5" opacity="1"></path><path fill="none" stroke="#e6e6e6" stroke-width="1" data-z-index="1" class="highcharts-grid-line" d="M 68 234.5 L 590 234.5" opacity="1"></path><path fill="none" stroke="#e6e6e6" stroke-width="1" data-z-index="1" class="highcharts-grid-line" d="M 68 178.5 L 590 178.5" opacity="1"></path><path fill="none" stroke="#e6e6e6" stroke-width="1" data-z-index="1" class="highcharts-grid-line" d="M 68 122.5 L 590 122.5" opacity="1"></path><path fill="none" stroke="#e6e6e6" stroke-width="1" data-z-index="1" class="highcharts-grid-line" d="M 68 66.5 L 590 66.5" opacity="1"></path><path fill="none" stroke="#e6e6e6" stroke-width="1" data-z-index="1" class="highcharts-grid-line" d="M 68 9.5 L 590 9.5" opacity="1"></path></g><rect fill="none" class="highcharts-plot-border" data-z-index="1" x="68" y="10" width="522" height="280"></rect><g class="highcharts-axis highcharts-xaxis " data-z-index="2"><path fill="none" class="highcharts-tick" stroke="#ccd6eb" stroke-width="1" d="M 111.5 290 L 111.5 300" opacity="1"></path><path fill="none" class="highcharts-tick" stroke="#ccd6eb" stroke-width="1" d="M 154.5 290 L 154.5 300" opacity="1"></path><path fill="none" class="highcharts-tick" stroke="#ccd6eb" stroke-width="1" d="M 198.5 290 L 198.5 300" opacity="1"></path><path fill="none" class="highcharts-tick" stroke="#ccd6eb" stroke-width="1" d="M 241.5 290 L 241.5 300" opacity="1"></path><path fill="none" class="highcharts-tick" stroke="#ccd6eb" stroke-width="1" d="M 285.5 290 L 285.5 300" opacity="1"></path><path fill="none" class="highcharts-tick" stroke="#ccd6eb" stroke-width="1" d="M 328.5 290 L 328.5 300" opacity="1"></path><path fill="none" class="highcharts-tick" stroke="#ccd6eb" stroke-width="1" d="M 372.5 290 L 372.5 300" opacity="1"></path><path fill="none" class="highcharts-tick" stroke="#ccd6eb" stroke-width="1" d="M 415.5 290 L 415.5 300" opacity="1"></path><path fill="none" class="highcharts-tick" stroke="#ccd6eb" stroke-width="1" d="M 459.5 290 L 459.5 300" opacity="1"></path><path fill="none" class="highcharts-tick" stroke="#ccd6eb" stroke-width="1" d="M 502.5 290 L 502.5 300" opacity="1"></path><path fill="none" class="highcharts-tick" stroke="#ccd6eb" stroke-width="1" d="M 546.5 290 L 546.5 300" opacity="1"></path><path fill="none" class="highcharts-tick" stroke="#ccd6eb" stroke-width="1" d="M 590.5 290 L 590.5 300" opacity="1"></path><path fill="none" class="highcharts-tick" stroke="#ccd6eb" stroke-width="1" d="M 67.5 290 L 67.5 300" opacity="1"></path><path fill="none" class="highcharts-axis-line" stroke="#ccd6eb" stroke-width="1" data-z-index="7" d="M 68 290.5 L 590 290.5"></path></g><g class="highcharts-axis highcharts-yaxis " data-z-index="2"><text x="25.078125" data-z-index="7" text-anchor="middle" transform="translate(0,0) rotate(270 25.078125 150)" class="highcharts-axis-title" style="color:#666666;fill:#666666;" y="150"><tspan>Totale</tspan></text><path fill="none" class="highcharts-axis-line" data-z-index="7" d="M 68 10 L 68 290"></path></g><text x="118" y="40" data-z-index="2" style="position:absolute;color:#333333;fill:#333333;"></text><g class="highcharts-series-group" data-z-index="3"><g data-z-index="0.1" class="highcharts-series highcharts-series-0 highcharts-column-series " transform="translate(68,10) scale(1 1)" clip-path="url(#highcharts-wj9thqo-155)"><rect x="9.5" y="47.5" width="11" height="233" fill="#e73c68" stroke="#ffffff" stroke-width="1" class="highcharts-point"></rect><rect x="53.5" y="63.5" width="11" height="217" fill="#e73c68" stroke="#ffffff" stroke-width="1" class="highcharts-point"></rect><rect x="96.5" y="83.5" width="11" height="197" fill="#e73c68" stroke="#ffffff" stroke-width="1" class="highcharts-point"></rect><rect x="140.5" y="179.5" width="11" height="101" fill="#e73c68" stroke="#ffffff" stroke-width="1" class="highcharts-point"></rect><rect x="183.5" y="175.5" width="11" height="105" fill="#e73c68" stroke="#ffffff" stroke-width="1" class="highcharts-point"></rect><rect x="227.5" y="113.5" width="11" height="167" fill="#e73c68" stroke="#ffffff" stroke-width="1" class="highcharts-point"></rect><rect x="270.5" y="91.5" width="11" height="189" fill="#e73c68" stroke="#ffffff" stroke-width="1" class="highcharts-point"></rect><rect x="314.5" y="138.5" width="11" height="142" fill="#e73c68" stroke="#ffffff" stroke-width="1" class="highcharts-point"></rect><rect x="357.5" y="147.5" width="11" height="133" fill="#e73c68" stroke="#ffffff" stroke-width="1" class="highcharts-point"></rect><rect x="401.5" y="144.5" width="11" height="136" fill="#e73c68" stroke="#ffffff" stroke-width="1" class="highcharts-point"></rect><rect x="444.5" y="169.5" width="11" height="111" fill="#e73c68" stroke="#ffffff" stroke-width="1" class="highcharts-point"></rect><rect x="488.5" y="100.5" width="11" height="180" fill="#e73c68" stroke="#ffffff" stroke-width="1" class="highcharts-point"></rect></g><g data-z-index="0.1" class="highcharts-markers highcharts-series-0 highcharts-column-series " transform="translate(68,10) scale(1 1)" clip-path="none"></g><g data-z-index="0.1" class="highcharts-series highcharts-series-1 highcharts-column-series " transform="translate(68,10) scale(1 1)" clip-path="url(#highcharts-wj9thqo-155)"><rect x="22.5" y="258.5" width="11" height="22" fill="#34495e" stroke="#ffffff" stroke-width="1" class="highcharts-point"></rect><rect x="66.5" y="258.5" width="11" height="22" fill="#34495e" stroke="#ffffff" stroke-width="1" class="highcharts-point"></rect><rect x="109.5" y="257.5" width="11" height="23" fill="#34495e" stroke="#ffffff" stroke-width="1" class="highcharts-point"></rect><rect x="153.5" y="259.5" width="11" height="21" fill="#34495e" stroke="#ffffff" stroke-width="1" class="highcharts-point"></rect><rect x="196.5" y="253.5" width="11" height="27" fill="#34495e" stroke="#ffffff" stroke-width="1" class="highcharts-point"></rect><rect x="240.5" y="251.5" width="11" height="29" fill="#34495e" stroke="#ffffff" stroke-width="1" class="highcharts-point"></rect><rect x="283.5" y="244.5" width="11" height="36" fill="#34495e" stroke="#ffffff" stroke-width="1" class="highcharts-point"></rect><rect x="327.5" y="250.5" width="11" height="30" fill="#34495e" stroke="#ffffff" stroke-width="1" class="highcharts-point"></rect><rect x="370.5" y="254.5" width="11" height="26" fill="#34495e" stroke="#ffffff" stroke-width="1" class="highcharts-point"></rect><rect x="414.5" y="260.5" width="11" height="20" fill="#34495e" stroke="#ffffff" stroke-width="1" class="highcharts-point"></rect><rect x="457.5" y="259.5" width="11" height="21" fill="#34495e" stroke="#ffffff" stroke-width="1" class="highcharts-point"></rect><rect x="501.5" y="255.5" width="11" height="25" fill="#34495e" stroke="#ffffff" stroke-width="1" class="highcharts-point"></rect></g><g data-z-index="0.1" class="highcharts-markers highcharts-series-1 highcharts-column-series " transform="translate(68,10) scale(1 1)" clip-path="none"></g></g><g class="highcharts-exporting-group" data-z-index="3"></g><text x="300" text-anchor="middle" class="highcharts-title" data-z-index="4" style="color:#333333;font-size:18px;fill:#333333;" y="24"></text><text x="300" text-anchor="middle" class="highcharts-subtitle" data-z-index="4" style="color:#666666;fill:#666666;" y="24"></text><g class="highcharts-legend" data-z-index="7" transform="translate(187,359)"><rect fill="none" class="highcharts-legend-box" rx="0" ry="0" x="0" y="0" width="226" height="26" visibility="visible"></rect><g data-z-index="1"><g><g class="highcharts-legend-item highcharts-column-series highcharts-color-undefined highcharts-series-0" data-z-index="1" transform="translate(8,3)"><text x="21" style="color:#333333;cursor:pointer;font-size:12px;font-weight:bold;fill:#333333;" text-anchor="start" data-z-index="2" y="15"><tspan>CAMPUS SANPAOLO</tspan></text><rect x="2" y="4" width="12" height="12" fill="#e73c68" rx="6" ry="6" class="highcharts-point" data-z-index="3"></rect></g><g class="highcharts-legend-item highcharts-column-series highcharts-color-undefined highcharts-series-1" data-z-index="1" transform="translate(149.109375,3)"><text x="21" y="15" style="color:#333333;cursor:pointer;font-size:12px;font-weight:bold;fill:#333333;" text-anchor="start" data-z-index="2"><tspan>OPENO11</tspan></text><rect x="2" y="4" width="12" height="12" fill="#34495e" rx="6" ry="6" class="highcharts-point" data-z-index="3"></rect></g></g></g></g><g class="highcharts-axis-labels highcharts-xaxis-labels " data-z-index="7"><text x="92.34272486435067" style="color:#666666;cursor:default;font-size:11px;fill:#666666;" text-anchor="end" transform="translate(0,0) rotate(-45 92.34272486435067 306)" y="306" opacity="1">Gennaio</text><text x="135.84272486435069" style="color:#666666;cursor:default;font-size:11px;fill:#666666;" text-anchor="end" transform="translate(0,0) rotate(-45 135.84272486435069 306)" y="306" opacity="1">Febbraio</text><text x="179.34272486435069" style="color:#666666;cursor:default;font-size:11px;fill:#666666;" text-anchor="end" transform="translate(0,0) rotate(-45 179.34272486435069 306)" y="306" opacity="1">Marzo</text><text x="222.84272486435069" style="color:#666666;cursor:default;font-size:11px;fill:#666666;" text-anchor="end" transform="translate(0,0) rotate(-45 222.84272486435069 306)" y="306" opacity="1">Aprile</text><text x="266.34272486435066" style="color:#666666;cursor:default;font-size:11px;fill:#666666;" text-anchor="end" transform="translate(0,0) rotate(-45 266.34272486435066 306)" y="306" opacity="1">Maggio</text><text x="309.84272486435066" style="color:#666666;cursor:default;font-size:11px;fill:#666666;" text-anchor="end" transform="translate(0,0) rotate(-45 309.84272486435066 306)" y="306" opacity="1">Giugno</text><text x="353.34272486435066" style="color:#666666;cursor:default;font-size:11px;fill:#666666;" text-anchor="end" transform="translate(0,0) rotate(-45 353.34272486435066 306)" y="306" opacity="1">Luglio</text><text x="396.84272486435066" style="color:#666666;cursor:default;font-size:11px;fill:#666666;" text-anchor="end" transform="translate(0,0) rotate(-45 396.84272486435066 306)" y="306" opacity="1">Agosto</text><text x="440.34272486435066" style="color:#666666;cursor:default;font-size:11px;fill:#666666;" text-anchor="end" transform="translate(0,0) rotate(-45 440.34272486435066 306)" y="306" opacity="1">Settembre</text><text x="483.84272486435066" style="color:#666666;cursor:default;font-size:11px;fill:#666666;" text-anchor="end" transform="translate(0,0) rotate(-45 483.84272486435066 306)" y="306" opacity="1">Ottobre</text><text x="527.3427248643507" style="color:#666666;cursor:default;font-size:11px;fill:#666666;" text-anchor="end" transform="translate(0,0) rotate(-45 527.3427248643507 306)" y="306" opacity="1">Novembre</text><text x="570.8427248643507" style="color:#666666;cursor:default;font-size:11px;fill:#666666;" text-anchor="end" transform="translate(0,0) rotate(-45 570.8427248643507 306)" y="306" opacity="1">Dicembre</text></g><g class="highcharts-axis-labels highcharts-yaxis-labels " data-z-index="7"><text x="53" style="color:#666666;cursor:default;font-size:11px;fill:#666666;" text-anchor="end" transform="translate(0,0)" y="294" opacity="1">0</text><text x="53" style="color:#666666;cursor:default;font-size:11px;fill:#666666;" text-anchor="end" transform="translate(0,0)" y="238" opacity="1">5k</text><text x="53" style="color:#666666;cursor:default;font-size:11px;fill:#666666;" text-anchor="end" transform="translate(0,0)" y="182" opacity="1">10k</text><text x="53" style="color:#666666;cursor:default;font-size:11px;fill:#666666;" text-anchor="end" transform="translate(0,0)" y="126" opacity="1">15k</text><text x="53" style="color:#666666;cursor:default;font-size:11px;fill:#666666;" text-anchor="end" transform="translate(0,0)" y="70" opacity="1">20k</text><text x="53" style="color:#666666;cursor:default;font-size:11px;fill:#666666;" text-anchor="end" transform="translate(0,0)" y="14" opacity="1">25k</text></g></svg>