<svg xmlns:xlink="http://www.w3.org/1999/xlink" version="1.1" class="highcharts-root" style="font-family:&quot;Lucida Grande&quot;, &quot;Lucida Sans Unicode&quot;, Arial, Helvetica, sans-serif;font-size:12px;" xmlns="http://www.w3.org/2000/svg" width="600" height="400" viewBox="0 0 600 400"><desc>Created with Highcharts 7.0.3</desc><defs><clipPath id="highcharts-wj9thqo-95"><rect x="0" y="0" width="528" height="280" fill="none"></rect></clipPath></defs><rect fill="#ffffff" class="highcharts-background" x="0" y="0" width="600" height="400" rx="0" ry="0"></rect><rect fill="none" class="highcharts-plot-background" x="62" y="10" width="528" height="280"></rect><g class="highcharts-grid highcharts-xaxis-grid " data-z-index="1"><path fill="none" data-z-index="1" class="highcharts-grid-line" d="M 105.5 10 L 105.5 290" opacity="1"></path><path fill="none" data-z-index="1" class="highcharts-grid-line" d="M 149.5 10 L 149.5 290" opacity="1"></path><path fill="none" data-z-index="1" class="highcharts-grid-line" d="M 193.5 10 L 193.5 290" opacity="1"></path><path fill="none" data-z-index="1" class="highcharts-grid-line" d="M 237.5 10 L 237.5 290" opacity="1"></path><path fill="none" data-z-index="1" class="highcharts-grid-line" d="M 281.5 10 L 281.5 290" opacity="1"></path><path fill="none" data-z-index="1" class="highcharts-grid-line" d="M 325.5 10 L 325.5 290" opacity="1"></path><path fill="none" data-z-index="1" class="highcharts-grid-line" d="M 369.5 10 L 369.5 290" opacity="1"></path><path fill="none" data-z-index="1" class="highcharts-grid-line" d="M 413.5 10 L 413.5 290" opacity="1"></path><path fill="none" data-z-index="1" class="highcharts-grid-line" d="M 457.5 10 L 457.5 290" opacity="1"></path><path fill="none" data-z-index="1" class="highcharts-grid-line" d="M 501.5 10 L 501.5 290" opacity="1"></path><path fill="none" data-z-index="1" class="highcharts-grid-line" d="M 545.5 10 L 545.5 290" opacity="1"></path><path fill="none" data-z-index="1" class="highcharts-grid-line" d="M 589.5 10 L 589.5 290" opacity="1"></path><path fill="none" data-z-index="1" class="highcharts-grid-line" d="M 61.5 10 L 61.5 290" opacity="1"></path></g><g class="highcharts-grid highcharts-yaxis-grid " data-z-index="1"><path fill="none" stroke="#e6e6e6" stroke-width="1" data-z-index="1" class="highcharts-grid-line" d="M 62 290.5 L 590 290.5" opacity="1"></path><path fill="none" stroke="#e6e6e6" stroke-width="1" data-z-index="1" class="highcharts-grid-line" d="M 62 197.5 L 590 197.5" opacity="1"></path><path fill="none" stroke="#e6e6e6" stroke-width="1" data-z-index="1" class="highcharts-grid-line" d="M 62 103.5 L 590 103.5" opacity="1"></path><path fill="none" stroke="#e6e6e6" stroke-width="1" data-z-index="1" class="highcharts-grid-line" d="M 62 9.5 L 590 9.5" opacity="1"></path></g><rect fill="none" class="highcharts-plot-border" data-z-index="1" x="62" y="10" width="528" height="280"></rect><g class="highcharts-axis highcharts-xaxis " data-z-index="2"><path fill="none" class="highcharts-tick" stroke="#ccd6eb" stroke-width="1" d="M 105.5 290 L 105.5 300" opacity="1"></path><path fill="none" class="highcharts-tick" stroke="#ccd6eb" stroke-width="1" d="M 149.5 290 L 149.5 300" opacity="1"></path><path fill="none" class="highcharts-tick" stroke="#ccd6eb" stroke-width="1" d="M 193.5 290 L 193.5 300" opacity="1"></path><path fill="none" class="highcharts-tick" stroke="#ccd6eb" stroke-width="1" d="M 237.5 290 L 237.5 300" opacity="1"></path><path fill="none" class="highcharts-tick" stroke="#ccd6eb" stroke-width="1" d="M 281.5 290 L 281.5 300" opacity="1"></path><path fill="none" class="highcharts-tick" stroke="#ccd6eb" stroke-width="1" d="M 325.5 290 L 325.5 300" opacity="1"></path><path fill="none" class="highcharts-tick" stroke="#ccd6eb" stroke-width="1" d="M 369.5 290 L 369.5 300" opacity="1"></path><path fill="none" class="highcharts-tick" stroke="#ccd6eb" stroke-width="1" d="M 413.5 290 L 413.5 300" opacity="1"></path><path fill="none" class="highcharts-tick" stroke="#ccd6eb" stroke-width="1" d="M 457.5 290 L 457.5 300" opacity="1"></path><path fill="none" class="highcharts-tick" stroke="#ccd6eb" stroke-width="1" d="M 501.5 290 L 501.5 300" opacity="1"></path><path fill="none" class="highcharts-tick" stroke="#ccd6eb" stroke-width="1" d="M 545.5 290 L 545.5 300" opacity="1"></path><path fill="none" class="highcharts-tick" stroke="#ccd6eb" stroke-width="1" d="M 590.5 290 L 590.5 300" opacity="1"></path><path fill="none" class="highcharts-tick" stroke="#ccd6eb" stroke-width="1" d="M 61.5 290 L 61.5 300" opacity="1"></path><path fill="none" class="highcharts-axis-line" stroke="#ccd6eb" stroke-width="1" data-z-index="7" d="M 62 290.5 L 590 290.5"></path></g><g class="highcharts-axis highcharts-yaxis " data-z-index="2"><text x="24.546875" data-z-index="7" text-anchor="middle" transform="translate(0,0) rotate(270 24.546875 150)" class="highcharts-axis-title" style="color:#666666;fill:#666666;" y="150"><tspan>Totale</tspan></text><path fill="none" class="highcharts-axis-line" data-z-index="7" d="M 62 10 L 62 290"></path></g><text x="112" y="40" data-z-index="2" style="position:absolute;color:#333333;fill:#333333;"></text><g class="highcharts-series-group" data-z-index="3"><g data-z-index="0.1" class="highcharts-series highcharts-series-0 highcharts-column-series " transform="translate(62,10) scale(1 1)" clip-path="url(#highcharts-wj9thqo-95)"><rect x="9.5" y="105.5" width="11" height="175" fill="#e73c68" stroke="#ffffff" stroke-width="1" class="highcharts-point"></rect><rect x="53.5" y="102.5" width="11" height="178" fill="#e73c68" stroke="#ffffff" stroke-width="1" class="highcharts-point"></rect><rect x="97.5" y="73.5" width="11" height="207" fill="#e73c68" stroke="#ffffff" stroke-width="1" class="highcharts-point"></rect><rect x="141.5" y="100.5" width="11" height="180" fill="#e73c68" stroke="#ffffff" stroke-width="1" class="highcharts-point"></rect><rect x="185.5" y="115.5" width="11" height="165" fill="#e73c68" stroke="#ffffff" stroke-width="1" class="highcharts-point"></rect><rect x="229.5" y="185.5" width="11" height="95" fill="#e73c68" stroke="#ffffff" stroke-width="1" class="highcharts-point"></rect><rect x="273.5" y="194.5" width="11" height="86" fill="#e73c68" stroke="#ffffff" stroke-width="1" class="highcharts-point"></rect><rect x="317.5" y="238.5" width="11" height="42" fill="#e73c68" stroke="#ffffff" stroke-width="1" class="highcharts-point"></rect><rect x="361.5" y="211.5" width="11" height="69" fill="#e73c68" stroke="#ffffff" stroke-width="1" class="highcharts-point"></rect><rect x="405.5" y="179.5" width="11" height="101" fill="#e73c68" stroke="#ffffff" stroke-width="1" class="highcharts-point"></rect><rect x="449.5" y="170.5" width="11" height="110" fill="#e73c68" stroke="#ffffff" stroke-width="1" class="highcharts-point"></rect><rect x="493.5" y="21.5" width="11" height="259" fill="#e73c68" stroke="#ffffff" stroke-width="1" class="highcharts-point"></rect></g><g data-z-index="0.1" class="highcharts-markers highcharts-series-0 highcharts-column-series " transform="translate(62,10) scale(1 1)" clip-path="none"></g><g data-z-index="0.1" class="highcharts-series highcharts-series-1 highcharts-column-series " transform="translate(62,10) scale(1 1)" clip-path="url(#highcharts-wj9thqo-95)"><rect x="22.5" y="193.5" width="11" height="87" fill="#34495e" stroke="#ffffff" stroke-width="1" class="highcharts-point"></rect><rect x="66.5" y="262.5" width="11" height="18" fill="#34495e" stroke="#ffffff" stroke-width="1" class="highcharts-point"></rect><rect x="110.5" y="141.5" width="11" height="139" fill="#34495e" stroke="#ffffff" stroke-width="1" class="highcharts-point"></rect><rect x="154.5" y="203.5" width="11" height="77" fill="#34495e" stroke="#ffffff" stroke-width="1" class="highcharts-point"></rect><rect x="198.5" y="254.5" width="11" height="26" fill="#34495e" stroke="#ffffff" stroke-width="1" class="highcharts-point"></rect><rect x="242.5" y="256.5" width="11" height="24" fill="#34495e" stroke="#ffffff" stroke-width="1" class="highcharts-point"></rect><rect x="286.5" y="256.5" width="11" height="24" fill="#34495e" stroke="#ffffff" stroke-width="1" class="highcharts-point"></rect><rect x="330.5" y="253.5" width="11" height="27" fill="#34495e" stroke="#ffffff" stroke-width="1" class="highcharts-point"></rect><rect x="374.5" y="252.5" width="11" height="28" fill="#34495e" stroke="#ffffff" stroke-width="1" class="highcharts-point"></rect><rect x="418.5" y="194.5" width="11" height="86" fill="#34495e" stroke="#ffffff" stroke-width="1" class="highcharts-point"></rect><rect x="462.5" y="127.5" width="11" height="153" fill="#34495e" stroke="#ffffff" stroke-width="1" class="highcharts-point"></rect><rect x="506.5" y="55.5" width="11" height="225" fill="#34495e" stroke="#ffffff" stroke-width="1" class="highcharts-point"></rect></g><g data-z-index="0.1" class="highcharts-markers highcharts-series-1 highcharts-column-series " transform="translate(62,10) scale(1 1)" clip-path="none"></g></g><g class="highcharts-exporting-group" data-z-index="3"></g><text x="300" text-anchor="middle" class="highcharts-title" data-z-index="4" style="color:#333333;font-size:18px;fill:#333333;" y="24"></text><text x="300" text-anchor="middle" class="highcharts-subtitle" data-z-index="4" style="color:#666666;fill:#666666;" y="24"></text><g class="highcharts-legend" data-z-index="7" transform="translate(187,359)"><rect fill="none" class="highcharts-legend-box" rx="0" ry="0" x="0" y="0" width="226" height="26" visibility="visible"></rect><g data-z-index="1"><g><g class="highcharts-legend-item highcharts-column-series highcharts-color-undefined highcharts-series-0" data-z-index="1" transform="translate(8,3)"><text x="21" style="color:#333333;cursor:pointer;font-size:12px;font-weight:bold;fill:#333333;" text-anchor="start" data-z-index="2" y="15"><tspan>CAMPUS SANPAOLO</tspan></text><rect x="2" y="4" width="12" height="12" fill="#e73c68" rx="6" ry="6" class="highcharts-point" data-z-index="3"></rect></g><g class="highcharts-legend-item highcharts-column-series highcharts-color-undefined highcharts-series-1" data-z-index="1" transform="translate(149.109375,3)"><text x="21" y="15" style="color:#333333;cursor:pointer;font-size:12px;font-weight:bold;fill:#333333;" text-anchor="start" data-z-index="2"><tspan>OPENO11</tspan></text><rect x="2" y="4" width="12" height="12" fill="#34495e" rx="6" ry="6" class="highcharts-point" data-z-index="3"></rect></g></g></g></g><g class="highcharts-axis-labels highcharts-xaxis-labels " data-z-index="7"><text x="86.59272486435067" style="color:#666666;cursor:default;font-size:11px;fill:#666666;" text-anchor="end" transform="translate(0,0) rotate(-45 86.59272486435067 306)" y="306" opacity="1">Gennaio</text><text x="130.59272486435069" style="color:#666666;cursor:default;font-size:11px;fill:#666666;" text-anchor="end" transform="translate(0,0) rotate(-45 130.59272486435069 306)" y="306" opacity="1">Febbraio</text><text x="174.59272486435069" style="color:#666666;cursor:default;font-size:11px;fill:#666666;" text-anchor="end" transform="translate(0,0) rotate(-45 174.59272486435069 306)" y="306" opacity="1">Marzo</text><text x="218.59272486435069" style="color:#666666;cursor:default;font-size:11px;fill:#666666;" text-anchor="end" transform="translate(0,0) rotate(-45 218.59272486435069 306)" y="306" opacity="1">Aprile</text><text x="262.59272486435066" style="color:#666666;cursor:default;font-size:11px;fill:#666666;" text-anchor="end" transform="translate(0,0) rotate(-45 262.59272486435066 306)" y="306" opacity="1">Maggio</text><text x="306.59272486435066" style="color:#666666;cursor:default;font-size:11px;fill:#666666;" text-anchor="end" transform="translate(0,0) rotate(-45 306.59272486435066 306)" y="306" opacity="1">Giugno</text><text x="350.59272486435066" style="color:#666666;cursor:default;font-size:11px;fill:#666666;" text-anchor="end" transform="translate(0,0) rotate(-45 350.59272486435066 306)" y="306" opacity="1">Luglio</text><text x="394.59272486435066" style="color:#666666;cursor:default;font-size:11px;fill:#666666;" text-anchor="end" transform="translate(0,0) rotate(-45 394.59272486435066 306)" y="306" opacity="1">Agosto</text><text x="438.59272486435066" style="color:#666666;cursor:default;font-size:11px;fill:#666666;" text-anchor="end" transform="translate(0,0) rotate(-45 438.59272486435066 306)" y="306" opacity="1">Settembre</text><text x="482.59272486435066" style="color:#666666;cursor:default;font-size:11px;fill:#666666;" text-anchor="end" transform="translate(0,0) rotate(-45 482.59272486435066 306)" y="306" opacity="1">Ottobre</text><text x="526.5927248643507" style="color:#666666;cursor:default;font-size:11px;fill:#666666;" text-anchor="end" transform="translate(0,0) rotate(-45 526.5927248643507 306)" y="306" opacity="1">Novembre</text><text x="570.5927248643507" style="color:#666666;cursor:default;font-size:11px;fill:#666666;" text-anchor="end" transform="translate(0,0) rotate(-45 570.5927248643507 306)" y="306" opacity="1">Dicembre</text></g><g class="highcharts-axis-labels highcharts-yaxis-labels " data-z-index="7"><text x="47" style="color:#666666;cursor:default;font-size:11px;fill:#666666;" text-anchor="end" transform="translate(0,0)" y="294" opacity="1">0</text><text x="47" style="color:#666666;cursor:default;font-size:11px;fill:#666666;" text-anchor="end" transform="translate(0,0)" y="201" opacity="1">2k</text><text x="47" style="color:#666666;cursor:default;font-size:11px;fill:#666666;" text-anchor="end" transform="translate(0,0)" y="107" opacity="1">4k</text><text x="47" style="color:#666666;cursor:default;font-size:11px;fill:#666666;" text-anchor="end" transform="translate(0,0)" y="14" opacity="1">6k</text></g></svg>