<svg xmlns:xlink="http://www.w3.org/1999/xlink" version="1.1" class="highcharts-root" style="font-family:&quot;Lucida Grande&quot;, &quot;Lucida Sans Unicode&quot;, Arial, Helvetica, sans-serif;font-size:12px;" xmlns="http://www.w3.org/2000/svg" width="600" height="400" viewBox="0 0 600 400"><desc>Created with Highcharts 8.2.2</desc><defs><clipPath id="highcharts-ew8q4ig-117-"><rect x="0" y="0" width="514" height="280" fill="none"></rect></clipPath></defs><rect fill="#ffffff" class="highcharts-background" x="0" y="0" width="600" height="400" rx="0" ry="0"></rect><rect fill="none" class="highcharts-plot-background" x="76" y="10" width="514" height="280"></rect><g class="highcharts-grid highcharts-xaxis-grid" data-z-index="1"><path fill="none" data-z-index="1" class="highcharts-grid-line" d="M 118.5 10 L 118.5 290" opacity="1"></path><path fill="none" data-z-index="1" class="highcharts-grid-line" d="M 161.5 10 L 161.5 290" opacity="1"></path><path fill="none" data-z-index="1" class="highcharts-grid-line" d="M 204.5 10 L 204.5 290" opacity="1"></path><path fill="none" data-z-index="1" class="highcharts-grid-line" d="M 246.5 10 L 246.5 290" opacity="1"></path><path fill="none" data-z-index="1" class="highcharts-grid-line" d="M 289.5 10 L 289.5 290" opacity="1"></path><path fill="none" data-z-index="1" class="highcharts-grid-line" d="M 332.5 10 L 332.5 290" opacity="1"></path><path fill="none" data-z-index="1" class="highcharts-grid-line" d="M 375.5 10 L 375.5 290" opacity="1"></path><path fill="none" data-z-index="1" class="highcharts-grid-line" d="M 418.5 10 L 418.5 290" opacity="1"></path><path fill="none" data-z-index="1" class="highcharts-grid-line" d="M 461.5 10 L 461.5 290" opacity="1"></path><path fill="none" data-z-index="1" class="highcharts-grid-line" d="M 503.5 10 L 503.5 290" opacity="1"></path><path fill="none" data-z-index="1" class="highcharts-grid-line" d="M 546.5 10 L 546.5 290" opacity="1"></path><path fill="none" data-z-index="1" class="highcharts-grid-line" d="M 589.5 10 L 589.5 290" opacity="1"></path><path fill="none" data-z-index="1" class="highcharts-grid-line" d="M 75.5 10 L 75.5 290" opacity="1"></path></g><g class="highcharts-grid highcharts-yaxis-grid" data-z-index="1"><path fill="none" stroke="#e6e6e6" stroke-width="1" data-z-index="1" class="highcharts-grid-line" d="M 76 290.5 L 590 290.5" opacity="1"></path><path fill="none" stroke="#e6e6e6" stroke-width="1" data-z-index="1" class="highcharts-grid-line" d="M 76 243.5 L 590 243.5" opacity="1"></path><path fill="none" stroke="#e6e6e6" stroke-width="1" data-z-index="1" class="highcharts-grid-line" d="M 76 197.5 L 590 197.5" opacity="1"></path><path fill="none" stroke="#e6e6e6" stroke-width="1" data-z-index="1" class="highcharts-grid-line" d="M 76 150.5 L 590 150.5" opacity="1"></path><path fill="none" stroke="#e6e6e6" stroke-width="1" data-z-index="1" class="highcharts-grid-line" d="M 76 103.5 L 590 103.5" opacity="1"></path><path fill="none" stroke="#e6e6e6" stroke-width="1" data-z-index="1" class="highcharts-grid-line" d="M 76 57.5 L 590 57.5" opacity="1"></path><path fill="none" stroke="#e6e6e6" stroke-width="1" data-z-index="1" class="highcharts-grid-line" d="M 76 9.5 L 590 9.5" opacity="1"></path></g><rect fill="none" class="highcharts-plot-border" data-z-index="1" x="76" y="10" width="514" height="280"></rect><g class="highcharts-axis highcharts-xaxis" data-z-index="2"><path fill="none" class="highcharts-axis-line" stroke="#ccd6eb" stroke-width="1" data-z-index="7" d="M 76 290.5 L 590 290.5"></path></g><g class="highcharts-axis highcharts-yaxis" data-z-index="2"><text x="24.859375" data-z-index="7" text-anchor="middle" transform="translate(0,0) rotate(270 24.859375 150)" class="highcharts-axis-title" style="color:#666666;fill:#666666;" y="150"><tspan>Totale</tspan></text><path fill="none" class="highcharts-axis-line" data-z-index="7" d="M 76 10 L 76 290"></path></g><text x="126" y="40" data-z-index="2" style="position:absolute;color:#333333;fill:#333333;"></text><g class="highcharts-series-group" data-z-index="3"><g class="highcharts-series highcharts-series-0 highcharts-column-series" data-z-index="0.1" opacity="1" transform="translate(76,10) scale(1 1)" clip-path="url(#highcharts-ew8q4ig-117-)"><rect x="8.5" y="205.5" width="7" height="75" fill="#34495e" stroke="#ffffff" stroke-width="1" opacity="1" class="highcharts-point"></rect><rect x="51.5" y="208.5" width="7" height="72" fill="#34495e" stroke="#ffffff" stroke-width="1" opacity="1" class="highcharts-point"></rect><rect x="94.5" y="219.5" width="7" height="61" fill="#34495e" stroke="#ffffff" stroke-width="1" opacity="1" class="highcharts-point"></rect><rect x="137.5" y="254.5" width="7" height="26" fill="#34495e" stroke="#ffffff" stroke-width="1" opacity="1" class="highcharts-point"></rect><rect x="180.5" y="271.5" width="7" height="9" fill="#34495e" stroke="#ffffff" stroke-width="1" opacity="1" class="highcharts-point"></rect><rect x="223.5" y="269.5" width="7" height="11" fill="#34495e" stroke="#ffffff" stroke-width="1" opacity="1" class="highcharts-point"></rect><rect x="265.5" y="273.5" width="7" height="7" fill="#34495e" stroke="#ffffff" stroke-width="1" opacity="1" class="highcharts-point"></rect><rect x="308.5" y="274.5" width="7" height="6" fill="#34495e" stroke="#ffffff" stroke-width="1" opacity="1" class="highcharts-point"></rect><rect x="351.5" y="273.5" width="7" height="7" fill="#34495e" stroke="#ffffff" stroke-width="1" opacity="1" class="highcharts-point"></rect><rect x="394.5" y="257.5" width="7" height="23" fill="#34495e" stroke="#ffffff" stroke-width="1" opacity="1" class="highcharts-point"></rect><rect x="437.5" y="213.5" width="7" height="67" fill="#34495e" stroke="#ffffff" stroke-width="1" opacity="1" class="highcharts-point"></rect><rect x="480.5" y="212.5" width="7" height="68" fill="#34495e" stroke="#ffffff" stroke-width="1" opacity="1" class="highcharts-point"></rect></g><g class="highcharts-markers highcharts-series-0 highcharts-column-series" data-z-index="0.1" opacity="1" transform="translate(76,10) scale(1 1)" clip-path="none"></g><g class="highcharts-series highcharts-series-1 highcharts-column-series" data-z-index="0.1" opacity="1" transform="translate(76,10) scale(1 1)" clip-path="url(#highcharts-ew8q4ig-117-)"><rect x="17.5" y="244.5" width="7" height="36" fill="#e73c68" stroke="#ffffff" stroke-width="1" opacity="1" class="highcharts-point"></rect><rect x="60.5" y="245.5" width="7" height="35" fill="#e73c68" stroke="#ffffff" stroke-width="1" opacity="1" class="highcharts-point"></rect><rect x="103.5" y="258.5" width="7" height="22" fill="#e73c68" stroke="#ffffff" stroke-width="1" opacity="1" class="highcharts-point"></rect><rect x="145.5" y="257.5" width="7" height="23" fill="#e73c68" stroke="#ffffff" stroke-width="1" opacity="1" class="highcharts-point"></rect><rect x="188.5" y="260.5" width="7" height="20" fill="#e73c68" stroke="#ffffff" stroke-width="1" opacity="1" class="highcharts-point"></rect><rect x="231.5" y="244.5" width="7" height="36" fill="#e73c68" stroke="#ffffff" stroke-width="1" opacity="1" class="highcharts-point"></rect><rect x="274.5" y="245.5" width="7" height="35" fill="#e73c68" stroke="#ffffff" stroke-width="1" opacity="1" class="highcharts-point"></rect><rect x="317.5" y="262.5" width="7" height="18" fill="#e73c68" stroke="#ffffff" stroke-width="1" opacity="1" class="highcharts-point"></rect><rect x="360.5" y="241.5" width="7" height="39" fill="#e73c68" stroke="#ffffff" stroke-width="1" opacity="1" class="highcharts-point"></rect><rect x="402.5" y="253.5" width="7" height="27" fill="#e73c68" stroke="#ffffff" stroke-width="1" opacity="1" class="highcharts-point"></rect><rect x="445.5" y="267.5" width="7" height="13" fill="#e73c68" stroke="#ffffff" stroke-width="1" opacity="1" class="highcharts-point"></rect><rect x="488.5" y="266.5" width="7" height="14" fill="#e73c68" stroke="#ffffff" stroke-width="1" opacity="1" class="highcharts-point"></rect></g><g class="highcharts-markers highcharts-series-1 highcharts-column-series" data-z-index="0.1" opacity="1" transform="translate(76,10) scale(1 1)" clip-path="none"></g><g class="highcharts-series highcharts-series-2 highcharts-column-series" data-z-index="0.1" opacity="1" transform="translate(76,10) scale(1 1)" clip-path="url(#highcharts-ew8q4ig-117-)"><rect x="26.5" y="26.5" width="7" height="254" fill="#e67e22" stroke="#ffffff" stroke-width="1" opacity="1" class="highcharts-point"></rect><rect x="68.5" y="98.5" width="7" height="182" fill="#e67e22" stroke="#ffffff" stroke-width="1" opacity="1" class="highcharts-point"></rect><rect x="111.5" y="128.5" width="7" height="152" fill="#e67e22" stroke="#ffffff" stroke-width="1" opacity="1" class="highcharts-point"></rect><rect x="154.5" y="195.5" width="7" height="85" fill="#e67e22" stroke="#ffffff" stroke-width="1" opacity="1" class="highcharts-point"></rect><rect x="197.5" y="227.5" width="7" height="53" fill="#e67e22" stroke="#ffffff" stroke-width="1" opacity="1" class="highcharts-point"></rect><rect x="240.5" y="245.5" width="7" height="35" fill="#e67e22" stroke="#ffffff" stroke-width="1" opacity="1" class="highcharts-point"></rect><rect x="283.5" y="254.5" width="7" height="26" fill="#e67e22" stroke="#ffffff" stroke-width="1" opacity="1" class="highcharts-point"></rect><rect x="325.5" y="256.5" width="7" height="24" fill="#e67e22" stroke="#ffffff" stroke-width="1" opacity="1" class="highcharts-point"></rect><rect x="368.5" y="251.5" width="7" height="29" fill="#e67e22" stroke="#ffffff" stroke-width="1" opacity="1" class="highcharts-point"></rect><rect x="411.5" y="219.5" width="7" height="61" fill="#e67e22" stroke="#ffffff" stroke-width="1" opacity="1" class="highcharts-point"></rect><rect x="454.5" y="95.5" width="7" height="185" fill="#e67e22" stroke="#ffffff" stroke-width="1" opacity="1" class="highcharts-point"></rect><rect x="497.5" y="95.5" width="7" height="185" fill="#e67e22" stroke="#ffffff" stroke-width="1" opacity="1" class="highcharts-point"></rect></g><g class="highcharts-markers highcharts-series-2 highcharts-column-series" data-z-index="0.1" opacity="1" transform="translate(76,10) scale(1 1)" clip-path="none"></g></g><g class="highcharts-exporting-group" data-z-index="3"></g><text x="300" text-anchor="middle" class="highcharts-title" data-z-index="4" style="color:#333333;font-size:18px;fill:#333333;" y="24"></text><text x="300" text-anchor="middle" class="highcharts-subtitle" data-z-index="4" style="color:#666666;fill:#666666;" y="24"></text><text x="10" text-anchor="start" class="highcharts-caption" data-z-index="4" style="color:#666666;fill:#666666;" y="397"></text><g class="highcharts-legend" data-z-index="7" transform="translate(122,359)"><rect fill="none" class="highcharts-legend-box" rx="0" ry="0" x="0" y="0" width="356" height="26" visibility="visible"></rect><g data-z-index="1"><g><g class="highcharts-legend-item highcharts-column-series highcharts-color-undefined highcharts-series-0" data-z-index="1" transform="translate(8,3)"><text x="21" style="color:#333333;cursor:pointer;font-size:12px;font-weight:bold;fill:#333333;" text-anchor="start" data-z-index="2" y="15"><tspan>OPENO11</tspan></text><rect x="2" y="4" width="12" height="12" fill="#34495e" rx="6" ry="6" class="highcharts-point" data-z-index="3"></rect></g><g class="highcharts-legend-item highcharts-column-series highcharts-color-undefined highcharts-series-1" data-z-index="1" transform="translate(97.78125,3)"><text x="21" y="15" style="color:#333333;cursor:pointer;font-size:12px;font-weight:bold;fill:#333333;" text-anchor="start" data-z-index="2"><tspan>CAMPUS SANPAOLO</tspan></text><rect x="2" y="4" width="12" height="12" fill="#e73c68" rx="6" ry="6" class="highcharts-point" data-z-index="3"></rect></g><g class="highcharts-legend-item highcharts-column-series highcharts-color-undefined highcharts-series-2" data-z-index="1" transform="translate(238.90625,3)"><text x="21" y="15" style="color:#333333;cursor:pointer;font-size:12px;font-weight:bold;fill:#333333;" text-anchor="start" data-z-index="2"><tspan>SHARING TORINO</tspan></text><rect x="2" y="4" width="12" height="12" fill="#e67e22" rx="6" ry="6" class="highcharts-point" data-z-index="3"></rect></g></g></g></g><g class="highcharts-axis-labels highcharts-xaxis-labels" data-z-index="7"><text x="100.009391531014" style="color:#666666;cursor:default;font-size:11px;fill:#666666;" text-anchor="end" transform="translate(0,0) rotate(-45 100.009391531014 306)" y="306" opacity="1">Gennaio</text><text x="142.84272486435404" style="color:#666666;cursor:default;font-size:11px;fill:#666666;" text-anchor="end" transform="translate(0,0) rotate(-45 142.84272486435404 306)" y="306" opacity="1">Febbraio</text><text x="185.67605819768403" style="color:#666666;cursor:default;font-size:11px;fill:#666666;" text-anchor="end" transform="translate(0,0) rotate(-45 185.67605819768403 306)" y="306" opacity="1">Marzo</text><text x="228.50939153101402" style="color:#666666;cursor:default;font-size:11px;fill:#666666;" text-anchor="end" transform="translate(0,0) rotate(-45 228.50939153101402 306)" y="306" opacity="1">Aprile</text><text x="271.34272486435395" style="color:#666666;cursor:default;font-size:11px;fill:#666666;" text-anchor="end" transform="translate(0,0) rotate(-45 271.34272486435395 306)" y="306" opacity="1">Maggio</text><text x="314.176058197684" style="color:#666666;cursor:default;font-size:11px;fill:#666666;" text-anchor="end" transform="translate(0,0) rotate(-45 314.176058197684 306)" y="306" opacity="1">Giugno</text><text x="357.009391531014" style="color:#666666;cursor:default;font-size:11px;fill:#666666;" text-anchor="end" transform="translate(0,0) rotate(-45 357.009391531014 306)" y="306" opacity="1">Luglio</text><text x="399.84272486435395" style="color:#666666;cursor:default;font-size:11px;fill:#666666;" text-anchor="end" transform="translate(0,0) rotate(-45 399.84272486435395 306)" y="306" opacity="1">Agosto</text><text x="442.676058197684" style="color:#666666;cursor:default;font-size:11px;fill:#666666;" text-anchor="end" transform="translate(0,0) rotate(-45 442.676058197684 306)" y="306" opacity="1">Settembre</text><text x="485.509391531014" style="color:#666666;cursor:default;font-size:11px;fill:#666666;" text-anchor="end" transform="translate(0,0) rotate(-45 485.509391531014 306)" y="306" opacity="1">Ottobre</text><text x="528.3427248643541" style="color:#666666;cursor:default;font-size:11px;fill:#666666;" text-anchor="end" transform="translate(0,0) rotate(-45 528.3427248643541 306)" y="306" opacity="1">Novembre</text><text x="571.176058197684" style="color:#666666;cursor:default;font-size:11px;fill:#666666;" text-anchor="end" transform="translate(0,0) rotate(-45 571.176058197684 306)" y="306" opacity="1">Dicembre</text></g><g class="highcharts-axis-labels highcharts-yaxis-labels" data-z-index="7"><text x="61" style="color:#666666;cursor:default;font-size:11px;fill:#666666;" text-anchor="end" transform="translate(0,0)" y="294" opacity="1">0</text><text x="61" style="color:#666666;cursor:default;font-size:11px;fill:#666666;" text-anchor="end" transform="translate(0,0)" y="247" opacity="1">2.5k</text><text x="61" style="color:#666666;cursor:default;font-size:11px;fill:#666666;" text-anchor="end" transform="translate(0,0)" y="201" opacity="1">5k</text><text x="61" style="color:#666666;cursor:default;font-size:11px;fill:#666666;" text-anchor="end" transform="translate(0,0)" y="154" opacity="1">7.5k</text><text x="61" style="color:#666666;cursor:default;font-size:11px;fill:#666666;" text-anchor="end" transform="translate(0,0)" y="107" opacity="1">10k</text><text x="61" style="color:#666666;cursor:default;font-size:11px;fill:#666666;" text-anchor="end" transform="translate(0,0)" y="61" opacity="1">12.5k</text><text x="61" style="color:#666666;cursor:default;font-size:11px;fill:#666666;" text-anchor="end" transform="translate(0,0)" y="14" opacity="1">15k</text></g></svg>