<svg xmlns:xlink="http://www.w3.org/1999/xlink" version="1.1" class="highcharts-root" style="font-family:&quot;Lucida Grande&quot;, &quot;Lucida Sans Unicode&quot;, Arial, Helvetica, sans-serif;font-size:12px;" xmlns="http://www.w3.org/2000/svg" width="600" height="400" viewBox="0 0 600 400"><desc>Created with Highcharts 8.2.2</desc><defs><clipPath id="highcharts-ew8q4ig-203-"><rect x="0" y="0" width="522" height="280" fill="none"></rect></clipPath></defs><rect fill="#ffffff" class="highcharts-background" x="0" y="0" width="600" height="400" rx="0" ry="0"></rect><rect fill="none" class="highcharts-plot-background" x="68" y="10" width="522" height="280"></rect><g class="highcharts-grid highcharts-xaxis-grid" data-z-index="1"><path fill="none" data-z-index="1" class="highcharts-grid-line" d="M 111.5 10 L 111.5 290" opacity="1"></path><path fill="none" data-z-index="1" class="highcharts-grid-line" d="M 154.5 10 L 154.5 290" opacity="1"></path><path fill="none" data-z-index="1" class="highcharts-grid-line" d="M 198.5 10 L 198.5 290" opacity="1"></path><path fill="none" data-z-index="1" class="highcharts-grid-line" d="M 241.5 10 L 241.5 290" opacity="1"></path><path fill="none" data-z-index="1" class="highcharts-grid-line" d="M 285.5 10 L 285.5 290" opacity="1"></path><path fill="none" data-z-index="1" class="highcharts-grid-line" d="M 328.5 10 L 328.5 290" opacity="1"></path><path fill="none" data-z-index="1" class="highcharts-grid-line" d="M 372.5 10 L 372.5 290" opacity="1"></path><path fill="none" data-z-index="1" class="highcharts-grid-line" d="M 415.5 10 L 415.5 290" opacity="1"></path><path fill="none" data-z-index="1" class="highcharts-grid-line" d="M 459.5 10 L 459.5 290" opacity="1"></path><path fill="none" data-z-index="1" class="highcharts-grid-line" d="M 502.5 10 L 502.5 290" opacity="1"></path><path fill="none" data-z-index="1" class="highcharts-grid-line" d="M 546.5 10 L 546.5 290" opacity="1"></path><path fill="none" data-z-index="1" class="highcharts-grid-line" d="M 589.5 10 L 589.5 290" opacity="1"></path><path fill="none" data-z-index="1" class="highcharts-grid-line" d="M 67.5 10 L 67.5 290" opacity="1"></path></g><g class="highcharts-grid highcharts-yaxis-grid" data-z-index="1"><path fill="none" stroke="#e6e6e6" stroke-width="1" data-z-index="1" class="highcharts-grid-line" d="M 68 290.5 L 590 290.5" opacity="1"></path><path fill="none" stroke="#e6e6e6" stroke-width="1" data-z-index="1" class="highcharts-grid-line" d="M 68 243.5 L 590 243.5" opacity="1"></path><path fill="none" stroke="#e6e6e6" stroke-width="1" data-z-index="1" class="highcharts-grid-line" d="M 68 197.5 L 590 197.5" opacity="1"></path><path fill="none" stroke="#e6e6e6" stroke-width="1" data-z-index="1" class="highcharts-grid-line" d="M 68 150.5 L 590 150.5" opacity="1"></path><path fill="none" stroke="#e6e6e6" stroke-width="1" data-z-index="1" class="highcharts-grid-line" d="M 68 103.5 L 590 103.5" opacity="1"></path><path fill="none" stroke="#e6e6e6" stroke-width="1" data-z-index="1" class="highcharts-grid-line" d="M 68 57.5 L 590 57.5" opacity="1"></path><path fill="none" stroke="#e6e6e6" stroke-width="1" data-z-index="1" class="highcharts-grid-line" d="M 68 9.5 L 590 9.5" opacity="1"></path></g><rect fill="none" class="highcharts-plot-border" data-z-index="1" x="68" y="10" width="522" height="280"></rect><g class="highcharts-axis highcharts-xaxis" data-z-index="2"><path fill="none" class="highcharts-axis-line" stroke="#ccd6eb" stroke-width="1" data-z-index="7" d="M 68 290.5 L 590 290.5"></path></g><g class="highcharts-axis highcharts-yaxis" data-z-index="2"><text x="25.0625" data-z-index="7" text-anchor="middle" transform="translate(0,0) rotate(270 25.0625 150)" class="highcharts-axis-title" style="color:#666666;fill:#666666;" y="150"><tspan>Totale</tspan></text><path fill="none" class="highcharts-axis-line" data-z-index="7" d="M 68 10 L 68 290"></path></g><text x="118" y="40" data-z-index="2" style="position:absolute;color:#333333;fill:#333333;"></text><g class="highcharts-series-group" data-z-index="3"><g class="highcharts-series highcharts-series-0 highcharts-column-series" data-z-index="0.1" opacity="1" transform="translate(68,10) scale(1 1)" clip-path="url(#highcharts-ew8q4ig-203-)"><rect x="9.5" y="259.5" width="7" height="21" fill="#34495e" stroke="#ffffff" stroke-width="1" opacity="1" class="highcharts-point"></rect><rect x="52.5" y="260.5" width="7" height="20" fill="#34495e" stroke="#ffffff" stroke-width="1" opacity="1" class="highcharts-point"></rect><rect x="96.5" y="261.5" width="7" height="19" fill="#34495e" stroke="#ffffff" stroke-width="1" opacity="1" class="highcharts-point"></rect><rect x="139.5" y="264.5" width="7" height="16" fill="#34495e" stroke="#ffffff" stroke-width="1" opacity="1" class="highcharts-point"></rect><rect x="183.5" y="263.5" width="7" height="17" fill="#34495e" stroke="#ffffff" stroke-width="1" opacity="1" class="highcharts-point"></rect><rect x="226.5" y="250.5" width="7" height="30" fill="#34495e" stroke="#ffffff" stroke-width="1" opacity="1" class="highcharts-point"></rect><rect x="270.5" y="236.5" width="7" height="44" fill="#34495e" stroke="#ffffff" stroke-width="1" opacity="1" class="highcharts-point"></rect><rect x="313.5" y="241.5" width="7" height="39" fill="#34495e" stroke="#ffffff" stroke-width="1" opacity="1" class="highcharts-point"></rect><rect x="357.5" y="258.5" width="7" height="22" fill="#34495e" stroke="#ffffff" stroke-width="1" opacity="1" class="highcharts-point"></rect><rect x="400.5" y="259.5" width="7" height="21" fill="#34495e" stroke="#ffffff" stroke-width="1" opacity="1" class="highcharts-point"></rect><rect x="444.5" y="251.5" width="7" height="29" fill="#34495e" stroke="#ffffff" stroke-width="1" opacity="1" class="highcharts-point"></rect><rect x="487.5" y="263.5" width="7" height="17" fill="#34495e" stroke="#ffffff" stroke-width="1" opacity="1" class="highcharts-point"></rect></g><g class="highcharts-markers highcharts-series-0 highcharts-column-series" data-z-index="0.1" opacity="1" transform="translate(68,10) scale(1 1)" clip-path="none"></g><g class="highcharts-series highcharts-series-1 highcharts-column-series" data-z-index="0.1" opacity="1" transform="translate(68,10) scale(1 1)" clip-path="url(#highcharts-ew8q4ig-203-)"><rect x="17.5" y="101.5" width="7" height="179" fill="#e73c68" stroke="#ffffff" stroke-width="1" opacity="1" class="highcharts-point"></rect><rect x="61.5" y="114.5" width="7" height="166" fill="#e73c68" stroke="#ffffff" stroke-width="1" opacity="1" class="highcharts-point"></rect><rect x="104.5" y="128.5" width="7" height="152" fill="#e73c68" stroke="#ffffff" stroke-width="1" opacity="1" class="highcharts-point"></rect><rect x="148.5" y="146.5" width="7" height="134" fill="#e73c68" stroke="#ffffff" stroke-width="1" opacity="1" class="highcharts-point"></rect><rect x="191.5" y="169.5" width="7" height="111" fill="#e73c68" stroke="#ffffff" stroke-width="1" opacity="1" class="highcharts-point"></rect><rect x="235.5" y="137.5" width="7" height="143" fill="#e73c68" stroke="#ffffff" stroke-width="1" opacity="1" class="highcharts-point"></rect><rect x="278.5" y="100.5" width="7" height="180" fill="#e73c68" stroke="#ffffff" stroke-width="1" opacity="1" class="highcharts-point"></rect><rect x="322.5" y="144.5" width="7" height="136" fill="#e73c68" stroke="#ffffff" stroke-width="1" opacity="1" class="highcharts-point"></rect><rect x="365.5" y="156.5" width="7" height="124" fill="#e73c68" stroke="#ffffff" stroke-width="1" opacity="1" class="highcharts-point"></rect><rect x="409.5" y="139.5" width="7" height="141" fill="#e73c68" stroke="#ffffff" stroke-width="1" opacity="1" class="highcharts-point"></rect><rect x="452.5" y="121.5" width="7" height="159" fill="#e73c68" stroke="#ffffff" stroke-width="1" opacity="1" class="highcharts-point"></rect><rect x="496.5" y="34.5" width="7" height="246" fill="#e73c68" stroke="#ffffff" stroke-width="1" opacity="1" class="highcharts-point"></rect></g><g class="highcharts-markers highcharts-series-1 highcharts-column-series" data-z-index="0.1" opacity="1" transform="translate(68,10) scale(1 1)" clip-path="none"></g><g class="highcharts-series highcharts-series-2 highcharts-column-series" data-z-index="0.1" opacity="1" transform="translate(68,10) scale(1 1)" clip-path="url(#highcharts-ew8q4ig-203-)"><rect x="26.5" y="213.5" width="7" height="67" fill="#e67e22" stroke="#ffffff" stroke-width="1" opacity="1" class="highcharts-point"></rect><rect x="69.5" y="213.5" width="7" height="67" fill="#e67e22" stroke="#ffffff" stroke-width="1" opacity="1" class="highcharts-point"></rect><rect x="113.5" y="220.5" width="7" height="60" fill="#e67e22" stroke="#ffffff" stroke-width="1" opacity="1" class="highcharts-point"></rect><rect x="156.5" y="217.5" width="7" height="63" fill="#e67e22" stroke="#ffffff" stroke-width="1" opacity="1" class="highcharts-point"></rect><rect x="200.5" y="218.5" width="7" height="62" fill="#e67e22" stroke="#ffffff" stroke-width="1" opacity="1" class="highcharts-point"></rect><rect x="243.5" y="208.5" width="7" height="72" fill="#e67e22" stroke="#ffffff" stroke-width="1" opacity="1" class="highcharts-point"></rect><rect x="287.5" y="187.5" width="7" height="93" fill="#e67e22" stroke="#ffffff" stroke-width="1" opacity="1" class="highcharts-point"></rect><rect x="330.5" y="194.5" width="7" height="86" fill="#e67e22" stroke="#ffffff" stroke-width="1" opacity="1" class="highcharts-point"></rect><rect x="374.5" y="209.5" width="7" height="71" fill="#e67e22" stroke="#ffffff" stroke-width="1" opacity="1" class="highcharts-point"></rect><rect x="417.5" y="215.5" width="7" height="65" fill="#e67e22" stroke="#ffffff" stroke-width="1" opacity="1" class="highcharts-point"></rect><rect x="461.5" y="209.5" width="7" height="71" fill="#e67e22" stroke="#ffffff" stroke-width="1" opacity="1" class="highcharts-point"></rect><rect x="504.5" y="217.5" width="7" height="63" fill="#e67e22" stroke="#ffffff" stroke-width="1" opacity="1" class="highcharts-point"></rect></g><g class="highcharts-markers highcharts-series-2 highcharts-column-series" data-z-index="0.1" opacity="1" transform="translate(68,10) scale(1 1)" clip-path="none"></g></g><g class="highcharts-exporting-group" data-z-index="3"></g><text x="300" text-anchor="middle" class="highcharts-title" data-z-index="4" style="color:#333333;font-size:18px;fill:#333333;" y="24"></text><text x="300" text-anchor="middle" class="highcharts-subtitle" data-z-index="4" style="color:#666666;fill:#666666;" y="24"></text><text x="10" text-anchor="start" class="highcharts-caption" data-z-index="4" style="color:#666666;fill:#666666;" y="397"></text><g class="highcharts-legend" data-z-index="7" transform="translate(122,359)"><rect fill="none" class="highcharts-legend-box" rx="0" ry="0" x="0" y="0" width="356" height="26" visibility="visible"></rect><g data-z-index="1"><g><g class="highcharts-legend-item highcharts-column-series highcharts-color-undefined highcharts-series-0" data-z-index="1" transform="translate(8,3)"><text x="21" style="color:#333333;cursor:pointer;font-size:12px;font-weight:bold;fill:#333333;" text-anchor="start" data-z-index="2" y="15"><tspan>OPENO11</tspan></text><rect x="2" y="4" width="12" height="12" fill="#34495e" rx="6" ry="6" class="highcharts-point" data-z-index="3"></rect></g><g class="highcharts-legend-item highcharts-column-series highcharts-color-undefined highcharts-series-1" data-z-index="1" transform="translate(97.78125,3)"><text x="21" y="15" style="color:#333333;cursor:pointer;font-size:12px;font-weight:bold;fill:#333333;" text-anchor="start" data-z-index="2"><tspan>CAMPUS SANPAOLO</tspan></text><rect x="2" y="4" width="12" height="12" fill="#e73c68" rx="6" ry="6" class="highcharts-point" data-z-index="3"></rect></g><g class="highcharts-legend-item highcharts-column-series highcharts-color-undefined highcharts-series-2" data-z-index="1" transform="translate(238.90625,3)"><text x="21" y="15" style="color:#333333;cursor:pointer;font-size:12px;font-weight:bold;fill:#333333;" text-anchor="start" data-z-index="2"><tspan>SHARING TORINO</tspan></text><rect x="2" y="4" width="12" height="12" fill="#e67e22" rx="6" ry="6" class="highcharts-point" data-z-index="3"></rect></g></g></g></g><g class="highcharts-axis-labels highcharts-xaxis-labels" data-z-index="7"><text x="92.34272486435067" style="color:#666666;cursor:default;font-size:11px;fill:#666666;" text-anchor="end" transform="translate(0,0) rotate(-45 92.34272486435067 306)" y="306" opacity="1">Gennaio</text><text x="135.84272486435069" style="color:#666666;cursor:default;font-size:11px;fill:#666666;" text-anchor="end" transform="translate(0,0) rotate(-45 135.84272486435069 306)" y="306" opacity="1">Febbraio</text><text x="179.34272486435069" style="color:#666666;cursor:default;font-size:11px;fill:#666666;" text-anchor="end" transform="translate(0,0) rotate(-45 179.34272486435069 306)" y="306" opacity="1">Marzo</text><text x="222.84272486435069" style="color:#666666;cursor:default;font-size:11px;fill:#666666;" text-anchor="end" transform="translate(0,0) rotate(-45 222.84272486435069 306)" y="306" opacity="1">Aprile</text><text x="266.34272486435066" style="color:#666666;cursor:default;font-size:11px;fill:#666666;" text-anchor="end" transform="translate(0,0) rotate(-45 266.34272486435066 306)" y="306" opacity="1">Maggio</text><text x="309.84272486435066" style="color:#666666;cursor:default;font-size:11px;fill:#666666;" text-anchor="end" transform="translate(0,0) rotate(-45 309.84272486435066 306)" y="306" opacity="1">Giugno</text><text x="353.34272486435066" style="color:#666666;cursor:default;font-size:11px;fill:#666666;" text-anchor="end" transform="translate(0,0) rotate(-45 353.34272486435066 306)" y="306" opacity="1">Luglio</text><text x="396.84272486435066" style="color:#666666;cursor:default;font-size:11px;fill:#666666;" text-anchor="end" transform="translate(0,0) rotate(-45 396.84272486435066 306)" y="306" opacity="1">Agosto</text><text x="440.34272486435066" style="color:#666666;cursor:default;font-size:11px;fill:#666666;" text-anchor="end" transform="translate(0,0) rotate(-45 440.34272486435066 306)" y="306" opacity="1">Settembre</text><text x="483.84272486435066" style="color:#666666;cursor:default;font-size:11px;fill:#666666;" text-anchor="end" transform="translate(0,0) rotate(-45 483.84272486435066 306)" y="306" opacity="1">Ottobre</text><text x="527.3427248643507" style="color:#666666;cursor:default;font-size:11px;fill:#666666;" text-anchor="end" transform="translate(0,0) rotate(-45 527.3427248643507 306)" y="306" opacity="1">Novembre</text><text x="570.8427248643507" style="color:#666666;cursor:default;font-size:11px;fill:#666666;" text-anchor="end" transform="translate(0,0) rotate(-45 570.8427248643507 306)" y="306" opacity="1">Dicembre</text></g><g class="highcharts-axis-labels highcharts-yaxis-labels" data-z-index="7"><text x="53" style="color:#666666;cursor:default;font-size:11px;fill:#666666;" text-anchor="end" transform="translate(0,0)" y="294" opacity="1">0</text><text x="53" style="color:#666666;cursor:default;font-size:11px;fill:#666666;" text-anchor="end" transform="translate(0,0)" y="247" opacity="1">5k</text><text x="53" style="color:#666666;cursor:default;font-size:11px;fill:#666666;" text-anchor="end" transform="translate(0,0)" y="201" opacity="1">10k</text><text x="53" style="color:#666666;cursor:default;font-size:11px;fill:#666666;" text-anchor="end" transform="translate(0,0)" y="154" opacity="1">15k</text><text x="53" style="color:#666666;cursor:default;font-size:11px;fill:#666666;" text-anchor="end" transform="translate(0,0)" y="107" opacity="1">20k</text><text x="53" style="color:#666666;cursor:default;font-size:11px;fill:#666666;" text-anchor="end" transform="translate(0,0)" y="61" opacity="1">25k</text><text x="53" style="color:#666666;cursor:default;font-size:11px;fill:#666666;" text-anchor="end" transform="translate(0,0)" y="14" opacity="1">30k</text></g></svg>