<svg xmlns:xlink="http://www.w3.org/1999/xlink" version="1.1" class="highcharts-root" style="font-family:&quot;Lucida Grande&quot;, &quot;Lucida Sans Unicode&quot;, Arial, Helvetica, sans-serif;font-size:12px;" xmlns="http://www.w3.org/2000/svg" width="600" height="400" viewBox="0 0 600 400"><desc>Created with Highcharts 7.0.1</desc><defs><clipPath id="highcharts-0g63jhn-331"><rect x="0" y="0" width="522" height="250" fill="none"></rect></clipPath></defs><rect fill="#ffffff" class="highcharts-background" x="0" y="0" width="600" height="400" rx="0" ry="0"></rect><rect fill="none" class="highcharts-plot-background" x="68" y="10" width="522" height="250"></rect><g class="highcharts-grid highcharts-xaxis-grid " data-z-index="1"><path fill="none" data-z-index="1" class="highcharts-grid-line" d="M 111.5 10 L 111.5 260" opacity="1"></path><path fill="none" data-z-index="1" class="highcharts-grid-line" d="M 154.5 10 L 154.5 260" opacity="1"></path><path fill="none" data-z-index="1" class="highcharts-grid-line" d="M 198.5 10 L 198.5 260" opacity="1"></path><path fill="none" data-z-index="1" class="highcharts-grid-line" d="M 241.5 10 L 241.5 260" opacity="1"></path><path fill="none" data-z-index="1" class="highcharts-grid-line" d="M 285.5 10 L 285.5 260" opacity="1"></path><path fill="none" data-z-index="1" class="highcharts-grid-line" d="M 328.5 10 L 328.5 260" opacity="1"></path><path fill="none" data-z-index="1" class="highcharts-grid-line" d="M 372.5 10 L 372.5 260" opacity="1"></path><path fill="none" data-z-index="1" class="highcharts-grid-line" d="M 415.5 10 L 415.5 260" opacity="1"></path><path fill="none" data-z-index="1" class="highcharts-grid-line" d="M 459.5 10 L 459.5 260" opacity="1"></path><path fill="none" data-z-index="1" class="highcharts-grid-line" d="M 502.5 10 L 502.5 260" opacity="1"></path><path fill="none" data-z-index="1" class="highcharts-grid-line" d="M 546.5 10 L 546.5 260" opacity="1"></path><path fill="none" data-z-index="1" class="highcharts-grid-line" d="M 589.5 10 L 589.5 260" opacity="1"></path><path fill="none" data-z-index="1" class="highcharts-grid-line" d="M 67.5 10 L 67.5 260" opacity="1"></path></g><g class="highcharts-grid highcharts-yaxis-grid " data-z-index="1"><path fill="none" stroke="#e6e6e6" stroke-width="1" data-z-index="1" class="highcharts-grid-line" d="M 68 260.5 L 590 260.5" opacity="1"></path><path fill="none" stroke="#e6e6e6" stroke-width="1" data-z-index="1" class="highcharts-grid-line" d="M 68 198.5 L 590 198.5" opacity="1"></path><path fill="none" stroke="#e6e6e6" stroke-width="1" data-z-index="1" class="highcharts-grid-line" d="M 68 135.5 L 590 135.5" opacity="1"></path><path fill="none" stroke="#e6e6e6" stroke-width="1" data-z-index="1" class="highcharts-grid-line" d="M 68 73.5 L 590 73.5" opacity="1"></path><path fill="none" stroke="#e6e6e6" stroke-width="1" data-z-index="1" class="highcharts-grid-line" d="M 68 9.5 L 590 9.5" opacity="1"></path></g><rect fill="none" class="highcharts-plot-border" data-z-index="1" x="68" y="10" width="522" height="250"></rect><g class="highcharts-axis highcharts-xaxis " data-z-index="2"><path fill="none" class="highcharts-tick" stroke="#ccd6eb" stroke-width="1" d="M 111.5 260 L 111.5 270" opacity="1"></path><path fill="none" class="highcharts-tick" stroke="#ccd6eb" stroke-width="1" d="M 154.5 260 L 154.5 270" opacity="1"></path><path fill="none" class="highcharts-tick" stroke="#ccd6eb" stroke-width="1" d="M 198.5 260 L 198.5 270" opacity="1"></path><path fill="none" class="highcharts-tick" stroke="#ccd6eb" stroke-width="1" d="M 241.5 260 L 241.5 270" opacity="1"></path><path fill="none" class="highcharts-tick" stroke="#ccd6eb" stroke-width="1" d="M 285.5 260 L 285.5 270" opacity="1"></path><path fill="none" class="highcharts-tick" stroke="#ccd6eb" stroke-width="1" d="M 328.5 260 L 328.5 270" opacity="1"></path><path fill="none" class="highcharts-tick" stroke="#ccd6eb" stroke-width="1" d="M 372.5 260 L 372.5 270" opacity="1"></path><path fill="none" class="highcharts-tick" stroke="#ccd6eb" stroke-width="1" d="M 415.5 260 L 415.5 270" opacity="1"></path><path fill="none" class="highcharts-tick" stroke="#ccd6eb" stroke-width="1" d="M 459.5 260 L 459.5 270" opacity="1"></path><path fill="none" class="highcharts-tick" stroke="#ccd6eb" stroke-width="1" d="M 502.5 260 L 502.5 270" opacity="1"></path><path fill="none" class="highcharts-tick" stroke="#ccd6eb" stroke-width="1" d="M 546.5 260 L 546.5 270" opacity="1"></path><path fill="none" class="highcharts-tick" stroke="#ccd6eb" stroke-width="1" d="M 590.5 260 L 590.5 270" opacity="1"></path><path fill="none" class="highcharts-tick" stroke="#ccd6eb" stroke-width="1" d="M 67.5 260 L 67.5 270" opacity="1"></path><path fill="none" class="highcharts-axis-line" stroke="#ccd6eb" stroke-width="1" data-z-index="7" d="M 68 260.5 L 590 260.5"></path></g><g class="highcharts-axis highcharts-yaxis " data-z-index="2"><text x="25.078125" data-z-index="7" text-anchor="middle" transform="translate(0,0) rotate(270 25.078125 135)" class="highcharts-axis-title" style="color:#666666;fill:#666666;" y="135"><tspan>Totale</tspan></text><path fill="none" class="highcharts-axis-line" data-z-index="7" d="M 68 10 L 68 260"></path></g><text x="118" y="40" data-z-index="2" style="position:absolute;color:#333333;fill:#333333;"></text><g class="highcharts-series-group" data-z-index="3"><g data-z-index="0.1" class="highcharts-series highcharts-series-0 highcharts-column-series " transform="translate(68,10) scale(1 1)" clip-path="url(#highcharts-0g63jhn-331)"><rect x="8.5" y="249.5" width="4" height="1" fill="#34495e" stroke="#ffffff" stroke-width="1" class="highcharts-point"></rect><rect x="52.5" y="247.5" width="4" height="3" fill="#34495e" stroke="#ffffff" stroke-width="1" class="highcharts-point"></rect><rect x="95.5" y="247.5" width="4" height="3" fill="#34495e" stroke="#ffffff" stroke-width="1" class="highcharts-point"></rect><rect x="139.5" y="247.5" width="4" height="3" fill="#34495e" stroke="#ffffff" stroke-width="1" class="highcharts-point"></rect><rect x="182.5" y="247.5" width="4" height="3" fill="#34495e" stroke="#ffffff" stroke-width="1" class="highcharts-point"></rect><rect x="226.5" y="247.5" width="4" height="3" fill="#34495e" stroke="#ffffff" stroke-width="1" class="highcharts-point"></rect><rect x="269.5" y="247.5" width="4" height="3" fill="#34495e" stroke="#ffffff" stroke-width="1" class="highcharts-point"></rect><rect x="313.5" y="247.5" width="4" height="3" fill="#34495e" stroke="#ffffff" stroke-width="1" class="highcharts-point"></rect><rect x="356.5" y="247.5" width="4" height="3" fill="#34495e" stroke="#ffffff" stroke-width="1" class="highcharts-point"></rect><rect x="400.5" y="250.5" width="4" height="0" fill="#34495e" stroke="#ffffff" stroke-width="1" class="highcharts-point"></rect><rect x="443.5" y="250.5" width="4" height="0" fill="#34495e" stroke="#ffffff" stroke-width="1" class="highcharts-point"></rect><rect x="487.5" y="250.5" width="4" height="0" fill="#34495e" stroke="#ffffff" stroke-width="1" class="highcharts-point"></rect></g><g data-z-index="0.1" class="highcharts-markers highcharts-series-0 highcharts-column-series " transform="translate(68,10) scale(1 1)" clip-path="none"></g><g data-z-index="0.1" class="highcharts-series highcharts-series-1 highcharts-column-series " transform="translate(68,10) scale(1 1)" clip-path="url(#highcharts-0g63jhn-331)"><rect x="12.5" y="212.5" width="4" height="38" fill="#e73c68" stroke="#ffffff" stroke-width="1" class="highcharts-point"></rect><rect x="56.5" y="216.5" width="4" height="34" fill="#e73c68" stroke="#ffffff" stroke-width="1" class="highcharts-point"></rect><rect x="99.5" y="212.5" width="4" height="38" fill="#e73c68" stroke="#ffffff" stroke-width="1" class="highcharts-point"></rect><rect x="143.5" y="214.5" width="4" height="36" fill="#e73c68" stroke="#ffffff" stroke-width="1" class="highcharts-point"></rect><rect x="186.5" y="212.5" width="4" height="38" fill="#e73c68" stroke="#ffffff" stroke-width="1" class="highcharts-point"></rect><rect x="230.5" y="214.5" width="4" height="36" fill="#e73c68" stroke="#ffffff" stroke-width="1" class="highcharts-point"></rect><rect x="273.5" y="232.5" width="4" height="18" fill="#e73c68" stroke="#ffffff" stroke-width="1" class="highcharts-point"></rect><rect x="317.5" y="232.5" width="4" height="18" fill="#e73c68" stroke="#ffffff" stroke-width="1" class="highcharts-point"></rect><rect x="360.5" y="233.5" width="4" height="17" fill="#e73c68" stroke="#ffffff" stroke-width="1" class="highcharts-point"></rect><rect x="404.5" y="250.5" width="4" height="0" fill="#e73c68" stroke="#ffffff" stroke-width="1" class="highcharts-point"></rect><rect x="447.5" y="250.5" width="4" height="0" fill="#e73c68" stroke="#ffffff" stroke-width="1" class="highcharts-point"></rect><rect x="491.5" y="250.5" width="4" height="0" fill="#e73c68" stroke="#ffffff" stroke-width="1" class="highcharts-point"></rect></g><g data-z-index="0.1" class="highcharts-markers highcharts-series-1 highcharts-column-series " transform="translate(68,10) scale(1 1)" clip-path="none"></g><g data-z-index="0.1" class="highcharts-series highcharts-series-2 highcharts-column-series " transform="translate(68,10) scale(1 1)" clip-path="url(#highcharts-0g63jhn-331)"><rect x="17.5" y="228.5" width="4" height="22" fill="#2ecc71" stroke="#ffffff" stroke-width="1" class="highcharts-point"></rect><rect x="60.5" y="28.5" width="4" height="222" fill="#2ecc71" stroke="#ffffff" stroke-width="1" class="highcharts-point"></rect><rect x="104.5" y="230.5" width="4" height="20" fill="#2ecc71" stroke="#ffffff" stroke-width="1" class="highcharts-point"></rect><rect x="147.5" y="228.5" width="4" height="22" fill="#2ecc71" stroke="#ffffff" stroke-width="1" class="highcharts-point"></rect><rect x="191.5" y="219.5" width="4" height="31" fill="#2ecc71" stroke="#ffffff" stroke-width="1" class="highcharts-point"></rect><rect x="234.5" y="181.5" width="4" height="69" fill="#2ecc71" stroke="#ffffff" stroke-width="1" class="highcharts-point"></rect><rect x="278.5" y="183.5" width="4" height="67" fill="#2ecc71" stroke="#ffffff" stroke-width="1" class="highcharts-point"></rect><rect x="321.5" y="181.5" width="4" height="69" fill="#2ecc71" stroke="#ffffff" stroke-width="1" class="highcharts-point"></rect><rect x="365.5" y="181.5" width="4" height="69" fill="#2ecc71" stroke="#ffffff" stroke-width="1" class="highcharts-point"></rect><rect x="408.5" y="213.5" width="4" height="37" fill="#2ecc71" stroke="#ffffff" stroke-width="1" class="highcharts-point"></rect><rect x="452.5" y="250.5" width="4" height="0" fill="#2ecc71" stroke="#ffffff" stroke-width="1" class="highcharts-point"></rect><rect x="495.5" y="250.5" width="4" height="0" fill="#2ecc71" stroke="#ffffff" stroke-width="1" class="highcharts-point"></rect></g><g data-z-index="0.1" class="highcharts-markers highcharts-series-2 highcharts-column-series " transform="translate(68,10) scale(1 1)" clip-path="none"></g><g data-z-index="0.1" class="highcharts-series highcharts-series-3 highcharts-column-series " transform="translate(68,10) scale(1 1)" clip-path="url(#highcharts-0g63jhn-331)"><rect x="21.5" y="228.5" width="4" height="22" fill="#e67e22" stroke="#ffffff" stroke-width="1" class="highcharts-point"></rect><rect x="65.5" y="230.5" width="4" height="20" fill="#e67e22" stroke="#ffffff" stroke-width="1" class="highcharts-point"></rect><rect x="108.5" y="228.5" width="4" height="22" fill="#e67e22" stroke="#ffffff" stroke-width="1" class="highcharts-point"></rect><rect x="152.5" y="218.5" width="4" height="32" fill="#e67e22" stroke="#ffffff" stroke-width="1" class="highcharts-point"></rect><rect x="195.5" y="217.5" width="4" height="33" fill="#e67e22" stroke="#ffffff" stroke-width="1" class="highcharts-point"></rect><rect x="239.5" y="218.5" width="4" height="32" fill="#e67e22" stroke="#ffffff" stroke-width="1" class="highcharts-point"></rect><rect x="282.5" y="217.5" width="4" height="33" fill="#e67e22" stroke="#ffffff" stroke-width="1" class="highcharts-point"></rect><rect x="326.5" y="217.5" width="4" height="33" fill="#e67e22" stroke="#ffffff" stroke-width="1" class="highcharts-point"></rect><rect x="369.5" y="218.5" width="4" height="32" fill="#e67e22" stroke="#ffffff" stroke-width="1" class="highcharts-point"></rect><rect x="413.5" y="250.5" width="4" height="0" fill="#e67e22" stroke="#ffffff" stroke-width="1" class="highcharts-point"></rect><rect x="456.5" y="250.5" width="4" height="0" fill="#e67e22" stroke="#ffffff" stroke-width="1" class="highcharts-point"></rect><rect x="500.5" y="250.5" width="4" height="0" fill="#e67e22" stroke="#ffffff" stroke-width="1" class="highcharts-point"></rect></g><g data-z-index="0.1" class="highcharts-markers highcharts-series-3 highcharts-column-series " transform="translate(68,10) scale(1 1)" clip-path="none"></g><g data-z-index="0.1" class="highcharts-series highcharts-series-4 highcharts-column-series " transform="translate(68,10) scale(1 1)" clip-path="url(#highcharts-0g63jhn-331)"><rect x="26.5" y="248.5" width="4" height="2" fill="#e74c3c" stroke="#ffffff" stroke-width="1" class="highcharts-point"></rect><rect x="69.5" y="245.5" width="4" height="5" fill="#e74c3c" stroke="#ffffff" stroke-width="1" class="highcharts-point"></rect><rect x="113.5" y="247.5" width="4" height="3" fill="#e74c3c" stroke="#ffffff" stroke-width="1" class="highcharts-point"></rect><rect x="156.5" y="246.5" width="4" height="4" fill="#e74c3c" stroke="#ffffff" stroke-width="1" class="highcharts-point"></rect><rect x="200.5" y="234.5" width="4" height="16" fill="#e74c3c" stroke="#ffffff" stroke-width="1" class="highcharts-point"></rect><rect x="243.5" y="143.5" width="4" height="107" fill="#e74c3c" stroke="#ffffff" stroke-width="1" class="highcharts-point"></rect><rect x="287.5" y="132.5" width="4" height="118" fill="#e74c3c" stroke="#ffffff" stroke-width="1" class="highcharts-point"></rect><rect x="330.5" y="247.5" width="4" height="3" fill="#e74c3c" stroke="#ffffff" stroke-width="1" class="highcharts-point"></rect><rect x="374.5" y="240.5" width="4" height="10" fill="#e74c3c" stroke="#ffffff" stroke-width="1" class="highcharts-point"></rect><rect x="417.5" y="250.5" width="4" height="0" fill="#e74c3c" stroke="#ffffff" stroke-width="1" class="highcharts-point"></rect><rect x="461.5" y="250.5" width="4" height="0" fill="#e74c3c" stroke="#ffffff" stroke-width="1" class="highcharts-point"></rect><rect x="504.5" y="250.5" width="4" height="0" fill="#e74c3c" stroke="#ffffff" stroke-width="1" class="highcharts-point"></rect></g><g data-z-index="0.1" class="highcharts-markers highcharts-series-4 highcharts-column-series " transform="translate(68,10) scale(1 1)" clip-path="none"></g><g data-z-index="0.1" class="highcharts-series highcharts-series-5 highcharts-column-series " transform="translate(68,10) scale(1 1)" clip-path="url(#highcharts-0g63jhn-331)"><rect x="30.5" y="221.5" width="4" height="29" fill="#3498db" stroke="#ffffff" stroke-width="1" class="highcharts-point"></rect><rect x="73.5" y="224.5" width="4" height="26" fill="#3498db" stroke="#ffffff" stroke-width="1" class="highcharts-point"></rect><rect x="117.5" y="222.5" width="4" height="28" fill="#3498db" stroke="#ffffff" stroke-width="1" class="highcharts-point"></rect><rect x="160.5" y="221.5" width="4" height="29" fill="#3498db" stroke="#ffffff" stroke-width="1" class="highcharts-point"></rect><rect x="204.5" y="222.5" width="4" height="28" fill="#3498db" stroke="#ffffff" stroke-width="1" class="highcharts-point"></rect><rect x="247.5" y="219.5" width="4" height="31" fill="#3498db" stroke="#ffffff" stroke-width="1" class="highcharts-point"></rect><rect x="291.5" y="242.5" width="4" height="8" fill="#3498db" stroke="#ffffff" stroke-width="1" class="highcharts-point"></rect><rect x="334.5" y="242.5" width="4" height="8" fill="#3498db" stroke="#ffffff" stroke-width="1" class="highcharts-point"></rect><rect x="378.5" y="241.5" width="4" height="9" fill="#3498db" stroke="#ffffff" stroke-width="1" class="highcharts-point"></rect><rect x="421.5" y="250.5" width="4" height="0" fill="#3498db" stroke="#ffffff" stroke-width="1" class="highcharts-point"></rect><rect x="465.5" y="250.5" width="4" height="0" fill="#3498db" stroke="#ffffff" stroke-width="1" class="highcharts-point"></rect><rect x="508.5" y="250.5" width="4" height="0" fill="#3498db" stroke="#ffffff" stroke-width="1" class="highcharts-point"></rect></g><g data-z-index="0.1" class="highcharts-markers highcharts-series-5 highcharts-column-series " transform="translate(68,10) scale(1 1)" clip-path="none"></g></g><g class="highcharts-exporting-group" data-z-index="3"></g><text x="300" text-anchor="middle" class="highcharts-title" data-z-index="4" style="color:#333333;font-size:18px;fill:#333333;" y="24"></text><text x="300" text-anchor="middle" class="highcharts-subtitle" data-z-index="4" style="color:#666666;fill:#666666;" y="24"></text><g class="highcharts-legend" data-z-index="7" transform="translate(71,329)"><rect fill="none" class="highcharts-legend-box" rx="0" ry="0" x="0" y="0" width="458" height="56" visibility="visible"></rect><g data-z-index="1"><g><g class="highcharts-legend-item highcharts-column-series highcharts-color-undefined highcharts-series-0" data-z-index="1" transform="translate(8,3)"><text x="21" style="color:#333333;cursor:pointer;font-size:12px;font-weight:bold;fill:#333333;" text-anchor="start" data-z-index="2" y="15"><tspan>OPENO11</tspan></text><rect x="2" y="4" width="12" height="12" fill="#34495e" rx="6" ry="6" class="highcharts-point" data-z-index="3"></rect></g><g class="highcharts-legend-item highcharts-column-series highcharts-color-undefined highcharts-series-1" data-z-index="1" transform="translate(239.453125,3)"><text x="21" y="15" style="color:#333333;cursor:pointer;font-size:12px;font-weight:bold;fill:#333333;" text-anchor="start" data-z-index="2"><tspan>CAMPUS SANPAOLO</tspan></text><rect x="2" y="4" width="12" height="12" fill="#e73c68" rx="6" ry="6" class="highcharts-point" data-z-index="3"></rect></g><g class="highcharts-legend-item highcharts-column-series highcharts-color-undefined highcharts-series-2" data-z-index="1" transform="translate(8,18)"><text x="21" y="15" style="color:#333333;cursor:pointer;font-size:12px;font-weight:bold;fill:#333333;" text-anchor="start" data-z-index="2"><tspan>VILLAGGIO OLIMPICO BARDONECCHIA</tspan></text><rect x="2" y="4" width="12" height="12" fill="#2ecc71" rx="6" ry="6" class="highcharts-point" data-z-index="3"></rect></g><g class="highcharts-legend-item highcharts-column-series highcharts-color-undefined highcharts-series-3" data-z-index="1" transform="translate(239.453125,18)"><text x="21" y="15" style="color:#333333;cursor:pointer;font-size:12px;font-weight:bold;fill:#333333;" text-anchor="start" data-z-index="2"><tspan>SHARING TORINO</tspan></text><rect x="2" y="4" width="12" height="12" fill="#e67e22" rx="6" ry="6" class="highcharts-point" data-z-index="3"></rect></g><g class="highcharts-legend-item highcharts-column-series highcharts-color-undefined highcharts-series-4" data-z-index="1" transform="translate(8,33)"><text x="21" y="15" style="color:#333333;cursor:pointer;font-size:12px;font-weight:bold;fill:#333333;" text-anchor="start" data-z-index="2"><tspan>CESENATICO</tspan></text><rect x="2" y="4" width="12" height="12" fill="#e74c3c" rx="6" ry="6" class="highcharts-point" data-z-index="3"></rect></g><g class="highcharts-legend-item highcharts-column-series highcharts-color-undefined highcharts-series-5" data-z-index="1" transform="translate(239.453125,33)"><text x="21" y="15" style="color:#333333;cursor:pointer;font-size:12px;font-weight:bold;fill:#333333;" text-anchor="start" data-z-index="2"><tspan>SAN PELLEGRINO MISANO ADRIATICO</tspan></text><rect x="2" y="4" width="12" height="12" fill="#3498db" rx="6" ry="6" class="highcharts-point" data-z-index="3"></rect></g></g></g></g><g class="highcharts-axis-labels highcharts-xaxis-labels " data-z-index="7"><text x="92.34272486435067" style="color:#666666;cursor:default;font-size:11px;fill:#666666;" text-anchor="end" transform="translate(0,0) rotate(-45 92.34272486435067 276)" y="276" opacity="1">Gennaio</text><text x="135.84272486435069" style="color:#666666;cursor:default;font-size:11px;fill:#666666;" text-anchor="end" transform="translate(0,0) rotate(-45 135.84272486435069 276)" y="276" opacity="1">Febbraio</text><text x="179.34272486435069" style="color:#666666;cursor:default;font-size:11px;fill:#666666;" text-anchor="end" transform="translate(0,0) rotate(-45 179.34272486435069 276)" y="276" opacity="1">Marzo</text><text x="222.84272486435069" style="color:#666666;cursor:default;font-size:11px;fill:#666666;" text-anchor="end" transform="translate(0,0) rotate(-45 222.84272486435069 276)" y="276" opacity="1">Aprile</text><text x="266.34272486435066" style="color:#666666;cursor:default;font-size:11px;fill:#666666;" text-anchor="end" transform="translate(0,0) rotate(-45 266.34272486435066 276)" y="276" opacity="1">Maggio</text><text x="309.84272486435066" style="color:#666666;cursor:default;font-size:11px;fill:#666666;" text-anchor="end" transform="translate(0,0) rotate(-45 309.84272486435066 276)" y="276" opacity="1">Giugno</text><text x="353.34272486435066" style="color:#666666;cursor:default;font-size:11px;fill:#666666;" text-anchor="end" transform="translate(0,0) rotate(-45 353.34272486435066 276)" y="276" opacity="1">Luglio</text><text x="396.84272486435066" style="color:#666666;cursor:default;font-size:11px;fill:#666666;" text-anchor="end" transform="translate(0,0) rotate(-45 396.84272486435066 276)" y="276" opacity="1">Agosto</text><text x="440.34272486435066" style="color:#666666;cursor:default;font-size:11px;fill:#666666;" text-anchor="end" transform="translate(0,0) rotate(-45 440.34272486435066 276)" y="276" opacity="1">Settembre</text><text x="483.84272486435066" style="color:#666666;cursor:default;font-size:11px;fill:#666666;" text-anchor="end" transform="translate(0,0) rotate(-45 483.84272486435066 276)" y="276" opacity="1">Ottobre</text><text x="527.3427248643507" style="color:#666666;cursor:default;font-size:11px;fill:#666666;" text-anchor="end" transform="translate(0,0) rotate(-45 527.3427248643507 276)" y="276" opacity="1">Novembre</text><text x="570.8427248643507" style="color:#666666;cursor:default;font-size:11px;fill:#666666;" text-anchor="end" transform="translate(0,0) rotate(-45 570.8427248643507 276)" y="276" opacity="1">Dicembre</text></g><g class="highcharts-axis-labels highcharts-yaxis-labels " data-z-index="7"><text x="53" style="color:#666666;cursor:default;font-size:11px;fill:#666666;" text-anchor="end" transform="translate(0,0)" y="264" opacity="1">0</text><text x="53" style="color:#666666;cursor:default;font-size:11px;fill:#666666;" text-anchor="end" transform="translate(0,0)" y="202" opacity="1">10k</text><text x="53" style="color:#666666;cursor:default;font-size:11px;fill:#666666;" text-anchor="end" transform="translate(0,0)" y="139" opacity="1">20k</text><text x="53" style="color:#666666;cursor:default;font-size:11px;fill:#666666;" text-anchor="end" transform="translate(0,0)" y="77" opacity="1">30k</text><text x="53" style="color:#666666;cursor:default;font-size:11px;fill:#666666;" text-anchor="end" transform="translate(0,0)" y="14" opacity="1">40k</text></g></svg>