<svg xmlns:xlink="http://www.w3.org/1999/xlink" version="1.1" class="highcharts-root" style="font-family:&quot;Lucida Grande&quot;, &quot;Lucida Sans Unicode&quot;, Arial, Helvetica, sans-serif;font-size:12px;" xmlns="http://www.w3.org/2000/svg" width="600" height="400" viewBox="0 0 600 400"><desc>Created with Highcharts 7.0.1</desc><defs><clipPath id="highcharts-26pll9d-220"><rect x="0" y="0" width="523" height="314" fill="none"></rect></clipPath></defs><rect fill="#ffffff" class="highcharts-background" x="0" y="0" width="600" height="400" rx="0" ry="0"></rect><rect fill="none" class="highcharts-plot-background" x="67" y="10" width="523" height="314"></rect><g class="highcharts-grid highcharts-xaxis-grid " data-z-index="1"><path fill="none" data-z-index="1" class="highcharts-grid-line" d="M 240.5 10 L 240.5 324" opacity="1"></path><path fill="none" data-z-index="1" class="highcharts-grid-line" d="M 415.5 10 L 415.5 324" opacity="1"></path><path fill="none" data-z-index="1" class="highcharts-grid-line" d="M 589.5 10 L 589.5 324" opacity="1"></path><path fill="none" data-z-index="1" class="highcharts-grid-line" d="M 66.5 10 L 66.5 324" opacity="1"></path></g><g class="highcharts-grid highcharts-yaxis-grid " data-z-index="1"><path fill="none" stroke="#e6e6e6" stroke-width="1" data-z-index="1" class="highcharts-grid-line" d="M 67 324.5 L 590 324.5" opacity="1"></path><path fill="none" stroke="#e6e6e6" stroke-width="1" data-z-index="1" class="highcharts-grid-line" d="M 67 261.5 L 590 261.5" opacity="1"></path><path fill="none" stroke="#e6e6e6" stroke-width="1" data-z-index="1" class="highcharts-grid-line" d="M 67 198.5 L 590 198.5" opacity="1"></path><path fill="none" stroke="#e6e6e6" stroke-width="1" data-z-index="1" class="highcharts-grid-line" d="M 67 136.5 L 590 136.5" opacity="1"></path><path fill="none" stroke="#e6e6e6" stroke-width="1" data-z-index="1" class="highcharts-grid-line" d="M 67 73.5 L 590 73.5" opacity="1"></path><path fill="none" stroke="#e6e6e6" stroke-width="1" data-z-index="1" class="highcharts-grid-line" d="M 67 9.5 L 590 9.5" opacity="1"></path></g><rect fill="none" class="highcharts-plot-border" data-z-index="1" x="67" y="10" width="523" height="314"></rect><g class="highcharts-axis highcharts-xaxis " data-z-index="2"><path fill="none" class="highcharts-tick" stroke="#ccd6eb" stroke-width="1" d="M 240.5 324 L 240.5 334" opacity="1"></path><path fill="none" class="highcharts-tick" stroke="#ccd6eb" stroke-width="1" d="M 415.5 324 L 415.5 334" opacity="1"></path><path fill="none" class="highcharts-tick" stroke="#ccd6eb" stroke-width="1" d="M 590.5 324 L 590.5 334" opacity="1"></path><path fill="none" class="highcharts-tick" stroke="#ccd6eb" stroke-width="1" d="M 66.5 324 L 66.5 334" opacity="1"></path><path fill="none" class="highcharts-axis-line" stroke="#ccd6eb" stroke-width="1" data-z-index="7" d="M 67 324.5 L 590 324.5"></path></g><g class="highcharts-axis highcharts-yaxis " data-z-index="2"><text x="25.078125" data-z-index="7" text-anchor="middle" transform="translate(0,0) rotate(270 25.078125 167)" class="highcharts-axis-title" style="color:#666666;fill:#666666;" y="167"><tspan>Percentuale</tspan></text><path fill="none" class="highcharts-axis-line" data-z-index="7" d="M 67 10 L 67 324"></path></g><text x="117" y="40" data-z-index="2" style="position:absolute;color:#333333;fill:#333333;"></text><g class="highcharts-series-group" data-z-index="3"><g data-z-index="0.1" class="highcharts-series highcharts-series-0 highcharts-column-series " transform="translate(67,10) scale(1 1)" clip-path="url(#highcharts-26pll9d-220)"><rect x="37.5" y="314.5" width="28" height="0" fill="#e74c3c" stroke="#ffffff" stroke-width="1" class="highcharts-point"></rect><rect x="212.5" y="314.5" width="28" height="0" fill="#e74c3c" stroke="#ffffff" stroke-width="1" class="highcharts-point"></rect><rect x="386.5" y="314.5" width="28" height="0" fill="#e74c3c" stroke="#ffffff" stroke-width="1" class="highcharts-point"></rect></g><g data-z-index="0.1" class="highcharts-markers highcharts-series-0 highcharts-column-series " transform="translate(67,10) scale(1 1)" clip-path="none"></g><g data-z-index="0.1" class="highcharts-series highcharts-series-1 highcharts-column-series " transform="translate(67,10) scale(1 1)" clip-path="url(#highcharts-26pll9d-220)"><rect x="72.5" y="314.5" width="28" height="0" fill="#f1c40f" stroke="#ffffff" stroke-width="1" class="highcharts-point"></rect><rect x="247.5" y="314.5" width="28" height="0" fill="#f1c40f" stroke="#ffffff" stroke-width="1" class="highcharts-point"></rect><rect x="421.5" y="314.5" width="28" height="0" fill="#f1c40f" stroke="#ffffff" stroke-width="1" class="highcharts-point"></rect></g><g data-z-index="0.1" class="highcharts-markers highcharts-series-1 highcharts-column-series " transform="translate(67,10) scale(1 1)" clip-path="none"></g><g data-z-index="0.1" class="highcharts-series highcharts-series-2 highcharts-column-series " transform="translate(67,10) scale(1 1)" clip-path="url(#highcharts-26pll9d-220)"><rect x="107.5" y="63.5" width="28" height="251" fill="#0e836c" stroke="#ffffff" stroke-width="1" class="highcharts-point"></rect><rect x="281.5" y="63.5" width="28" height="251" fill="#0e836c" stroke="#ffffff" stroke-width="1" class="highcharts-point"></rect><rect x="456.5" y="63.5" width="28" height="251" fill="#0e836c" stroke="#ffffff" stroke-width="1" class="highcharts-point"></rect></g><g data-z-index="0.1" class="highcharts-markers highcharts-series-2 highcharts-column-series " transform="translate(67,10) scale(1 1)" clip-path="none"></g></g><g class="highcharts-exporting-group" data-z-index="3"></g><text x="300" text-anchor="middle" class="highcharts-title" data-z-index="4" style="color:#333333;font-size:18px;fill:#333333;" y="24"></text><text x="300" text-anchor="middle" class="highcharts-subtitle" data-z-index="4" style="color:#666666;fill:#666666;" y="24"></text><g class="highcharts-legend" data-z-index="7" transform="translate(174,359)"><rect fill="none" class="highcharts-legend-box" rx="0" ry="0" x="0" y="0" width="251" height="26" visibility="visible"></rect><g data-z-index="1"><g><g class="highcharts-legend-item highcharts-column-series highcharts-color-undefined highcharts-series-0" data-z-index="1" transform="translate(8,3)"><text x="21" style="color:#333333;cursor:pointer;font-size:12px;font-weight:bold;fill:#333333;" text-anchor="start" data-z-index="2" y="15"><tspan>Poco</tspan></text><rect x="2" y="4" width="12" height="12" fill="#e74c3c" rx="6" ry="6" class="highcharts-point" data-z-index="3"></rect></g><g class="highcharts-legend-item highcharts-column-series highcharts-color-undefined highcharts-series-1" data-z-index="1" transform="translate(78.25,3)"><text x="21" y="15" style="color:#333333;cursor:pointer;font-size:12px;font-weight:bold;fill:#333333;" text-anchor="start" data-z-index="2"><tspan>Abbastanza</tspan></text><rect x="2" y="4" width="12" height="12" fill="#f1c40f" rx="6" ry="6" class="highcharts-point" data-z-index="3"></rect></g><g class="highcharts-legend-item highcharts-column-series highcharts-color-undefined highcharts-series-2" data-z-index="1" transform="translate(187.21875,3)"><text x="21" y="15" style="color:#333333;cursor:pointer;font-size:12px;font-weight:bold;fill:#333333;" text-anchor="start" data-z-index="2"><tspan>Molto</tspan></text><rect x="2" y="4" width="12" height="12" fill="#0e836c" rx="6" ry="6" class="highcharts-point" data-z-index="3"></rect></g></g></g></g><g class="highcharts-axis-labels highcharts-xaxis-labels " data-z-index="7"><text x="154.16666666666333" style="color:#666666;cursor:default;font-size:11px;fill:#666666;" text-anchor="middle" transform="translate(0,0)" y="343" opacity="1"><tspan>Anno precedente</tspan></text><text x="328.5000000000033" style="color:#666666;cursor:default;font-size:11px;fill:#666666;" text-anchor="middle" transform="translate(0,0)" y="343" opacity="1"><tspan>Anno in Corso</tspan></text><text x="502.8333333333333" style="color:#666666;cursor:default;font-size:11px;fill:#666666;" text-anchor="middle" transform="translate(0,0)" y="343" opacity="1"><tspan>Media strutture</tspan></text></g><g class="highcharts-axis-labels highcharts-yaxis-labels " data-z-index="7"><text x="52" style="color:#666666;cursor:default;font-size:11px;fill:#666666;" text-anchor="end" transform="translate(0,0)" y="328" opacity="1">0</text><text x="52" style="color:#666666;cursor:default;font-size:11px;fill:#666666;" text-anchor="end" transform="translate(0,0)" y="265" opacity="1">25</text><text x="52" style="color:#666666;cursor:default;font-size:11px;fill:#666666;" text-anchor="end" transform="translate(0,0)" y="202" opacity="1">50</text><text x="52" style="color:#666666;cursor:default;font-size:11px;fill:#666666;" text-anchor="end" transform="translate(0,0)" y="140" opacity="1">75</text><text x="52" style="color:#666666;cursor:default;font-size:11px;fill:#666666;" text-anchor="end" transform="translate(0,0)" y="77" opacity="1">100</text><text x="52" style="color:#666666;cursor:default;font-size:11px;fill:#666666;" text-anchor="end" transform="translate(0,0)" y="14" opacity="1">125</text></g></svg>