<svg xmlns:xlink="http://www.w3.org/1999/xlink" version="1.1" class="highcharts-root" style="font-family:&quot;Lucida Grande&quot;, &quot;Lucida Sans Unicode&quot;, Arial, Helvetica, sans-serif;font-size:12px;" xmlns="http://www.w3.org/2000/svg" width="600" height="400" viewBox="0 0 600 400"><desc>Created with Highcharts 7.0.1</desc><defs><clipPath id="highcharts-c1z32d1-907"><rect x="0" y="0" width="523" height="314" fill="none"></rect></clipPath></defs><rect fill="#ffffff" class="highcharts-background" x="0" y="0" width="600" height="400" rx="0" ry="0"></rect><rect fill="none" class="highcharts-plot-background" x="67" y="10" width="523" height="314"></rect><g class="highcharts-grid highcharts-xaxis-grid " data-z-index="1"><path fill="none" data-z-index="1" class="highcharts-grid-line" d="M 171.5 10 L 171.5 324" opacity="1"></path><path fill="none" data-z-index="1" class="highcharts-grid-line" d="M 275.5 10 L 275.5 324" opacity="1"></path><path fill="none" data-z-index="1" class="highcharts-grid-line" d="M 380.5 10 L 380.5 324" opacity="1"></path><path fill="none" data-z-index="1" class="highcharts-grid-line" d="M 484.5 10 L 484.5 324" opacity="1"></path><path fill="none" data-z-index="1" class="highcharts-grid-line" d="M 589.5 10 L 589.5 324" opacity="1"></path><path fill="none" data-z-index="1" class="highcharts-grid-line" d="M 66.5 10 L 66.5 324" opacity="1"></path></g><g class="highcharts-grid highcharts-yaxis-grid " data-z-index="1"><path fill="none" stroke="#e6e6e6" stroke-width="1" data-z-index="1" class="highcharts-grid-line" d="M 67 324.5 L 590 324.5" opacity="1"></path><path fill="none" stroke="#e6e6e6" stroke-width="1" data-z-index="1" class="highcharts-grid-line" d="M 67 261.5 L 590 261.5" opacity="1"></path><path fill="none" stroke="#e6e6e6" stroke-width="1" data-z-index="1" class="highcharts-grid-line" d="M 67 198.5 L 590 198.5" opacity="1"></path><path fill="none" stroke="#e6e6e6" stroke-width="1" data-z-index="1" class="highcharts-grid-line" d="M 67 136.5 L 590 136.5" opacity="1"></path><path fill="none" stroke="#e6e6e6" stroke-width="1" data-z-index="1" class="highcharts-grid-line" d="M 67 73.5 L 590 73.5" opacity="1"></path><path fill="none" stroke="#e6e6e6" stroke-width="1" data-z-index="1" class="highcharts-grid-line" d="M 67 9.5 L 590 9.5" opacity="1"></path></g><rect fill="none" class="highcharts-plot-border" data-z-index="1" x="67" y="10" width="523" height="314"></rect><g class="highcharts-axis highcharts-xaxis " data-z-index="2"><path fill="none" class="highcharts-tick" stroke="#ccd6eb" stroke-width="1" d="M 171.5 324 L 171.5 334" opacity="1"></path><path fill="none" class="highcharts-tick" stroke="#ccd6eb" stroke-width="1" d="M 275.5 324 L 275.5 334" opacity="1"></path><path fill="none" class="highcharts-tick" stroke="#ccd6eb" stroke-width="1" d="M 380.5 324 L 380.5 334" opacity="1"></path><path fill="none" class="highcharts-tick" stroke="#ccd6eb" stroke-width="1" d="M 484.5 324 L 484.5 334" opacity="1"></path><path fill="none" class="highcharts-tick" stroke="#ccd6eb" stroke-width="1" d="M 590.5 324 L 590.5 334" opacity="1"></path><path fill="none" class="highcharts-tick" stroke="#ccd6eb" stroke-width="1" d="M 66.5 324 L 66.5 334" opacity="1"></path><path fill="none" class="highcharts-axis-line" stroke="#ccd6eb" stroke-width="1" data-z-index="7" d="M 67 324.5 L 590 324.5"></path></g><g class="highcharts-axis highcharts-yaxis " data-z-index="2"><text x="25.078125" data-z-index="7" text-anchor="middle" transform="translate(0,0) rotate(270 25.078125 167)" class="highcharts-axis-title" style="color:#666666;fill:#666666;" y="167"><tspan>Percentuale</tspan></text><path fill="none" class="highcharts-axis-line" data-z-index="7" d="M 67 10 L 67 324"></path></g><text x="117" y="40" data-z-index="2" style="position:absolute;color:#333333;fill:#333333;"></text><g class="highcharts-series-group" data-z-index="3"><g data-z-index="0.1" class="highcharts-series highcharts-series-0 highcharts-column-series " transform="translate(67,10) scale(1 1)" clip-path="url(#highcharts-c1z32d1-907)"><rect x="21.5" y="314.5" width="13" height="0" fill="#e74c3c" stroke="#ffffff" stroke-width="1" class="highcharts-point"></rect><rect x="126.5" y="314.5" width="13" height="0" fill="#e74c3c" stroke="#ffffff" stroke-width="1" class="highcharts-point"></rect><rect x="231.5" y="314.5" width="13" height="0" fill="#e74c3c" stroke="#ffffff" stroke-width="1" class="highcharts-point"></rect><rect x="335.5" y="314.5" width="13" height="0" fill="#e74c3c" stroke="#ffffff" stroke-width="1" class="highcharts-point"></rect><rect x="440.5" y="314.5" width="13" height="0" fill="#e74c3c" stroke="#ffffff" stroke-width="1" class="highcharts-point"></rect></g><g data-z-index="0.1" class="highcharts-markers highcharts-series-0 highcharts-column-series " transform="translate(67,10) scale(1 1)" clip-path="none"></g><g data-z-index="0.1" class="highcharts-series highcharts-series-1 highcharts-column-series " transform="translate(67,10) scale(1 1)" clip-path="url(#highcharts-c1z32d1-907)"><rect x="37.5" y="314.5" width="13" height="0" fill="#f1c40f" stroke="#ffffff" stroke-width="1" class="highcharts-point"></rect><rect x="142.5" y="314.5" width="13" height="0" fill="#f1c40f" stroke="#ffffff" stroke-width="1" class="highcharts-point"></rect><rect x="246.5" y="314.5" width="13" height="0" fill="#f1c40f" stroke="#ffffff" stroke-width="1" class="highcharts-point"></rect><rect x="351.5" y="314.5" width="13" height="0" fill="#f1c40f" stroke="#ffffff" stroke-width="1" class="highcharts-point"></rect><rect x="456.5" y="292.5" width="13" height="22" fill="#f1c40f" stroke="#ffffff" stroke-width="1" class="highcharts-point"></rect></g><g data-z-index="0.1" class="highcharts-markers highcharts-series-1 highcharts-column-series " transform="translate(67,10) scale(1 1)" clip-path="none"></g><g data-z-index="0.1" class="highcharts-series highcharts-series-2 highcharts-column-series " transform="translate(67,10) scale(1 1)" clip-path="url(#highcharts-c1z32d1-907)"><rect x="53.5" y="217.5" width="13" height="97" fill="#35f887" stroke="#ffffff" stroke-width="1" class="highcharts-point"></rect><rect x="157.5" y="238.5" width="13" height="76" fill="#35f887" stroke="#ffffff" stroke-width="1" class="highcharts-point"></rect><rect x="262.5" y="130.5" width="13" height="184" fill="#35f887" stroke="#ffffff" stroke-width="1" class="highcharts-point"></rect><rect x="367.5" y="249.5" width="13" height="65" fill="#35f887" stroke="#ffffff" stroke-width="1" class="highcharts-point"></rect><rect x="471.5" y="162.5" width="13" height="152" fill="#35f887" stroke="#ffffff" stroke-width="1" class="highcharts-point"></rect></g><g data-z-index="0.1" class="highcharts-markers highcharts-series-2 highcharts-column-series " transform="translate(67,10) scale(1 1)" clip-path="none"></g><g data-z-index="0.1" class="highcharts-series highcharts-series-3 highcharts-column-series " transform="translate(67,10) scale(1 1)" clip-path="url(#highcharts-c1z32d1-907)"><rect x="69.5" y="97.5" width="13" height="217" fill="#0e836c" stroke="#ffffff" stroke-width="1" class="highcharts-point"></rect><rect x="173.5" y="76.5" width="13" height="238" fill="#0e836c" stroke="#ffffff" stroke-width="1" class="highcharts-point"></rect><rect x="278.5" y="184.5" width="13" height="130" fill="#0e836c" stroke="#ffffff" stroke-width="1" class="highcharts-point"></rect><rect x="382.5" y="65.5" width="13" height="249" fill="#0e836c" stroke="#ffffff" stroke-width="1" class="highcharts-point"></rect><rect x="487.5" y="173.5" width="13" height="141" fill="#0e836c" stroke="#ffffff" stroke-width="1" class="highcharts-point"></rect></g><g data-z-index="0.1" class="highcharts-markers highcharts-series-3 highcharts-column-series " transform="translate(67,10) scale(1 1)" clip-path="none"></g></g><g class="highcharts-exporting-group" data-z-index="3"></g><text x="300" text-anchor="middle" class="highcharts-title" data-z-index="4" style="color:#333333;font-size:18px;fill:#333333;" y="24"></text><text x="300" text-anchor="middle" class="highcharts-subtitle" data-z-index="4" style="color:#666666;fill:#666666;" y="24"></text><g class="highcharts-legend" data-z-index="7" transform="translate(97,359)"><rect fill="none" class="highcharts-legend-box" rx="0" ry="0" x="0" y="0" width="405" height="26" visibility="visible"></rect><g data-z-index="1"><g><g class="highcharts-legend-item highcharts-column-series highcharts-color-undefined highcharts-series-0" data-z-index="1" transform="translate(8,3)"><text x="21" style="color:#333333;cursor:pointer;font-size:12px;font-weight:bold;fill:#333333;" text-anchor="start" data-z-index="2" y="15"><tspan>Insufficiente</tspan></text><rect x="2" y="4" width="12" height="12" fill="#e74c3c" rx="6" ry="6" class="highcharts-point" data-z-index="3"></rect></g><g class="highcharts-legend-item highcharts-column-series highcharts-color-undefined highcharts-series-1" data-z-index="1" transform="translate(125.921875,3)"><text x="21" y="15" style="color:#333333;cursor:pointer;font-size:12px;font-weight:bold;fill:#333333;" text-anchor="start" data-z-index="2"><tspan>Sufficiente</tspan></text><rect x="2" y="4" width="12" height="12" fill="#f1c40f" rx="6" ry="6" class="highcharts-point" data-z-index="3"></rect></g><g class="highcharts-legend-item highcharts-column-series highcharts-color-undefined highcharts-series-2" data-z-index="1" transform="translate(232.921875,3)"><text x="21" y="15" style="color:#333333;cursor:pointer;font-size:12px;font-weight:bold;fill:#333333;" text-anchor="start" data-z-index="2"><tspan>Buono</tspan></text><rect x="2" y="4" width="12" height="12" fill="#35f887" rx="6" ry="6" class="highcharts-point" data-z-index="3"></rect></g><g class="highcharts-legend-item highcharts-column-series highcharts-color-undefined highcharts-series-3" data-z-index="1" transform="translate(312.4375,3)"><text x="21" y="15" style="color:#333333;cursor:pointer;font-size:12px;font-weight:bold;fill:#333333;" text-anchor="start" data-z-index="2"><tspan>Eccellente</tspan></text><rect x="2" y="4" width="12" height="12" fill="#0e836c" rx="6" ry="6" class="highcharts-point" data-z-index="3"></rect></g></g></g></g><g class="highcharts-axis-labels highcharts-xaxis-labels " data-z-index="7"><text x="119.3" style="color:#666666;cursor:default;font-size:11px;fill:#666666;" text-anchor="middle" transform="translate(0,0)" y="343" opacity="1"><tspan>Il corso</tspan></text><text x="223.89999999999998" style="color:#666666;cursor:default;font-size:11px;fill:#666666;" text-anchor="middle" transform="translate(0,0)" y="343" opacity="1"><tspan>Il giudizio</tspan></text><text x="328.5" style="color:#666666;cursor:default;font-size:11px;fill:#666666;" text-anchor="middle" transform="translate(0,0)" y="343" opacity="1"><tspan>Gli spazi</tspan></text><text x="433.09999999999997" style="color:#666666;cursor:default;font-size:11px;fill:#666666;" text-anchor="middle" transform="translate(0,0)" y="343" opacity="1"><tspan>La conduzione</tspan></text><text x="537.7" style="color:#666666;cursor:default;font-size:11px;fill:#666666;" text-anchor="middle" transform="translate(0,0)" y="343" opacity="1"><tspan>Il livello</tspan></text></g><g class="highcharts-axis-labels highcharts-yaxis-labels " data-z-index="7"><text x="52" style="color:#666666;cursor:default;font-size:11px;fill:#666666;" text-anchor="end" transform="translate(0,0)" y="328" opacity="1">0</text><text x="52" style="color:#666666;cursor:default;font-size:11px;fill:#666666;" text-anchor="end" transform="translate(0,0)" y="265" opacity="1">20</text><text x="52" style="color:#666666;cursor:default;font-size:11px;fill:#666666;" text-anchor="end" transform="translate(0,0)" y="202" opacity="1">40</text><text x="52" style="color:#666666;cursor:default;font-size:11px;fill:#666666;" text-anchor="end" transform="translate(0,0)" y="140" opacity="1">60</text><text x="52" style="color:#666666;cursor:default;font-size:11px;fill:#666666;" text-anchor="end" transform="translate(0,0)" y="77" opacity="1">80</text><text x="52" style="color:#666666;cursor:default;font-size:11px;fill:#666666;" text-anchor="end" transform="translate(0,0)" y="14" opacity="1">100</text></g></svg>