<svg xmlns:xlink="http://www.w3.org/1999/xlink" version="1.1" class="highcharts-root" style="font-family:&quot;Lucida Grande&quot;, &quot;Lucida Sans Unicode&quot;, Arial, Helvetica, sans-serif;font-size:12px;" xmlns="http://www.w3.org/2000/svg" width="600" height="400" viewBox="0 0 600 400"><desc>Created with Highcharts 7.0.1</desc><defs><clipPath id="highcharts-56c2t34-413"><rect x="0" y="0" width="517" height="235" fill="none"></rect></clipPath></defs><rect fill="#ffffff" class="highcharts-background" x="0" y="0" width="600" height="400" rx="0" ry="0"></rect><rect fill="none" class="highcharts-plot-background" x="73" y="10" width="517" height="235"></rect><g class="highcharts-grid highcharts-xaxis-grid " data-z-index="1"><path fill="none" data-z-index="1" class="highcharts-grid-line" d="M 115.5 10 L 115.5 245" opacity="1"></path><path fill="none" data-z-index="1" class="highcharts-grid-line" d="M 158.5 10 L 158.5 245" opacity="1"></path><path fill="none" data-z-index="1" class="highcharts-grid-line" d="M 201.5 10 L 201.5 245" opacity="1"></path><path fill="none" data-z-index="1" class="highcharts-grid-line" d="M 244.5 10 L 244.5 245" opacity="1"></path><path fill="none" data-z-index="1" class="highcharts-grid-line" d="M 287.5 10 L 287.5 245" opacity="1"></path><path fill="none" data-z-index="1" class="highcharts-grid-line" d="M 331.5 10 L 331.5 245" opacity="1"></path><path fill="none" data-z-index="1" class="highcharts-grid-line" d="M 374.5 10 L 374.5 245" opacity="1"></path><path fill="none" data-z-index="1" class="highcharts-grid-line" d="M 417.5 10 L 417.5 245" opacity="1"></path><path fill="none" data-z-index="1" class="highcharts-grid-line" d="M 460.5 10 L 460.5 245" opacity="1"></path><path fill="none" data-z-index="1" class="highcharts-grid-line" d="M 503.5 10 L 503.5 245" opacity="1"></path><path fill="none" data-z-index="1" class="highcharts-grid-line" d="M 546.5 10 L 546.5 245" opacity="1"></path><path fill="none" data-z-index="1" class="highcharts-grid-line" d="M 589.5 10 L 589.5 245" opacity="1"></path><path fill="none" data-z-index="1" class="highcharts-grid-line" d="M 72.5 10 L 72.5 245" opacity="1"></path></g><g class="highcharts-grid highcharts-yaxis-grid " data-z-index="1"><path fill="none" stroke="#e6e6e6" stroke-width="1" data-z-index="1" class="highcharts-grid-line" d="M 73 245.5 L 590 245.5" opacity="1"></path><path fill="none" stroke="#e6e6e6" stroke-width="1" data-z-index="1" class="highcharts-grid-line" d="M 73 167.5 L 590 167.5" opacity="1"></path><path fill="none" stroke="#e6e6e6" stroke-width="1" data-z-index="1" class="highcharts-grid-line" d="M 73 88.5 L 590 88.5" opacity="1"></path><path fill="none" stroke="#e6e6e6" stroke-width="1" data-z-index="1" class="highcharts-grid-line" d="M 73 9.5 L 590 9.5" opacity="1"></path></g><rect fill="none" class="highcharts-plot-border" data-z-index="1" x="73" y="10" width="517" height="235"></rect><g class="highcharts-axis highcharts-xaxis " data-z-index="2"><path fill="none" class="highcharts-tick" stroke="#ccd6eb" stroke-width="1" d="M 115.5 245 L 115.5 255" opacity="1"></path><path fill="none" class="highcharts-tick" stroke="#ccd6eb" stroke-width="1" d="M 158.5 245 L 158.5 255" opacity="1"></path><path fill="none" class="highcharts-tick" stroke="#ccd6eb" stroke-width="1" d="M 201.5 245 L 201.5 255" opacity="1"></path><path fill="none" class="highcharts-tick" stroke="#ccd6eb" stroke-width="1" d="M 244.5 245 L 244.5 255" opacity="1"></path><path fill="none" class="highcharts-tick" stroke="#ccd6eb" stroke-width="1" d="M 287.5 245 L 287.5 255" opacity="1"></path><path fill="none" class="highcharts-tick" stroke="#ccd6eb" stroke-width="1" d="M 331.5 245 L 331.5 255" opacity="1"></path><path fill="none" class="highcharts-tick" stroke="#ccd6eb" stroke-width="1" d="M 374.5 245 L 374.5 255" opacity="1"></path><path fill="none" class="highcharts-tick" stroke="#ccd6eb" stroke-width="1" d="M 417.5 245 L 417.5 255" opacity="1"></path><path fill="none" class="highcharts-tick" stroke="#ccd6eb" stroke-width="1" d="M 460.5 245 L 460.5 255" opacity="1"></path><path fill="none" class="highcharts-tick" stroke="#ccd6eb" stroke-width="1" d="M 503.5 245 L 503.5 255" opacity="1"></path><path fill="none" class="highcharts-tick" stroke="#ccd6eb" stroke-width="1" d="M 546.5 245 L 546.5 255" opacity="1"></path><path fill="none" class="highcharts-tick" stroke="#ccd6eb" stroke-width="1" d="M 590.5 245 L 590.5 255" opacity="1"></path><path fill="none" class="highcharts-tick" stroke="#ccd6eb" stroke-width="1" d="M 72.5 245 L 72.5 255" opacity="1"></path><path fill="none" class="highcharts-axis-line" stroke="#ccd6eb" stroke-width="1" data-z-index="7" d="M 73 245.5 L 590 245.5"></path></g><g class="highcharts-axis highcharts-yaxis " data-z-index="2"><text x="24.609375" data-z-index="7" text-anchor="middle" transform="translate(0,0) rotate(270 24.609375 127.5)" class="highcharts-axis-title" style="color:#666666;fill:#666666;" y="127.5"><tspan>Totale</tspan></text><path fill="none" class="highcharts-axis-line" data-z-index="7" d="M 73 10 L 73 245"></path></g><text x="123" y="40" data-z-index="2" style="position:absolute;color:#333333;fill:#333333;"></text><g class="highcharts-series-group" data-z-index="3"><g data-z-index="0.1" class="highcharts-series highcharts-series-0 highcharts-column-series " transform="translate(73,10) scale(1 1)" clip-path="url(#highcharts-56c2t34-413)"><rect x="8.5" y="216.5" width="3" height="19" fill="#34495e" stroke="#ffffff" stroke-width="1" class="highcharts-point"></rect><rect x="51.5" y="218.5" width="3" height="17" fill="#34495e" stroke="#ffffff" stroke-width="1" class="highcharts-point"></rect><rect x="94.5" y="218.5" width="3" height="17" fill="#34495e" stroke="#ffffff" stroke-width="1" class="highcharts-point"></rect><rect x="137.5" y="221.5" width="3" height="14" fill="#34495e" stroke="#ffffff" stroke-width="1" class="highcharts-point"></rect><rect x="180.5" y="222.5" width="3" height="13" fill="#34495e" stroke="#ffffff" stroke-width="1" class="highcharts-point"></rect><rect x="223.5" y="223.5" width="3" height="12" fill="#34495e" stroke="#ffffff" stroke-width="1" class="highcharts-point"></rect><rect x="266.5" y="222.5" width="3" height="13" fill="#34495e" stroke="#ffffff" stroke-width="1" class="highcharts-point"></rect><rect x="310.5" y="215.5" width="3" height="20" fill="#34495e" stroke="#ffffff" stroke-width="1" class="highcharts-point"></rect><rect x="353.5" y="223.5" width="3" height="12" fill="#34495e" stroke="#ffffff" stroke-width="1" class="highcharts-point"></rect><rect x="396.5" y="221.5" width="3" height="14" fill="#34495e" stroke="#ffffff" stroke-width="1" class="highcharts-point"></rect><rect x="439.5" y="218.5" width="3" height="17" fill="#34495e" stroke="#ffffff" stroke-width="1" class="highcharts-point"></rect><rect x="482.5" y="235.5" width="3" height="0" fill="#34495e" stroke="#ffffff" stroke-width="1" class="highcharts-point"></rect></g><g data-z-index="0.1" class="highcharts-markers highcharts-series-0 highcharts-column-series " transform="translate(73,10) scale(1 1)" clip-path="none"></g><g data-z-index="0.1" class="highcharts-series highcharts-series-1 highcharts-column-series " transform="translate(73,10) scale(1 1)" clip-path="url(#highcharts-56c2t34-413)"><rect x="11.5" y="68.5" width="3" height="167" fill="#e73c68" stroke="#ffffff" stroke-width="1" class="highcharts-point"></rect><rect x="54.5" y="98.5" width="3" height="137" fill="#e73c68" stroke="#ffffff" stroke-width="1" class="highcharts-point"></rect><rect x="97.5" y="108.5" width="3" height="127" fill="#e73c68" stroke="#ffffff" stroke-width="1" class="highcharts-point"></rect><rect x="140.5" y="144.5" width="3" height="91" fill="#e73c68" stroke="#ffffff" stroke-width="1" class="highcharts-point"></rect><rect x="184.5" y="122.5" width="3" height="113" fill="#e73c68" stroke="#ffffff" stroke-width="1" class="highcharts-point"></rect><rect x="227.5" y="17.5" width="3" height="218" fill="#e73c68" stroke="#ffffff" stroke-width="1" class="highcharts-point"></rect><rect x="270.5" y="16.5" width="3" height="219" fill="#e73c68" stroke="#ffffff" stroke-width="1" class="highcharts-point"></rect><rect x="313.5" y="77.5" width="3" height="158" fill="#e73c68" stroke="#ffffff" stroke-width="1" class="highcharts-point"></rect><rect x="356.5" y="103.5" width="3" height="132" fill="#e73c68" stroke="#ffffff" stroke-width="1" class="highcharts-point"></rect><rect x="399.5" y="235.5" width="3" height="0" fill="#e73c68" stroke="#ffffff" stroke-width="1" class="highcharts-point"></rect><rect x="442.5" y="235.5" width="3" height="0" fill="#e73c68" stroke="#ffffff" stroke-width="1" class="highcharts-point"></rect><rect x="485.5" y="235.5" width="3" height="0" fill="#e73c68" stroke="#ffffff" stroke-width="1" class="highcharts-point"></rect></g><g data-z-index="0.1" class="highcharts-markers highcharts-series-1 highcharts-column-series " transform="translate(73,10) scale(1 1)" clip-path="none"></g><g data-z-index="0.1" class="highcharts-series highcharts-series-2 highcharts-column-series " transform="translate(73,10) scale(1 1)" clip-path="url(#highcharts-56c2t34-413)"><rect x="14.5" y="24.5" width="3" height="211" fill="#2ecc71" stroke="#ffffff" stroke-width="1" class="highcharts-point"></rect><rect x="57.5" y="37.5" width="3" height="198" fill="#2ecc71" stroke="#ffffff" stroke-width="1" class="highcharts-point"></rect><rect x="101.5" y="50.5" width="3" height="185" fill="#2ecc71" stroke="#ffffff" stroke-width="1" class="highcharts-point"></rect><rect x="144.5" y="167.5" width="3" height="68" fill="#2ecc71" stroke="#ffffff" stroke-width="1" class="highcharts-point"></rect><rect x="187.5" y="159.5" width="3" height="76" fill="#2ecc71" stroke="#ffffff" stroke-width="1" class="highcharts-point"></rect><rect x="230.5" y="126.5" width="3" height="109" fill="#2ecc71" stroke="#ffffff" stroke-width="1" class="highcharts-point"></rect><rect x="273.5" y="75.5" width="3" height="160" fill="#2ecc71" stroke="#ffffff" stroke-width="1" class="highcharts-point"></rect><rect x="316.5" y="82.5" width="3" height="153" fill="#2ecc71" stroke="#ffffff" stroke-width="1" class="highcharts-point"></rect><rect x="359.5" y="154.5" width="3" height="81" fill="#2ecc71" stroke="#ffffff" stroke-width="1" class="highcharts-point"></rect><rect x="402.5" y="178.5" width="3" height="57" fill="#2ecc71" stroke="#ffffff" stroke-width="1" class="highcharts-point"></rect><rect x="445.5" y="235.5" width="3" height="0" fill="#2ecc71" stroke="#ffffff" stroke-width="1" class="highcharts-point"></rect><rect x="488.5" y="235.5" width="3" height="0" fill="#2ecc71" stroke="#ffffff" stroke-width="1" class="highcharts-point"></rect></g><g data-z-index="0.1" class="highcharts-markers highcharts-series-2 highcharts-column-series " transform="translate(73,10) scale(1 1)" clip-path="none"></g><g data-z-index="0.1" class="highcharts-series highcharts-series-3 highcharts-column-series " transform="translate(73,10) scale(1 1)" clip-path="url(#highcharts-56c2t34-413)"><rect x="18.5" y="231.5" width="3" height="4" fill="#e74c3c" stroke="#ffffff" stroke-width="1" class="highcharts-point"></rect><rect x="61.5" y="232.5" width="3" height="3" fill="#e74c3c" stroke="#ffffff" stroke-width="1" class="highcharts-point"></rect><rect x="104.5" y="230.5" width="3" height="5" fill="#e74c3c" stroke="#ffffff" stroke-width="1" class="highcharts-point"></rect><rect x="147.5" y="230.5" width="3" height="5" fill="#e74c3c" stroke="#ffffff" stroke-width="1" class="highcharts-point"></rect><rect x="190.5" y="232.5" width="3" height="3" fill="#e74c3c" stroke="#ffffff" stroke-width="1" class="highcharts-point"></rect><rect x="233.5" y="191.5" width="3" height="44" fill="#e74c3c" stroke="#ffffff" stroke-width="1" class="highcharts-point"></rect><rect x="276.5" y="235.5" width="3" height="0" fill="#e74c3c" stroke="#ffffff" stroke-width="1" class="highcharts-point"></rect><rect x="319.5" y="118.5" width="3" height="117" fill="#e74c3c" stroke="#ffffff" stroke-width="1" class="highcharts-point"></rect><rect x="362.5" y="218.5" width="3" height="17" fill="#e74c3c" stroke="#ffffff" stroke-width="1" class="highcharts-point"></rect><rect x="405.5" y="235.5" width="3" height="0" fill="#e74c3c" stroke="#ffffff" stroke-width="1" class="highcharts-point"></rect><rect x="448.5" y="235.5" width="3" height="0" fill="#e74c3c" stroke="#ffffff" stroke-width="1" class="highcharts-point"></rect><rect x="492.5" y="235.5" width="3" height="0" fill="#e74c3c" stroke="#ffffff" stroke-width="1" class="highcharts-point"></rect></g><g data-z-index="0.1" class="highcharts-markers highcharts-series-3 highcharts-column-series " transform="translate(73,10) scale(1 1)" clip-path="none"></g><g data-z-index="0.1" class="highcharts-series highcharts-series-4 highcharts-column-series " transform="translate(73,10) scale(1 1)" clip-path="url(#highcharts-56c2t34-413)"><rect x="21.5" y="232.5" width="3" height="3" fill="#e67e22" stroke="#ffffff" stroke-width="1" class="highcharts-point"></rect><rect x="64.5" y="232.5" width="3" height="3" fill="#e67e22" stroke="#ffffff" stroke-width="1" class="highcharts-point"></rect><rect x="107.5" y="231.5" width="3" height="4" fill="#e67e22" stroke="#ffffff" stroke-width="1" class="highcharts-point"></rect><rect x="150.5" y="231.5" width="3" height="4" fill="#e67e22" stroke="#ffffff" stroke-width="1" class="highcharts-point"></rect><rect x="193.5" y="231.5" width="3" height="4" fill="#e67e22" stroke="#ffffff" stroke-width="1" class="highcharts-point"></rect><rect x="236.5" y="231.5" width="3" height="4" fill="#e67e22" stroke="#ffffff" stroke-width="1" class="highcharts-point"></rect><rect x="279.5" y="230.5" width="3" height="5" fill="#e67e22" stroke="#ffffff" stroke-width="1" class="highcharts-point"></rect><rect x="322.5" y="230.5" width="3" height="5" fill="#e67e22" stroke="#ffffff" stroke-width="1" class="highcharts-point"></rect><rect x="366.5" y="231.5" width="3" height="4" fill="#e67e22" stroke="#ffffff" stroke-width="1" class="highcharts-point"></rect><rect x="409.5" y="235.5" width="3" height="0" fill="#e67e22" stroke="#ffffff" stroke-width="1" class="highcharts-point"></rect><rect x="452.5" y="235.5" width="3" height="0" fill="#e67e22" stroke="#ffffff" stroke-width="1" class="highcharts-point"></rect><rect x="495.5" y="235.5" width="3" height="0" fill="#e67e22" stroke="#ffffff" stroke-width="1" class="highcharts-point"></rect></g><g data-z-index="0.1" class="highcharts-markers highcharts-series-4 highcharts-column-series " transform="translate(73,10) scale(1 1)" clip-path="none"></g><g data-z-index="0.1" class="highcharts-series highcharts-series-5 highcharts-column-series " transform="translate(73,10) scale(1 1)" clip-path="url(#highcharts-56c2t34-413)"><rect x="24.5" y="217.5" width="3" height="18" fill="#3498db" stroke="#ffffff" stroke-width="1" class="highcharts-point"></rect><rect x="67.5" y="227.5" width="3" height="8" fill="#3498db" stroke="#ffffff" stroke-width="1" class="highcharts-point"></rect><rect x="110.5" y="218.5" width="3" height="17" fill="#3498db" stroke="#ffffff" stroke-width="1" class="highcharts-point"></rect><rect x="153.5" y="219.5" width="3" height="16" fill="#3498db" stroke="#ffffff" stroke-width="1" class="highcharts-point"></rect><rect x="196.5" y="223.5" width="3" height="12" fill="#3498db" stroke="#ffffff" stroke-width="1" class="highcharts-point"></rect><rect x="240.5" y="202.5" width="3" height="33" fill="#3498db" stroke="#ffffff" stroke-width="1" class="highcharts-point"></rect><rect x="283.5" y="184.5" width="3" height="51" fill="#3498db" stroke="#ffffff" stroke-width="1" class="highcharts-point"></rect><rect x="326.5" y="214.5" width="3" height="21" fill="#3498db" stroke="#ffffff" stroke-width="1" class="highcharts-point"></rect><rect x="369.5" y="186.5" width="3" height="49" fill="#3498db" stroke="#ffffff" stroke-width="1" class="highcharts-point"></rect><rect x="412.5" y="235.5" width="3" height="0" fill="#3498db" stroke="#ffffff" stroke-width="1" class="highcharts-point"></rect><rect x="455.5" y="235.5" width="3" height="0" fill="#3498db" stroke="#ffffff" stroke-width="1" class="highcharts-point"></rect><rect x="498.5" y="235.5" width="3" height="0" fill="#3498db" stroke="#ffffff" stroke-width="1" class="highcharts-point"></rect></g><g data-z-index="0.1" class="highcharts-markers highcharts-series-5 highcharts-column-series " transform="translate(73,10) scale(1 1)" clip-path="none"></g><g data-z-index="0.1" class="highcharts-series highcharts-series-6 highcharts-column-series " transform="translate(73,10) scale(1 1)" clip-path="url(#highcharts-56c2t34-413)"><rect x="27.5" y="176.5" width="3" height="59" fill="#e67e22" stroke="#ffffff" stroke-width="1" class="highcharts-point"></rect><rect x="70.5" y="183.5" width="3" height="52" fill="#e67e22" stroke="#ffffff" stroke-width="1" class="highcharts-point"></rect><rect x="113.5" y="183.5" width="3" height="52" fill="#e67e22" stroke="#ffffff" stroke-width="1" class="highcharts-point"></rect><rect x="157.5" y="188.5" width="3" height="47" fill="#e67e22" stroke="#ffffff" stroke-width="1" class="highcharts-point"></rect><rect x="200.5" y="188.5" width="3" height="47" fill="#e67e22" stroke="#ffffff" stroke-width="1" class="highcharts-point"></rect><rect x="243.5" y="181.5" width="3" height="54" fill="#e67e22" stroke="#ffffff" stroke-width="1" class="highcharts-point"></rect><rect x="286.5" y="168.5" width="3" height="67" fill="#e67e22" stroke="#ffffff" stroke-width="1" class="highcharts-point"></rect><rect x="329.5" y="167.5" width="3" height="68" fill="#e67e22" stroke="#ffffff" stroke-width="1" class="highcharts-point"></rect><rect x="372.5" y="179.5" width="3" height="56" fill="#e67e22" stroke="#ffffff" stroke-width="1" class="highcharts-point"></rect><rect x="415.5" y="186.5" width="3" height="49" fill="#e67e22" stroke="#ffffff" stroke-width="1" class="highcharts-point"></rect><rect x="458.5" y="235.5" width="3" height="0" fill="#e67e22" stroke="#ffffff" stroke-width="1" class="highcharts-point"></rect><rect x="501.5" y="235.5" width="3" height="0" fill="#e67e22" stroke="#ffffff" stroke-width="1" class="highcharts-point"></rect></g><g data-z-index="0.1" class="highcharts-markers highcharts-series-6 highcharts-column-series " transform="translate(73,10) scale(1 1)" clip-path="none"></g><g data-z-index="0.1" class="highcharts-series highcharts-series-7 highcharts-column-series " transform="translate(73,10) scale(1 1)" clip-path="url(#highcharts-56c2t34-413)"><rect x="31.5" y="225.5" width="3" height="10" fill="#556b8d" stroke="#ffffff" stroke-width="1" class="highcharts-point"></rect><rect x="74.5" y="227.5" width="3" height="8" fill="#556b8d" stroke="#ffffff" stroke-width="1" class="highcharts-point"></rect><rect x="117.5" y="226.5" width="3" height="9" fill="#556b8d" stroke="#ffffff" stroke-width="1" class="highcharts-point"></rect><rect x="160.5" y="227.5" width="3" height="8" fill="#556b8d" stroke="#ffffff" stroke-width="1" class="highcharts-point"></rect><rect x="203.5" y="226.5" width="3" height="9" fill="#556b8d" stroke="#ffffff" stroke-width="1" class="highcharts-point"></rect><rect x="246.5" y="226.5" width="3" height="9" fill="#556b8d" stroke="#ffffff" stroke-width="1" class="highcharts-point"></rect><rect x="289.5" y="227.5" width="3" height="8" fill="#556b8d" stroke="#ffffff" stroke-width="1" class="highcharts-point"></rect><rect x="332.5" y="227.5" width="3" height="8" fill="#556b8d" stroke="#ffffff" stroke-width="1" class="highcharts-point"></rect><rect x="375.5" y="227.5" width="3" height="8" fill="#556b8d" stroke="#ffffff" stroke-width="1" class="highcharts-point"></rect><rect x="418.5" y="235.5" width="3" height="0" fill="#556b8d" stroke="#ffffff" stroke-width="1" class="highcharts-point"></rect><rect x="461.5" y="235.5" width="3" height="0" fill="#556b8d" stroke="#ffffff" stroke-width="1" class="highcharts-point"></rect><rect x="504.5" y="235.5" width="3" height="0" fill="#556b8d" stroke="#ffffff" stroke-width="1" class="highcharts-point"></rect></g><g data-z-index="0.1" class="highcharts-markers highcharts-series-7 highcharts-column-series " transform="translate(73,10) scale(1 1)" clip-path="none"></g></g><g class="highcharts-exporting-group" data-z-index="3"></g><text x="300" text-anchor="middle" class="highcharts-title" data-z-index="4" style="color:#333333;font-size:18px;fill:#333333;" y="24"></text><text x="300" text-anchor="middle" class="highcharts-subtitle" data-z-index="4" style="color:#666666;fill:#666666;" y="24"></text><g class="highcharts-legend" data-z-index="7" transform="translate(71,314)"><rect fill="none" class="highcharts-legend-box" rx="0" ry="0" x="0" y="0" width="458" height="71" visibility="visible"></rect><g data-z-index="1"><g><g class="highcharts-legend-item highcharts-column-series highcharts-color-undefined highcharts-series-0" data-z-index="1" transform="translate(8,3)"><text x="21" style="color:#333333;cursor:pointer;font-size:12px;font-weight:bold;fill:#333333;" text-anchor="start" data-z-index="2" y="15"><tspan>OPENO11</tspan></text><rect x="2" y="4" width="12" height="12" fill="#34495e" rx="6" ry="6" class="highcharts-point" data-z-index="3"></rect></g><g class="highcharts-legend-item highcharts-column-series highcharts-color-undefined highcharts-series-1" data-z-index="1" transform="translate(239.453125,3)"><text x="21" y="15" style="color:#333333;cursor:pointer;font-size:12px;font-weight:bold;fill:#333333;" text-anchor="start" data-z-index="2"><tspan>CAMPUS SANPAOLO</tspan></text><rect x="2" y="4" width="12" height="12" fill="#e73c68" rx="6" ry="6" class="highcharts-point" data-z-index="3"></rect></g><g class="highcharts-legend-item highcharts-column-series highcharts-color-undefined highcharts-series-2" data-z-index="1" transform="translate(8,18)"><text x="21" y="15" style="color:#333333;cursor:pointer;font-size:12px;font-weight:bold;fill:#333333;" text-anchor="start" data-z-index="2"><tspan>VILLAGGIO OLIMPICO BARDONECCHIA</tspan></text><rect x="2" y="4" width="12" height="12" fill="#2ecc71" rx="6" ry="6" class="highcharts-point" data-z-index="3"></rect></g><g class="highcharts-legend-item highcharts-column-series highcharts-color-undefined highcharts-series-3" data-z-index="1" transform="translate(239.453125,18)"><text x="21" y="15" style="color:#333333;cursor:pointer;font-size:12px;font-weight:bold;fill:#333333;" text-anchor="start" data-z-index="2"><tspan>CESENATICO</tspan></text><rect x="2" y="4" width="12" height="12" fill="#e74c3c" rx="6" ry="6" class="highcharts-point" data-z-index="3"></rect></g><g class="highcharts-legend-item highcharts-column-series highcharts-color-undefined highcharts-series-4" data-z-index="1" transform="translate(8,33)"><text x="21" y="15" style="color:#333333;cursor:pointer;font-size:12px;font-weight:bold;fill:#333333;" text-anchor="start" data-z-index="2"><tspan>KELUAR</tspan></text><rect x="2" y="4" width="12" height="12" fill="#e67e22" rx="6" ry="6" class="highcharts-point" data-z-index="3"></rect></g><g class="highcharts-legend-item highcharts-column-series highcharts-color-undefined highcharts-series-5" data-z-index="1" transform="translate(239.453125,33)"><text x="21" y="15" style="color:#333333;cursor:pointer;font-size:12px;font-weight:bold;fill:#333333;" text-anchor="start" data-z-index="2"><tspan>SAN PELLEGRINO MISANO ADRIATICO</tspan></text><rect x="2" y="4" width="12" height="12" fill="#3498db" rx="6" ry="6" class="highcharts-point" data-z-index="3"></rect></g><g class="highcharts-legend-item highcharts-column-series highcharts-color-undefined highcharts-series-6" data-z-index="1" transform="translate(8,48)"><text x="21" y="15" style="color:#333333;cursor:pointer;font-size:12px;font-weight:bold;fill:#333333;" text-anchor="start" data-z-index="2"><tspan>SHARING TORINO</tspan></text><rect x="2" y="4" width="12" height="12" fill="#e67e22" rx="6" ry="6" class="highcharts-point" data-z-index="3"></rect></g><g class="highcharts-legend-item highcharts-column-series highcharts-color-undefined highcharts-series-7" data-z-index="1" transform="translate(239.453125,48)"><text x="21" y="15" style="color:#333333;cursor:pointer;font-size:12px;font-weight:bold;fill:#333333;" text-anchor="start" data-z-index="2"><tspan>OSTELLO DI RIVOLI</tspan></text><rect x="2" y="4" width="12" height="12" fill="#556b8d" rx="6" ry="6" class="highcharts-point" data-z-index="3"></rect></g></g></g></g><g class="highcharts-axis-labels highcharts-xaxis-labels " data-z-index="7"><text x="97.134391531014" style="color:#666666;cursor:default;font-size:11px;fill:#666666;" text-anchor="end" transform="translate(0,0) rotate(-45 97.134391531014 261)" y="261" opacity="1">Gennaio</text><text x="140.21772486435404" style="color:#666666;cursor:default;font-size:11px;fill:#666666;" text-anchor="end" transform="translate(0,0) rotate(-45 140.21772486435404 261)" y="261" opacity="1">Febbraio</text><text x="183.30105819768403" style="color:#666666;cursor:default;font-size:11px;fill:#666666;" text-anchor="end" transform="translate(0,0) rotate(-45 183.30105819768403 261)" y="261" opacity="1">Marzo</text><text x="226.38439153101402" style="color:#666666;cursor:default;font-size:11px;fill:#666666;" text-anchor="end" transform="translate(0,0) rotate(-45 226.38439153101402 261)" y="261" opacity="1">Aprile</text><text x="269.46772486435395" style="color:#666666;cursor:default;font-size:11px;fill:#666666;" text-anchor="end" transform="translate(0,0) rotate(-45 269.46772486435395 261)" y="261" opacity="1">Maggio</text><text x="312.551058197684" style="color:#666666;cursor:default;font-size:11px;fill:#666666;" text-anchor="end" transform="translate(0,0) rotate(-45 312.551058197684 261)" y="261" opacity="1">Giugno</text><text x="355.634391531014" style="color:#666666;cursor:default;font-size:11px;fill:#666666;" text-anchor="end" transform="translate(0,0) rotate(-45 355.634391531014 261)" y="261" opacity="1">Luglio</text><text x="398.71772486435395" style="color:#666666;cursor:default;font-size:11px;fill:#666666;" text-anchor="end" transform="translate(0,0) rotate(-45 398.71772486435395 261)" y="261" opacity="1">Agosto</text><text x="441.801058197684" style="color:#666666;cursor:default;font-size:11px;fill:#666666;" text-anchor="end" transform="translate(0,0) rotate(-45 441.801058197684 261)" y="261" opacity="1">Settembre</text><text x="484.884391531014" style="color:#666666;cursor:default;font-size:11px;fill:#666666;" text-anchor="end" transform="translate(0,0) rotate(-45 484.884391531014 261)" y="261" opacity="1">Ottobre</text><text x="527.9677248643541" style="color:#666666;cursor:default;font-size:11px;fill:#666666;" text-anchor="end" transform="translate(0,0) rotate(-45 527.9677248643541 261)" y="261" opacity="1">Novembre</text><text x="571.051058197684" style="color:#666666;cursor:default;font-size:11px;fill:#666666;" text-anchor="end" transform="translate(0,0) rotate(-45 571.051058197684 261)" y="261" opacity="1">Dicembre</text></g><g class="highcharts-axis-labels highcharts-yaxis-labels " data-z-index="7"><text x="58" style="color:#666666;cursor:default;font-size:11px;fill:#666666;" text-anchor="end" transform="translate(0,0)" y="249" opacity="1">0</text><text x="58" style="color:#666666;cursor:default;font-size:11px;fill:#666666;" text-anchor="end" transform="translate(0,0)" y="171" opacity="1">50k</text><text x="58" style="color:#666666;cursor:default;font-size:11px;fill:#666666;" text-anchor="end" transform="translate(0,0)" y="92" opacity="1">100k</text><text x="58" style="color:#666666;cursor:default;font-size:11px;fill:#666666;" text-anchor="end" transform="translate(0,0)" y="14" opacity="1">150k</text></g></svg>