<svg xmlns:xlink="http://www.w3.org/1999/xlink" version="1.1" class="highcharts-root" style="font-family:&quot;Lucida Grande&quot;, &quot;Lucida Sans Unicode&quot;, Arial, Helvetica, sans-serif;font-size:12px;" xmlns="http://www.w3.org/2000/svg" width="600" height="400" viewBox="0 0 600 400"><desc>Created with Highcharts 7.0.1</desc><defs><clipPath id="highcharts-e0sllym-249"><rect x="0" y="0" width="517" height="250" fill="none"></rect></clipPath></defs><rect fill="#ffffff" class="highcharts-background" x="0" y="0" width="600" height="400" rx="0" ry="0"></rect><rect fill="none" class="highcharts-plot-background" x="73" y="10" width="517" height="250"></rect><g class="highcharts-grid highcharts-xaxis-grid " data-z-index="1"><path fill="none" data-z-index="1" class="highcharts-grid-line" d="M 115.5 10 L 115.5 260" opacity="1"></path><path fill="none" data-z-index="1" class="highcharts-grid-line" d="M 158.5 10 L 158.5 260" opacity="1"></path><path fill="none" data-z-index="1" class="highcharts-grid-line" d="M 201.5 10 L 201.5 260" opacity="1"></path><path fill="none" data-z-index="1" class="highcharts-grid-line" d="M 244.5 10 L 244.5 260" opacity="1"></path><path fill="none" data-z-index="1" class="highcharts-grid-line" d="M 287.5 10 L 287.5 260" opacity="1"></path><path fill="none" data-z-index="1" class="highcharts-grid-line" d="M 331.5 10 L 331.5 260" opacity="1"></path><path fill="none" data-z-index="1" class="highcharts-grid-line" d="M 374.5 10 L 374.5 260" opacity="1"></path><path fill="none" data-z-index="1" class="highcharts-grid-line" d="M 417.5 10 L 417.5 260" opacity="1"></path><path fill="none" data-z-index="1" class="highcharts-grid-line" d="M 460.5 10 L 460.5 260" opacity="1"></path><path fill="none" data-z-index="1" class="highcharts-grid-line" d="M 503.5 10 L 503.5 260" opacity="1"></path><path fill="none" data-z-index="1" class="highcharts-grid-line" d="M 546.5 10 L 546.5 260" opacity="1"></path><path fill="none" data-z-index="1" class="highcharts-grid-line" d="M 589.5 10 L 589.5 260" opacity="1"></path><path fill="none" data-z-index="1" class="highcharts-grid-line" d="M 72.5 10 L 72.5 260" opacity="1"></path></g><g class="highcharts-grid highcharts-yaxis-grid " data-z-index="1"><path fill="none" stroke="#e6e6e6" stroke-width="1" data-z-index="1" class="highcharts-grid-line" d="M 73 260.5 L 590 260.5" opacity="1"></path><path fill="none" stroke="#e6e6e6" stroke-width="1" data-z-index="1" class="highcharts-grid-line" d="M 73 177.5 L 590 177.5" opacity="1"></path><path fill="none" stroke="#e6e6e6" stroke-width="1" data-z-index="1" class="highcharts-grid-line" d="M 73 93.5 L 590 93.5" opacity="1"></path><path fill="none" stroke="#e6e6e6" stroke-width="1" data-z-index="1" class="highcharts-grid-line" d="M 73 9.5 L 590 9.5" opacity="1"></path></g><rect fill="none" class="highcharts-plot-border" data-z-index="1" x="73" y="10" width="517" height="250"></rect><g class="highcharts-axis highcharts-xaxis " data-z-index="2"><path fill="none" class="highcharts-tick" stroke="#ccd6eb" stroke-width="1" d="M 115.5 260 L 115.5 270" opacity="1"></path><path fill="none" class="highcharts-tick" stroke="#ccd6eb" stroke-width="1" d="M 158.5 260 L 158.5 270" opacity="1"></path><path fill="none" class="highcharts-tick" stroke="#ccd6eb" stroke-width="1" d="M 201.5 260 L 201.5 270" opacity="1"></path><path fill="none" class="highcharts-tick" stroke="#ccd6eb" stroke-width="1" d="M 244.5 260 L 244.5 270" opacity="1"></path><path fill="none" class="highcharts-tick" stroke="#ccd6eb" stroke-width="1" d="M 287.5 260 L 287.5 270" opacity="1"></path><path fill="none" class="highcharts-tick" stroke="#ccd6eb" stroke-width="1" d="M 331.5 260 L 331.5 270" opacity="1"></path><path fill="none" class="highcharts-tick" stroke="#ccd6eb" stroke-width="1" d="M 374.5 260 L 374.5 270" opacity="1"></path><path fill="none" class="highcharts-tick" stroke="#ccd6eb" stroke-width="1" d="M 417.5 260 L 417.5 270" opacity="1"></path><path fill="none" class="highcharts-tick" stroke="#ccd6eb" stroke-width="1" d="M 460.5 260 L 460.5 270" opacity="1"></path><path fill="none" class="highcharts-tick" stroke="#ccd6eb" stroke-width="1" d="M 503.5 260 L 503.5 270" opacity="1"></path><path fill="none" class="highcharts-tick" stroke="#ccd6eb" stroke-width="1" d="M 546.5 260 L 546.5 270" opacity="1"></path><path fill="none" class="highcharts-tick" stroke="#ccd6eb" stroke-width="1" d="M 590.5 260 L 590.5 270" opacity="1"></path><path fill="none" class="highcharts-tick" stroke="#ccd6eb" stroke-width="1" d="M 72.5 260 L 72.5 270" opacity="1"></path><path fill="none" class="highcharts-axis-line" stroke="#ccd6eb" stroke-width="1" data-z-index="7" d="M 73 260.5 L 590 260.5"></path></g><g class="highcharts-axis highcharts-yaxis " data-z-index="2"><text x="24.609375" data-z-index="7" text-anchor="middle" transform="translate(0,0) rotate(270 24.609375 135)" class="highcharts-axis-title" style="color:#666666;fill:#666666;" y="135"><tspan>Totale</tspan></text><path fill="none" class="highcharts-axis-line" data-z-index="7" d="M 73 10 L 73 260"></path></g><text x="123" y="40" data-z-index="2" style="position:absolute;color:#333333;fill:#333333;"></text><g class="highcharts-series-group" data-z-index="3"><g data-z-index="0.1" class="highcharts-series highcharts-series-0 highcharts-column-series " transform="translate(73,10) scale(1 1)" clip-path="url(#highcharts-e0sllym-249)"><rect x="8.5" y="248.5" width="4" height="2" fill="#34495e" stroke="#ffffff" stroke-width="1" class="highcharts-point"></rect><rect x="51.5" y="248.5" width="4" height="2" fill="#34495e" stroke="#ffffff" stroke-width="1" class="highcharts-point"></rect><rect x="94.5" y="247.5" width="4" height="3" fill="#34495e" stroke="#ffffff" stroke-width="1" class="highcharts-point"></rect><rect x="137.5" y="249.5" width="4" height="1" fill="#34495e" stroke="#ffffff" stroke-width="1" class="highcharts-point"></rect><rect x="180.5" y="250.5" width="4" height="0" fill="#34495e" stroke="#ffffff" stroke-width="1" class="highcharts-point"></rect><rect x="223.5" y="250.5" width="4" height="0" fill="#34495e" stroke="#ffffff" stroke-width="1" class="highcharts-point"></rect><rect x="267.5" y="250.5" width="4" height="0" fill="#34495e" stroke="#ffffff" stroke-width="1" class="highcharts-point"></rect><rect x="310.5" y="249.5" width="4" height="1" fill="#34495e" stroke="#ffffff" stroke-width="1" class="highcharts-point"></rect><rect x="353.5" y="250.5" width="4" height="0" fill="#34495e" stroke="#ffffff" stroke-width="1" class="highcharts-point"></rect><rect x="396.5" y="250.5" width="4" height="0" fill="#34495e" stroke="#ffffff" stroke-width="1" class="highcharts-point"></rect><rect x="439.5" y="248.5" width="4" height="2" fill="#34495e" stroke="#ffffff" stroke-width="1" class="highcharts-point"></rect><rect x="482.5" y="250.5" width="4" height="0" fill="#34495e" stroke="#ffffff" stroke-width="1" class="highcharts-point"></rect></g><g data-z-index="0.1" class="highcharts-markers highcharts-series-0 highcharts-column-series " transform="translate(73,10) scale(1 1)" clip-path="none"></g><g data-z-index="0.1" class="highcharts-series highcharts-series-1 highcharts-column-series " transform="translate(73,10) scale(1 1)" clip-path="url(#highcharts-e0sllym-249)"><rect x="12.5" y="245.5" width="4" height="5" fill="#e73c68" stroke="#ffffff" stroke-width="1" class="highcharts-point"></rect><rect x="55.5" y="245.5" width="4" height="5" fill="#e73c68" stroke="#ffffff" stroke-width="1" class="highcharts-point"></rect><rect x="99.5" y="246.5" width="4" height="4" fill="#e73c68" stroke="#ffffff" stroke-width="1" class="highcharts-point"></rect><rect x="142.5" y="247.5" width="4" height="3" fill="#e73c68" stroke="#ffffff" stroke-width="1" class="highcharts-point"></rect><rect x="185.5" y="246.5" width="4" height="4" fill="#e73c68" stroke="#ffffff" stroke-width="1" class="highcharts-point"></rect><rect x="228.5" y="242.5" width="4" height="8" fill="#e73c68" stroke="#ffffff" stroke-width="1" class="highcharts-point"></rect><rect x="271.5" y="243.5" width="4" height="7" fill="#e73c68" stroke="#ffffff" stroke-width="1" class="highcharts-point"></rect><rect x="314.5" y="244.5" width="4" height="6" fill="#e73c68" stroke="#ffffff" stroke-width="1" class="highcharts-point"></rect><rect x="357.5" y="243.5" width="4" height="7" fill="#e73c68" stroke="#ffffff" stroke-width="1" class="highcharts-point"></rect><rect x="400.5" y="247.5" width="4" height="3" fill="#e73c68" stroke="#ffffff" stroke-width="1" class="highcharts-point"></rect><rect x="443.5" y="250.5" width="4" height="0" fill="#e73c68" stroke="#ffffff" stroke-width="1" class="highcharts-point"></rect><rect x="486.5" y="250.5" width="4" height="0" fill="#e73c68" stroke="#ffffff" stroke-width="1" class="highcharts-point"></rect></g><g data-z-index="0.1" class="highcharts-markers highcharts-series-1 highcharts-column-series " transform="translate(73,10) scale(1 1)" clip-path="none"></g><g data-z-index="0.1" class="highcharts-series highcharts-series-2 highcharts-column-series " transform="translate(73,10) scale(1 1)" clip-path="url(#highcharts-e0sllym-249)"><rect x="17.5" y="13.5" width="4" height="237" fill="#2ecc71" stroke="#ffffff" stroke-width="1" class="highcharts-point"></rect><rect x="60.5" y="69.5" width="4" height="181" fill="#2ecc71" stroke="#ffffff" stroke-width="1" class="highcharts-point"></rect><rect x="103.5" y="116.5" width="4" height="134" fill="#2ecc71" stroke="#ffffff" stroke-width="1" class="highcharts-point"></rect><rect x="146.5" y="226.5" width="4" height="24" fill="#2ecc71" stroke="#ffffff" stroke-width="1" class="highcharts-point"></rect><rect x="189.5" y="226.5" width="4" height="24" fill="#2ecc71" stroke="#ffffff" stroke-width="1" class="highcharts-point"></rect><rect x="232.5" y="212.5" width="4" height="38" fill="#2ecc71" stroke="#ffffff" stroke-width="1" class="highcharts-point"></rect><rect x="275.5" y="212.5" width="4" height="38" fill="#2ecc71" stroke="#ffffff" stroke-width="1" class="highcharts-point"></rect><rect x="318.5" y="210.5" width="4" height="40" fill="#2ecc71" stroke="#ffffff" stroke-width="1" class="highcharts-point"></rect><rect x="361.5" y="210.5" width="4" height="40" fill="#2ecc71" stroke="#ffffff" stroke-width="1" class="highcharts-point"></rect><rect x="404.5" y="224.5" width="4" height="26" fill="#2ecc71" stroke="#ffffff" stroke-width="1" class="highcharts-point"></rect><rect x="447.5" y="250.5" width="4" height="0" fill="#2ecc71" stroke="#ffffff" stroke-width="1" class="highcharts-point"></rect><rect x="491.5" y="250.5" width="4" height="0" fill="#2ecc71" stroke="#ffffff" stroke-width="1" class="highcharts-point"></rect></g><g data-z-index="0.1" class="highcharts-markers highcharts-series-2 highcharts-column-series " transform="translate(73,10) scale(1 1)" clip-path="none"></g><g data-z-index="0.1" class="highcharts-series highcharts-series-3 highcharts-column-series " transform="translate(73,10) scale(1 1)" clip-path="url(#highcharts-e0sllym-249)"><rect x="21.5" y="240.5" width="4" height="10" fill="#e67e22" stroke="#ffffff" stroke-width="1" class="highcharts-point"></rect><rect x="64.5" y="243.5" width="4" height="7" fill="#e67e22" stroke="#ffffff" stroke-width="1" class="highcharts-point"></rect><rect x="107.5" y="245.5" width="4" height="5" fill="#e67e22" stroke="#ffffff" stroke-width="1" class="highcharts-point"></rect><rect x="150.5" y="247.5" width="4" height="3" fill="#e67e22" stroke="#ffffff" stroke-width="1" class="highcharts-point"></rect><rect x="193.5" y="248.5" width="4" height="2" fill="#e67e22" stroke="#ffffff" stroke-width="1" class="highcharts-point"></rect><rect x="236.5" y="249.5" width="4" height="1" fill="#e67e22" stroke="#ffffff" stroke-width="1" class="highcharts-point"></rect><rect x="279.5" y="249.5" width="4" height="1" fill="#e67e22" stroke="#ffffff" stroke-width="1" class="highcharts-point"></rect><rect x="323.5" y="249.5" width="4" height="1" fill="#e67e22" stroke="#ffffff" stroke-width="1" class="highcharts-point"></rect><rect x="366.5" y="248.5" width="4" height="2" fill="#e67e22" stroke="#ffffff" stroke-width="1" class="highcharts-point"></rect><rect x="409.5" y="247.5" width="4" height="3" fill="#e67e22" stroke="#ffffff" stroke-width="1" class="highcharts-point"></rect><rect x="452.5" y="250.5" width="4" height="0" fill="#e67e22" stroke="#ffffff" stroke-width="1" class="highcharts-point"></rect><rect x="495.5" y="250.5" width="4" height="0" fill="#e67e22" stroke="#ffffff" stroke-width="1" class="highcharts-point"></rect></g><g data-z-index="0.1" class="highcharts-markers highcharts-series-3 highcharts-column-series " transform="translate(73,10) scale(1 1)" clip-path="none"></g><g data-z-index="0.1" class="highcharts-series highcharts-series-4 highcharts-column-series " transform="translate(73,10) scale(1 1)" clip-path="url(#highcharts-e0sllym-249)"><rect x="25.5" y="249.5" width="4" height="1" fill="#556b8d" stroke="#ffffff" stroke-width="1" class="highcharts-point"></rect><rect x="68.5" y="249.5" width="4" height="1" fill="#556b8d" stroke="#ffffff" stroke-width="1" class="highcharts-point"></rect><rect x="111.5" y="249.5" width="4" height="1" fill="#556b8d" stroke="#ffffff" stroke-width="1" class="highcharts-point"></rect><rect x="155.5" y="249.5" width="4" height="1" fill="#556b8d" stroke="#ffffff" stroke-width="1" class="highcharts-point"></rect><rect x="198.5" y="250.5" width="4" height="0" fill="#556b8d" stroke="#ffffff" stroke-width="1" class="highcharts-point"></rect><rect x="241.5" y="250.5" width="4" height="0" fill="#556b8d" stroke="#ffffff" stroke-width="1" class="highcharts-point"></rect><rect x="284.5" y="250.5" width="4" height="0" fill="#556b8d" stroke="#ffffff" stroke-width="1" class="highcharts-point"></rect><rect x="327.5" y="250.5" width="4" height="0" fill="#556b8d" stroke="#ffffff" stroke-width="1" class="highcharts-point"></rect><rect x="370.5" y="250.5" width="4" height="0" fill="#556b8d" stroke="#ffffff" stroke-width="1" class="highcharts-point"></rect><rect x="413.5" y="249.5" width="4" height="1" fill="#556b8d" stroke="#ffffff" stroke-width="1" class="highcharts-point"></rect><rect x="456.5" y="250.5" width="4" height="0" fill="#556b8d" stroke="#ffffff" stroke-width="1" class="highcharts-point"></rect><rect x="499.5" y="250.5" width="4" height="0" fill="#556b8d" stroke="#ffffff" stroke-width="1" class="highcharts-point"></rect></g><g data-z-index="0.1" class="highcharts-markers highcharts-series-4 highcharts-column-series " transform="translate(73,10) scale(1 1)" clip-path="none"></g><g data-z-index="0.1" class="highcharts-series highcharts-series-5 highcharts-column-series " transform="translate(73,10) scale(1 1)" clip-path="url(#highcharts-e0sllym-249)"><rect x="30.5" y="250.5" width="4" height="0" fill="#e74c3c" stroke="#ffffff" stroke-width="1" class="highcharts-point"></rect><rect x="73.5" y="250.5" width="4" height="0" fill="#e74c3c" stroke="#ffffff" stroke-width="1" class="highcharts-point"></rect><rect x="116.5" y="250.5" width="4" height="0" fill="#e74c3c" stroke="#ffffff" stroke-width="1" class="highcharts-point"></rect><rect x="159.5" y="250.5" width="4" height="0" fill="#e74c3c" stroke="#ffffff" stroke-width="1" class="highcharts-point"></rect><rect x="202.5" y="249.5" width="4" height="1" fill="#e74c3c" stroke="#ffffff" stroke-width="1" class="highcharts-point"></rect><rect x="245.5" y="246.5" width="4" height="4" fill="#e74c3c" stroke="#ffffff" stroke-width="1" class="highcharts-point"></rect><rect x="288.5" y="241.5" width="4" height="9" fill="#e74c3c" stroke="#ffffff" stroke-width="1" class="highcharts-point"></rect><rect x="331.5" y="243.5" width="4" height="7" fill="#e74c3c" stroke="#ffffff" stroke-width="1" class="highcharts-point"></rect><rect x="374.5" y="246.5" width="4" height="4" fill="#e74c3c" stroke="#ffffff" stroke-width="1" class="highcharts-point"></rect><rect x="417.5" y="248.5" width="4" height="2" fill="#e74c3c" stroke="#ffffff" stroke-width="1" class="highcharts-point"></rect><rect x="460.5" y="250.5" width="4" height="0" fill="#e74c3c" stroke="#ffffff" stroke-width="1" class="highcharts-point"></rect><rect x="504.5" y="250.5" width="4" height="0" fill="#e74c3c" stroke="#ffffff" stroke-width="1" class="highcharts-point"></rect></g><g data-z-index="0.1" class="highcharts-markers highcharts-series-5 highcharts-column-series " transform="translate(73,10) scale(1 1)" clip-path="none"></g></g><g class="highcharts-exporting-group" data-z-index="3"></g><text x="300" text-anchor="middle" class="highcharts-title" data-z-index="4" style="color:#333333;font-size:18px;fill:#333333;" y="24"></text><text x="300" text-anchor="middle" class="highcharts-subtitle" data-z-index="4" style="color:#666666;fill:#666666;" y="24"></text><g class="highcharts-legend" data-z-index="7" transform="translate(106,329)"><rect fill="none" class="highcharts-legend-box" rx="0" ry="0" x="0" y="0" width="388" height="56" visibility="visible"></rect><g data-z-index="1"><g><g class="highcharts-legend-item highcharts-column-series highcharts-color-undefined highcharts-series-0" data-z-index="1" transform="translate(8,3)"><text x="21" style="color:#333333;cursor:pointer;font-size:12px;font-weight:bold;fill:#333333;" text-anchor="start" data-z-index="2" y="15"><tspan>OPENO11</tspan></text><rect x="2" y="4" width="12" height="12" fill="#34495e" rx="6" ry="6" class="highcharts-point" data-z-index="3"></rect></g><g class="highcharts-legend-item highcharts-column-series highcharts-color-undefined highcharts-series-1" data-z-index="1" transform="translate(204.234375,3)"><text x="21" y="15" style="color:#333333;cursor:pointer;font-size:12px;font-weight:bold;fill:#333333;" text-anchor="start" data-z-index="2"><tspan>CAMPUS SANPAOLO</tspan></text><rect x="2" y="4" width="12" height="12" fill="#e73c68" rx="6" ry="6" class="highcharts-point" data-z-index="3"></rect></g><g class="highcharts-legend-item highcharts-column-series highcharts-color-undefined highcharts-series-2" data-z-index="1" transform="translate(8,18)"><text x="21" y="15" style="color:#333333;cursor:pointer;font-size:12px;font-weight:bold;fill:#333333;" text-anchor="start" data-z-index="2"><tspan>Vil. OLIMPICO BARDONECCHIA</tspan></text><rect x="2" y="4" width="12" height="12" fill="#2ecc71" rx="6" ry="6" class="highcharts-point" data-z-index="3"></rect></g><g class="highcharts-legend-item highcharts-column-series highcharts-color-undefined highcharts-series-3" data-z-index="1" transform="translate(204.234375,18)"><text x="21" y="15" style="color:#333333;cursor:pointer;font-size:12px;font-weight:bold;fill:#333333;" text-anchor="start" data-z-index="2"><tspan>SHARING TORINO</tspan></text><rect x="2" y="4" width="12" height="12" fill="#e67e22" rx="6" ry="6" class="highcharts-point" data-z-index="3"></rect></g><g class="highcharts-legend-item highcharts-column-series highcharts-color-undefined highcharts-series-4" data-z-index="1" transform="translate(8,33)"><text x="21" y="15" style="color:#333333;cursor:pointer;font-size:12px;font-weight:bold;fill:#333333;" text-anchor="start" data-z-index="2"><tspan>OSTELLO DI RIVOLI</tspan></text><rect x="2" y="4" width="12" height="12" fill="#556b8d" rx="6" ry="6" class="highcharts-point" data-z-index="3"></rect></g><g class="highcharts-legend-item highcharts-column-series highcharts-color-undefined highcharts-series-5" data-z-index="1" transform="translate(204.234375,33)"><text x="21" y="15" style="color:#333333;cursor:pointer;font-size:12px;font-weight:bold;fill:#333333;" text-anchor="start" data-z-index="2"><tspan>CESENATICO</tspan></text><rect x="2" y="4" width="12" height="12" fill="#e74c3c" rx="6" ry="6" class="highcharts-point" data-z-index="3"></rect></g></g></g></g><g class="highcharts-axis-labels highcharts-xaxis-labels " data-z-index="7"><text x="97.134391531014" style="color:#666666;cursor:default;font-size:11px;fill:#666666;" text-anchor="end" transform="translate(0,0) rotate(-45 97.134391531014 276)" y="276" opacity="1">Gennaio</text><text x="140.21772486435404" style="color:#666666;cursor:default;font-size:11px;fill:#666666;" text-anchor="end" transform="translate(0,0) rotate(-45 140.21772486435404 276)" y="276" opacity="1">Febbraio</text><text x="183.30105819768403" style="color:#666666;cursor:default;font-size:11px;fill:#666666;" text-anchor="end" transform="translate(0,0) rotate(-45 183.30105819768403 276)" y="276" opacity="1">Marzo</text><text x="226.38439153101402" style="color:#666666;cursor:default;font-size:11px;fill:#666666;" text-anchor="end" transform="translate(0,0) rotate(-45 226.38439153101402 276)" y="276" opacity="1">Aprile</text><text x="269.46772486435395" style="color:#666666;cursor:default;font-size:11px;fill:#666666;" text-anchor="end" transform="translate(0,0) rotate(-45 269.46772486435395 276)" y="276" opacity="1">Maggio</text><text x="312.551058197684" style="color:#666666;cursor:default;font-size:11px;fill:#666666;" text-anchor="end" transform="translate(0,0) rotate(-45 312.551058197684 276)" y="276" opacity="1">Giugno</text><text x="355.634391531014" style="color:#666666;cursor:default;font-size:11px;fill:#666666;" text-anchor="end" transform="translate(0,0) rotate(-45 355.634391531014 276)" y="276" opacity="1">Luglio</text><text x="398.71772486435395" style="color:#666666;cursor:default;font-size:11px;fill:#666666;" text-anchor="end" transform="translate(0,0) rotate(-45 398.71772486435395 276)" y="276" opacity="1">Agosto</text><text x="441.801058197684" style="color:#666666;cursor:default;font-size:11px;fill:#666666;" text-anchor="end" transform="translate(0,0) rotate(-45 441.801058197684 276)" y="276" opacity="1">Settembre</text><text x="484.884391531014" style="color:#666666;cursor:default;font-size:11px;fill:#666666;" text-anchor="end" transform="translate(0,0) rotate(-45 484.884391531014 276)" y="276" opacity="1">Ottobre</text><text x="527.9677248643541" style="color:#666666;cursor:default;font-size:11px;fill:#666666;" text-anchor="end" transform="translate(0,0) rotate(-45 527.9677248643541 276)" y="276" opacity="1">Novembre</text><text x="571.051058197684" style="color:#666666;cursor:default;font-size:11px;fill:#666666;" text-anchor="end" transform="translate(0,0) rotate(-45 571.051058197684 276)" y="276" opacity="1">Dicembre</text></g><g class="highcharts-axis-labels highcharts-yaxis-labels " data-z-index="7"><text x="58" style="color:#666666;cursor:default;font-size:11px;fill:#666666;" text-anchor="end" transform="translate(0,0)" y="264" opacity="1">0</text><text x="58" style="color:#666666;cursor:default;font-size:11px;fill:#666666;" text-anchor="end" transform="translate(0,0)" y="181" opacity="1">200k</text><text x="58" style="color:#666666;cursor:default;font-size:11px;fill:#666666;" text-anchor="end" transform="translate(0,0)" y="97" opacity="1">400k</text><text x="58" style="color:#666666;cursor:default;font-size:11px;fill:#666666;" text-anchor="end" transform="translate(0,0)" y="14" opacity="1">600k</text></g></svg>