<svg xmlns:xlink="http://www.w3.org/1999/xlink" version="1.1" class="highcharts-root" style="font-family:&quot;Lucida Grande&quot;, &quot;Lucida Sans Unicode&quot;, Arial, Helvetica, sans-serif;font-size:12px;" xmlns="http://www.w3.org/2000/svg" width="600" height="400" viewBox="0 0 600 400"><desc>Created with Highcharts 7.0.1</desc><defs><clipPath id="highcharts-56c2t34-331"><rect x="0" y="0" width="528" height="250" fill="none"></rect></clipPath></defs><rect fill="#ffffff" class="highcharts-background" x="0" y="0" width="600" height="400" rx="0" ry="0"></rect><rect fill="none" class="highcharts-plot-background" x="62" y="10" width="528" height="250"></rect><g class="highcharts-grid highcharts-xaxis-grid " data-z-index="1"><path fill="none" data-z-index="1" class="highcharts-grid-line" d="M 105.5 10 L 105.5 260" opacity="1"></path><path fill="none" data-z-index="1" class="highcharts-grid-line" d="M 149.5 10 L 149.5 260" opacity="1"></path><path fill="none" data-z-index="1" class="highcharts-grid-line" d="M 193.5 10 L 193.5 260" opacity="1"></path><path fill="none" data-z-index="1" class="highcharts-grid-line" d="M 237.5 10 L 237.5 260" opacity="1"></path><path fill="none" data-z-index="1" class="highcharts-grid-line" d="M 281.5 10 L 281.5 260" opacity="1"></path><path fill="none" data-z-index="1" class="highcharts-grid-line" d="M 325.5 10 L 325.5 260" opacity="1"></path><path fill="none" data-z-index="1" class="highcharts-grid-line" d="M 369.5 10 L 369.5 260" opacity="1"></path><path fill="none" data-z-index="1" class="highcharts-grid-line" d="M 413.5 10 L 413.5 260" opacity="1"></path><path fill="none" data-z-index="1" class="highcharts-grid-line" d="M 457.5 10 L 457.5 260" opacity="1"></path><path fill="none" data-z-index="1" class="highcharts-grid-line" d="M 501.5 10 L 501.5 260" opacity="1"></path><path fill="none" data-z-index="1" class="highcharts-grid-line" d="M 545.5 10 L 545.5 260" opacity="1"></path><path fill="none" data-z-index="1" class="highcharts-grid-line" d="M 589.5 10 L 589.5 260" opacity="1"></path><path fill="none" data-z-index="1" class="highcharts-grid-line" d="M 61.5 10 L 61.5 260" opacity="1"></path></g><g class="highcharts-grid highcharts-yaxis-grid " data-z-index="1"><path fill="none" stroke="#e6e6e6" stroke-width="1" data-z-index="1" class="highcharts-grid-line" d="M 62 260.5 L 590 260.5" opacity="1"></path><path fill="none" stroke="#e6e6e6" stroke-width="1" data-z-index="1" class="highcharts-grid-line" d="M 62 210.5 L 590 210.5" opacity="1"></path><path fill="none" stroke="#e6e6e6" stroke-width="1" data-z-index="1" class="highcharts-grid-line" d="M 62 160.5 L 590 160.5" opacity="1"></path><path fill="none" stroke="#e6e6e6" stroke-width="1" data-z-index="1" class="highcharts-grid-line" d="M 62 110.5 L 590 110.5" opacity="1"></path><path fill="none" stroke="#e6e6e6" stroke-width="1" data-z-index="1" class="highcharts-grid-line" d="M 62 60.5 L 590 60.5" opacity="1"></path><path fill="none" stroke="#e6e6e6" stroke-width="1" data-z-index="1" class="highcharts-grid-line" d="M 62 9.5 L 590 9.5" opacity="1"></path></g><rect fill="none" class="highcharts-plot-border" data-z-index="1" x="62" y="10" width="528" height="250"></rect><g class="highcharts-axis highcharts-xaxis " data-z-index="2"><path fill="none" class="highcharts-tick" stroke="#ccd6eb" stroke-width="1" d="M 105.5 260 L 105.5 270" opacity="1"></path><path fill="none" class="highcharts-tick" stroke="#ccd6eb" stroke-width="1" d="M 149.5 260 L 149.5 270" opacity="1"></path><path fill="none" class="highcharts-tick" stroke="#ccd6eb" stroke-width="1" d="M 193.5 260 L 193.5 270" opacity="1"></path><path fill="none" class="highcharts-tick" stroke="#ccd6eb" stroke-width="1" d="M 237.5 260 L 237.5 270" opacity="1"></path><path fill="none" class="highcharts-tick" stroke="#ccd6eb" stroke-width="1" d="M 281.5 260 L 281.5 270" opacity="1"></path><path fill="none" class="highcharts-tick" stroke="#ccd6eb" stroke-width="1" d="M 325.5 260 L 325.5 270" opacity="1"></path><path fill="none" class="highcharts-tick" stroke="#ccd6eb" stroke-width="1" d="M 369.5 260 L 369.5 270" opacity="1"></path><path fill="none" class="highcharts-tick" stroke="#ccd6eb" stroke-width="1" d="M 413.5 260 L 413.5 270" opacity="1"></path><path fill="none" class="highcharts-tick" stroke="#ccd6eb" stroke-width="1" d="M 457.5 260 L 457.5 270" opacity="1"></path><path fill="none" class="highcharts-tick" stroke="#ccd6eb" stroke-width="1" d="M 501.5 260 L 501.5 270" opacity="1"></path><path fill="none" class="highcharts-tick" stroke="#ccd6eb" stroke-width="1" d="M 545.5 260 L 545.5 270" opacity="1"></path><path fill="none" class="highcharts-tick" stroke="#ccd6eb" stroke-width="1" d="M 590.5 260 L 590.5 270" opacity="1"></path><path fill="none" class="highcharts-tick" stroke="#ccd6eb" stroke-width="1" d="M 61.5 260 L 61.5 270" opacity="1"></path><path fill="none" class="highcharts-axis-line" stroke="#ccd6eb" stroke-width="1" data-z-index="7" d="M 62 260.5 L 590 260.5"></path></g><g class="highcharts-axis highcharts-yaxis " data-z-index="2"><text x="24.546875" data-z-index="7" text-anchor="middle" transform="translate(0,0) rotate(270 24.546875 135)" class="highcharts-axis-title" style="color:#666666;fill:#666666;" y="135"><tspan>Totale</tspan></text><path fill="none" class="highcharts-axis-line" data-z-index="7" d="M 62 10 L 62 260"></path></g><text x="112" y="40" data-z-index="2" style="position:absolute;color:#333333;fill:#333333;"></text><g class="highcharts-series-group" data-z-index="3"><g data-z-index="0.1" class="highcharts-series highcharts-series-0 highcharts-column-series " transform="translate(62,10) scale(1 1)" clip-path="url(#highcharts-56c2t34-331)"><rect x="8.5" y="241.5" width="4" height="9" fill="#34495e" stroke="#ffffff" stroke-width="1" class="highcharts-point"></rect><rect x="52.5" y="236.5" width="4" height="14" fill="#34495e" stroke="#ffffff" stroke-width="1" class="highcharts-point"></rect><rect x="96.5" y="233.5" width="4" height="17" fill="#34495e" stroke="#ffffff" stroke-width="1" class="highcharts-point"></rect><rect x="140.5" y="233.5" width="4" height="17" fill="#34495e" stroke="#ffffff" stroke-width="1" class="highcharts-point"></rect><rect x="184.5" y="236.5" width="4" height="14" fill="#34495e" stroke="#ffffff" stroke-width="1" class="highcharts-point"></rect><rect x="228.5" y="239.5" width="4" height="11" fill="#34495e" stroke="#ffffff" stroke-width="1" class="highcharts-point"></rect><rect x="272.5" y="239.5" width="4" height="11" fill="#34495e" stroke="#ffffff" stroke-width="1" class="highcharts-point"></rect><rect x="316.5" y="238.5" width="4" height="12" fill="#34495e" stroke="#ffffff" stroke-width="1" class="highcharts-point"></rect><rect x="360.5" y="238.5" width="4" height="12" fill="#34495e" stroke="#ffffff" stroke-width="1" class="highcharts-point"></rect><rect x="404.5" y="250.5" width="4" height="0" fill="#34495e" stroke="#ffffff" stroke-width="1" class="highcharts-point"></rect><rect x="448.5" y="250.5" width="4" height="0" fill="#34495e" stroke="#ffffff" stroke-width="1" class="highcharts-point"></rect><rect x="492.5" y="250.5" width="4" height="0" fill="#34495e" stroke="#ffffff" stroke-width="1" class="highcharts-point"></rect></g><g data-z-index="0.1" class="highcharts-markers highcharts-series-0 highcharts-column-series " transform="translate(62,10) scale(1 1)" clip-path="none"></g><g data-z-index="0.1" class="highcharts-series highcharts-series-1 highcharts-column-series " transform="translate(62,10) scale(1 1)" clip-path="url(#highcharts-56c2t34-331)"><rect x="13.5" y="126.5" width="4" height="124" fill="#e73c68" stroke="#ffffff" stroke-width="1" class="highcharts-point"></rect><rect x="57.5" y="138.5" width="4" height="112" fill="#e73c68" stroke="#ffffff" stroke-width="1" class="highcharts-point"></rect><rect x="101.5" y="126.5" width="4" height="124" fill="#e73c68" stroke="#ffffff" stroke-width="1" class="highcharts-point"></rect><rect x="145.5" y="134.5" width="4" height="116" fill="#e73c68" stroke="#ffffff" stroke-width="1" class="highcharts-point"></rect><rect x="189.5" y="130.5" width="4" height="120" fill="#e73c68" stroke="#ffffff" stroke-width="1" class="highcharts-point"></rect><rect x="233.5" y="134.5" width="4" height="116" fill="#e73c68" stroke="#ffffff" stroke-width="1" class="highcharts-point"></rect><rect x="277.5" y="182.5" width="4" height="68" fill="#e73c68" stroke="#ffffff" stroke-width="1" class="highcharts-point"></rect><rect x="321.5" y="182.5" width="4" height="68" fill="#e73c68" stroke="#ffffff" stroke-width="1" class="highcharts-point"></rect><rect x="365.5" y="182.5" width="4" height="68" fill="#e73c68" stroke="#ffffff" stroke-width="1" class="highcharts-point"></rect><rect x="409.5" y="250.5" width="4" height="0" fill="#e73c68" stroke="#ffffff" stroke-width="1" class="highcharts-point"></rect><rect x="453.5" y="250.5" width="4" height="0" fill="#e73c68" stroke="#ffffff" stroke-width="1" class="highcharts-point"></rect><rect x="497.5" y="250.5" width="4" height="0" fill="#e73c68" stroke="#ffffff" stroke-width="1" class="highcharts-point"></rect></g><g data-z-index="0.1" class="highcharts-markers highcharts-series-1 highcharts-column-series " transform="translate(62,10) scale(1 1)" clip-path="none"></g><g data-z-index="0.1" class="highcharts-series highcharts-series-2 highcharts-column-series " transform="translate(62,10) scale(1 1)" clip-path="url(#highcharts-56c2t34-331)"><rect x="17.5" y="184.5" width="4" height="66" fill="#2ecc71" stroke="#ffffff" stroke-width="1" class="highcharts-point"></rect><rect x="61.5" y="184.5" width="4" height="66" fill="#2ecc71" stroke="#ffffff" stroke-width="1" class="highcharts-point"></rect><rect x="105.5" y="190.5" width="4" height="60" fill="#2ecc71" stroke="#ffffff" stroke-width="1" class="highcharts-point"></rect><rect x="149.5" y="184.5" width="4" height="66" fill="#2ecc71" stroke="#ffffff" stroke-width="1" class="highcharts-point"></rect><rect x="193.5" y="159.5" width="4" height="91" fill="#2ecc71" stroke="#ffffff" stroke-width="1" class="highcharts-point"></rect><rect x="237.5" y="45.5" width="4" height="205" fill="#2ecc71" stroke="#ffffff" stroke-width="1" class="highcharts-point"></rect><rect x="281.5" y="51.5" width="4" height="199" fill="#2ecc71" stroke="#ffffff" stroke-width="1" class="highcharts-point"></rect><rect x="325.5" y="45.5" width="4" height="205" fill="#2ecc71" stroke="#ffffff" stroke-width="1" class="highcharts-point"></rect><rect x="369.5" y="45.5" width="4" height="205" fill="#2ecc71" stroke="#ffffff" stroke-width="1" class="highcharts-point"></rect><rect x="413.5" y="141.5" width="4" height="109" fill="#2ecc71" stroke="#ffffff" stroke-width="1" class="highcharts-point"></rect><rect x="457.5" y="250.5" width="4" height="0" fill="#2ecc71" stroke="#ffffff" stroke-width="1" class="highcharts-point"></rect><rect x="501.5" y="250.5" width="4" height="0" fill="#2ecc71" stroke="#ffffff" stroke-width="1" class="highcharts-point"></rect></g><g data-z-index="0.1" class="highcharts-markers highcharts-series-2 highcharts-column-series " transform="translate(62,10) scale(1 1)" clip-path="none"></g><g data-z-index="0.1" class="highcharts-series highcharts-series-3 highcharts-column-series " transform="translate(62,10) scale(1 1)" clip-path="url(#highcharts-56c2t34-331)"><rect x="21.5" y="157.5" width="4" height="93" fill="#e67e22" stroke="#ffffff" stroke-width="1" class="highcharts-point"></rect><rect x="65.5" y="166.5" width="4" height="84" fill="#e67e22" stroke="#ffffff" stroke-width="1" class="highcharts-point"></rect><rect x="109.5" y="158.5" width="4" height="92" fill="#e67e22" stroke="#ffffff" stroke-width="1" class="highcharts-point"></rect><rect x="153.5" y="164.5" width="4" height="86" fill="#e67e22" stroke="#ffffff" stroke-width="1" class="highcharts-point"></rect><rect x="197.5" y="161.5" width="4" height="89" fill="#e67e22" stroke="#ffffff" stroke-width="1" class="highcharts-point"></rect><rect x="241.5" y="164.5" width="4" height="86" fill="#e67e22" stroke="#ffffff" stroke-width="1" class="highcharts-point"></rect><rect x="285.5" y="161.5" width="4" height="89" fill="#e67e22" stroke="#ffffff" stroke-width="1" class="highcharts-point"></rect><rect x="329.5" y="161.5" width="4" height="89" fill="#e67e22" stroke="#ffffff" stroke-width="1" class="highcharts-point"></rect><rect x="373.5" y="164.5" width="4" height="86" fill="#e67e22" stroke="#ffffff" stroke-width="1" class="highcharts-point"></rect><rect x="417.5" y="250.5" width="4" height="0" fill="#e67e22" stroke="#ffffff" stroke-width="1" class="highcharts-point"></rect><rect x="461.5" y="250.5" width="4" height="0" fill="#e67e22" stroke="#ffffff" stroke-width="1" class="highcharts-point"></rect><rect x="505.5" y="250.5" width="4" height="0" fill="#e67e22" stroke="#ffffff" stroke-width="1" class="highcharts-point"></rect></g><g data-z-index="0.1" class="highcharts-markers highcharts-series-3 highcharts-column-series " transform="translate(62,10) scale(1 1)" clip-path="none"></g><g data-z-index="0.1" class="highcharts-series highcharts-series-4 highcharts-column-series " transform="translate(62,10) scale(1 1)" clip-path="url(#highcharts-56c2t34-331)"><rect x="26.5" y="245.5" width="4" height="5" fill="#e74c3c" stroke="#ffffff" stroke-width="1" class="highcharts-point"></rect><rect x="70.5" y="243.5" width="4" height="7" fill="#e74c3c" stroke="#ffffff" stroke-width="1" class="highcharts-point"></rect><rect x="114.5" y="245.5" width="4" height="5" fill="#e74c3c" stroke="#ffffff" stroke-width="1" class="highcharts-point"></rect><rect x="158.5" y="244.5" width="4" height="6" fill="#e74c3c" stroke="#ffffff" stroke-width="1" class="highcharts-point"></rect><rect x="202.5" y="219.5" width="4" height="31" fill="#e74c3c" stroke="#ffffff" stroke-width="1" class="highcharts-point"></rect><rect x="246.5" y="50.5" width="4" height="200" fill="#e74c3c" stroke="#ffffff" stroke-width="1" class="highcharts-point"></rect><rect x="290.5" y="31.5" width="4" height="219" fill="#e74c3c" stroke="#ffffff" stroke-width="1" class="highcharts-point"></rect><rect x="334.5" y="243.5" width="4" height="7" fill="#e74c3c" stroke="#ffffff" stroke-width="1" class="highcharts-point"></rect><rect x="378.5" y="230.5" width="4" height="20" fill="#e74c3c" stroke="#ffffff" stroke-width="1" class="highcharts-point"></rect><rect x="422.5" y="250.5" width="4" height="0" fill="#e74c3c" stroke="#ffffff" stroke-width="1" class="highcharts-point"></rect><rect x="466.5" y="250.5" width="4" height="0" fill="#e74c3c" stroke="#ffffff" stroke-width="1" class="highcharts-point"></rect><rect x="510.5" y="250.5" width="4" height="0" fill="#e74c3c" stroke="#ffffff" stroke-width="1" class="highcharts-point"></rect></g><g data-z-index="0.1" class="highcharts-markers highcharts-series-4 highcharts-column-series " transform="translate(62,10) scale(1 1)" clip-path="none"></g><g data-z-index="0.1" class="highcharts-series highcharts-series-5 highcharts-column-series " transform="translate(62,10) scale(1 1)" clip-path="url(#highcharts-56c2t34-331)"><rect x="30.5" y="188.5" width="4" height="62" fill="#3498db" stroke="#ffffff" stroke-width="1" class="highcharts-point"></rect><rect x="74.5" y="194.5" width="4" height="56" fill="#3498db" stroke="#ffffff" stroke-width="1" class="highcharts-point"></rect><rect x="118.5" y="190.5" width="4" height="60" fill="#3498db" stroke="#ffffff" stroke-width="1" class="highcharts-point"></rect><rect x="162.5" y="188.5" width="4" height="62" fill="#3498db" stroke="#ffffff" stroke-width="1" class="highcharts-point"></rect><rect x="206.5" y="190.5" width="4" height="60" fill="#3498db" stroke="#ffffff" stroke-width="1" class="highcharts-point"></rect><rect x="250.5" y="181.5" width="4" height="69" fill="#3498db" stroke="#ffffff" stroke-width="1" class="highcharts-point"></rect><rect x="294.5" y="226.5" width="4" height="24" fill="#3498db" stroke="#ffffff" stroke-width="1" class="highcharts-point"></rect><rect x="338.5" y="227.5" width="4" height="23" fill="#3498db" stroke="#ffffff" stroke-width="1" class="highcharts-point"></rect><rect x="382.5" y="226.5" width="4" height="24" fill="#3498db" stroke="#ffffff" stroke-width="1" class="highcharts-point"></rect><rect x="426.5" y="250.5" width="4" height="0" fill="#3498db" stroke="#ffffff" stroke-width="1" class="highcharts-point"></rect><rect x="470.5" y="250.5" width="4" height="0" fill="#3498db" stroke="#ffffff" stroke-width="1" class="highcharts-point"></rect><rect x="514.5" y="250.5" width="4" height="0" fill="#3498db" stroke="#ffffff" stroke-width="1" class="highcharts-point"></rect></g><g data-z-index="0.1" class="highcharts-markers highcharts-series-5 highcharts-column-series " transform="translate(62,10) scale(1 1)" clip-path="none"></g></g><g class="highcharts-exporting-group" data-z-index="3"></g><text x="300" text-anchor="middle" class="highcharts-title" data-z-index="4" style="color:#333333;font-size:18px;fill:#333333;" y="24"></text><text x="300" text-anchor="middle" class="highcharts-subtitle" data-z-index="4" style="color:#666666;fill:#666666;" y="24"></text><g class="highcharts-legend" data-z-index="7" transform="translate(71,329)"><rect fill="none" class="highcharts-legend-box" rx="0" ry="0" x="0" y="0" width="458" height="56" visibility="visible"></rect><g data-z-index="1"><g><g class="highcharts-legend-item highcharts-column-series highcharts-color-undefined highcharts-series-0" data-z-index="1" transform="translate(8,3)"><text x="21" style="color:#333333;cursor:pointer;font-size:12px;font-weight:bold;fill:#333333;" text-anchor="start" data-z-index="2" y="15"><tspan>OPENO11</tspan></text><rect x="2" y="4" width="12" height="12" fill="#34495e" rx="6" ry="6" class="highcharts-point" data-z-index="3"></rect></g><g class="highcharts-legend-item highcharts-column-series highcharts-color-undefined highcharts-series-1" data-z-index="1" transform="translate(239.453125,3)"><text x="21" y="15" style="color:#333333;cursor:pointer;font-size:12px;font-weight:bold;fill:#333333;" text-anchor="start" data-z-index="2"><tspan>CAMPUS SANPAOLO</tspan></text><rect x="2" y="4" width="12" height="12" fill="#e73c68" rx="6" ry="6" class="highcharts-point" data-z-index="3"></rect></g><g class="highcharts-legend-item highcharts-column-series highcharts-color-undefined highcharts-series-2" data-z-index="1" transform="translate(8,18)"><text x="21" y="15" style="color:#333333;cursor:pointer;font-size:12px;font-weight:bold;fill:#333333;" text-anchor="start" data-z-index="2"><tspan>VILLAGGIO OLIMPICO BARDONECCHIA</tspan></text><rect x="2" y="4" width="12" height="12" fill="#2ecc71" rx="6" ry="6" class="highcharts-point" data-z-index="3"></rect></g><g class="highcharts-legend-item highcharts-column-series highcharts-color-undefined highcharts-series-3" data-z-index="1" transform="translate(239.453125,18)"><text x="21" y="15" style="color:#333333;cursor:pointer;font-size:12px;font-weight:bold;fill:#333333;" text-anchor="start" data-z-index="2"><tspan>SHARING TORINO</tspan></text><rect x="2" y="4" width="12" height="12" fill="#e67e22" rx="6" ry="6" class="highcharts-point" data-z-index="3"></rect></g><g class="highcharts-legend-item highcharts-column-series highcharts-color-undefined highcharts-series-4" data-z-index="1" transform="translate(8,33)"><text x="21" y="15" style="color:#333333;cursor:pointer;font-size:12px;font-weight:bold;fill:#333333;" text-anchor="start" data-z-index="2"><tspan>CESENATICO</tspan></text><rect x="2" y="4" width="12" height="12" fill="#e74c3c" rx="6" ry="6" class="highcharts-point" data-z-index="3"></rect></g><g class="highcharts-legend-item highcharts-column-series highcharts-color-undefined highcharts-series-5" data-z-index="1" transform="translate(239.453125,33)"><text x="21" y="15" style="color:#333333;cursor:pointer;font-size:12px;font-weight:bold;fill:#333333;" text-anchor="start" data-z-index="2"><tspan>SAN PELLEGRINO MISANO ADRIATICO</tspan></text><rect x="2" y="4" width="12" height="12" fill="#3498db" rx="6" ry="6" class="highcharts-point" data-z-index="3"></rect></g></g></g></g><g class="highcharts-axis-labels highcharts-xaxis-labels " data-z-index="7"><text x="86.59272486435067" style="color:#666666;cursor:default;font-size:11px;fill:#666666;" text-anchor="end" transform="translate(0,0) rotate(-45 86.59272486435067 276)" y="276" opacity="1">Gennaio</text><text x="130.59272486435069" style="color:#666666;cursor:default;font-size:11px;fill:#666666;" text-anchor="end" transform="translate(0,0) rotate(-45 130.59272486435069 276)" y="276" opacity="1">Febbraio</text><text x="174.59272486435069" style="color:#666666;cursor:default;font-size:11px;fill:#666666;" text-anchor="end" transform="translate(0,0) rotate(-45 174.59272486435069 276)" y="276" opacity="1">Marzo</text><text x="218.59272486435069" style="color:#666666;cursor:default;font-size:11px;fill:#666666;" text-anchor="end" transform="translate(0,0) rotate(-45 218.59272486435069 276)" y="276" opacity="1">Aprile</text><text x="262.59272486435066" style="color:#666666;cursor:default;font-size:11px;fill:#666666;" text-anchor="end" transform="translate(0,0) rotate(-45 262.59272486435066 276)" y="276" opacity="1">Maggio</text><text x="306.59272486435066" style="color:#666666;cursor:default;font-size:11px;fill:#666666;" text-anchor="end" transform="translate(0,0) rotate(-45 306.59272486435066 276)" y="276" opacity="1">Giugno</text><text x="350.59272486435066" style="color:#666666;cursor:default;font-size:11px;fill:#666666;" text-anchor="end" transform="translate(0,0) rotate(-45 350.59272486435066 276)" y="276" opacity="1">Luglio</text><text x="394.59272486435066" style="color:#666666;cursor:default;font-size:11px;fill:#666666;" text-anchor="end" transform="translate(0,0) rotate(-45 394.59272486435066 276)" y="276" opacity="1">Agosto</text><text x="438.59272486435066" style="color:#666666;cursor:default;font-size:11px;fill:#666666;" text-anchor="end" transform="translate(0,0) rotate(-45 438.59272486435066 276)" y="276" opacity="1">Settembre</text><text x="482.59272486435066" style="color:#666666;cursor:default;font-size:11px;fill:#666666;" text-anchor="end" transform="translate(0,0) rotate(-45 482.59272486435066 276)" y="276" opacity="1">Ottobre</text><text x="526.5927248643507" style="color:#666666;cursor:default;font-size:11px;fill:#666666;" text-anchor="end" transform="translate(0,0) rotate(-45 526.5927248643507 276)" y="276" opacity="1">Novembre</text><text x="570.5927248643507" style="color:#666666;cursor:default;font-size:11px;fill:#666666;" text-anchor="end" transform="translate(0,0) rotate(-45 570.5927248643507 276)" y="276" opacity="1">Dicembre</text></g><g class="highcharts-axis-labels highcharts-yaxis-labels " data-z-index="7"><text x="47" style="color:#666666;cursor:default;font-size:11px;fill:#666666;" text-anchor="end" transform="translate(0,0)" y="264" opacity="1">0</text><text x="47" style="color:#666666;cursor:default;font-size:11px;fill:#666666;" text-anchor="end" transform="translate(0,0)" y="214" opacity="1">1k</text><text x="47" style="color:#666666;cursor:default;font-size:11px;fill:#666666;" text-anchor="end" transform="translate(0,0)" y="164" opacity="1">2k</text><text x="47" style="color:#666666;cursor:default;font-size:11px;fill:#666666;" text-anchor="end" transform="translate(0,0)" y="114" opacity="1">3k</text><text x="47" style="color:#666666;cursor:default;font-size:11px;fill:#666666;" text-anchor="end" transform="translate(0,0)" y="64" opacity="1">4k</text><text x="47" style="color:#666666;cursor:default;font-size:11px;fill:#666666;" text-anchor="end" transform="translate(0,0)" y="14" opacity="1">5k</text></g></svg>