<svg xmlns:xlink="http://www.w3.org/1999/xlink" version="1.1" class="highcharts-root" style="font-family:&quot;Lucida Grande&quot;, &quot;Lucida Sans Unicode&quot;, Arial, Helvetica, sans-serif;font-size:12px;" xmlns="http://www.w3.org/2000/svg" width="600" height="400" viewBox="0 0 600 400"><desc>Created with Highcharts 8.2.2</desc><defs><clipPath id="highcharts-01mghjn-79-"><rect x="0" y="0" width="527" height="280" fill="none"></rect></clipPath></defs><rect fill="#ffffff" class="highcharts-background" x="0" y="0" width="600" height="400" rx="0" ry="0"></rect><rect fill="none" class="highcharts-plot-background" x="63" y="10" width="527" height="280"></rect><g class="highcharts-grid highcharts-xaxis-grid" data-z-index="1"><path fill="none" data-z-index="1" class="highcharts-grid-line" d="M 106.5 10 L 106.5 290" opacity="1"></path><path fill="none" data-z-index="1" class="highcharts-grid-line" d="M 150.5 10 L 150.5 290" opacity="1"></path><path fill="none" data-z-index="1" class="highcharts-grid-line" d="M 194.5 10 L 194.5 290" opacity="1"></path><path fill="none" data-z-index="1" class="highcharts-grid-line" d="M 238.5 10 L 238.5 290" opacity="1"></path><path fill="none" data-z-index="1" class="highcharts-grid-line" d="M 282.5 10 L 282.5 290" opacity="1"></path><path fill="none" data-z-index="1" class="highcharts-grid-line" d="M 326.5 10 L 326.5 290" opacity="1"></path><path fill="none" data-z-index="1" class="highcharts-grid-line" d="M 369.5 10 L 369.5 290" opacity="1"></path><path fill="none" data-z-index="1" class="highcharts-grid-line" d="M 413.5 10 L 413.5 290" opacity="1"></path><path fill="none" data-z-index="1" class="highcharts-grid-line" d="M 457.5 10 L 457.5 290" opacity="1"></path><path fill="none" data-z-index="1" class="highcharts-grid-line" d="M 501.5 10 L 501.5 290" opacity="1"></path><path fill="none" data-z-index="1" class="highcharts-grid-line" d="M 545.5 10 L 545.5 290" opacity="1"></path><path fill="none" data-z-index="1" class="highcharts-grid-line" d="M 589.5 10 L 589.5 290" opacity="1"></path><path fill="none" data-z-index="1" class="highcharts-grid-line" d="M 62.5 10 L 62.5 290" opacity="1"></path></g><g class="highcharts-grid highcharts-yaxis-grid" data-z-index="1"><path fill="none" stroke="#e6e6e6" stroke-width="1" data-z-index="1" class="highcharts-grid-line" d="M 63 290.5 L 590 290.5" opacity="1"></path><path fill="none" stroke="#e6e6e6" stroke-width="1" data-z-index="1" class="highcharts-grid-line" d="M 63 243.5 L 590 243.5" opacity="1"></path><path fill="none" stroke="#e6e6e6" stroke-width="1" data-z-index="1" class="highcharts-grid-line" d="M 63 197.5 L 590 197.5" opacity="1"></path><path fill="none" stroke="#e6e6e6" stroke-width="1" data-z-index="1" class="highcharts-grid-line" d="M 63 150.5 L 590 150.5" opacity="1"></path><path fill="none" stroke="#e6e6e6" stroke-width="1" data-z-index="1" class="highcharts-grid-line" d="M 63 103.5 L 590 103.5" opacity="1"></path><path fill="none" stroke="#e6e6e6" stroke-width="1" data-z-index="1" class="highcharts-grid-line" d="M 63 57.5 L 590 57.5" opacity="1"></path><path fill="none" stroke="#e6e6e6" stroke-width="1" data-z-index="1" class="highcharts-grid-line" d="M 63 9.5 L 590 9.5" opacity="1"></path></g><rect fill="none" class="highcharts-plot-border" data-z-index="1" x="63" y="10" width="527" height="280"></rect><g class="highcharts-axis highcharts-xaxis" data-z-index="2"><path fill="none" class="highcharts-axis-line" stroke="#ccd6eb" stroke-width="1" data-z-index="7" d="M 63 290.5 L 590 290.5"></path></g><g class="highcharts-axis highcharts-yaxis" data-z-index="2"><text x="24.53125" data-z-index="7" text-anchor="middle" transform="translate(0,0) rotate(270 24.53125 150)" class="highcharts-axis-title" style="color:#666666;fill:#666666;" y="150"><tspan>Totale</tspan></text><path fill="none" class="highcharts-axis-line" data-z-index="7" d="M 63 10 L 63 290"></path></g><text x="113" y="40" data-z-index="2" style="position:absolute;color:#333333;fill:#333333;"></text><g class="highcharts-series-group" data-z-index="3"><g class="highcharts-series highcharts-series-0 highcharts-column-series" data-z-index="0.1" opacity="1" transform="translate(63,10) scale(1 1)" clip-path="url(#highcharts-01mghjn-79-)"><rect x="10.5" y="280.5" width="22" height="0" fill="#e74c3c" stroke="#ffffff" stroke-width="1" opacity="1" class="highcharts-point"></rect><rect x="54.5" y="280.5" width="22" height="0" fill="#e74c3c" stroke="#ffffff" stroke-width="1" opacity="1" class="highcharts-point"></rect><rect x="98.5" y="280.5" width="22" height="0" fill="#e74c3c" stroke="#ffffff" stroke-width="1" opacity="1" class="highcharts-point"></rect><rect x="142.5" y="280.5" width="22" height="0" fill="#e74c3c" stroke="#ffffff" stroke-width="1" opacity="1" class="highcharts-point"></rect><rect x="186.5" y="280.5" width="22" height="0" fill="#e74c3c" stroke="#ffffff" stroke-width="1" opacity="1" class="highcharts-point"></rect><rect x="230.5" y="279.5" width="22" height="1" fill="#e74c3c" stroke="#ffffff" stroke-width="1" opacity="1" class="highcharts-point"></rect><rect x="274.5" y="274.5" width="22" height="6" fill="#e74c3c" stroke="#ffffff" stroke-width="1" opacity="1" class="highcharts-point"></rect><rect x="318.5" y="30.5" width="22" height="250" fill="#e74c3c" stroke="#ffffff" stroke-width="1" opacity="1" class="highcharts-point"></rect><rect x="362.5" y="280.5" width="22" height="0" fill="#e74c3c" stroke="#ffffff" stroke-width="1" opacity="1" class="highcharts-point"></rect><rect x="406.5" y="280.5" width="22" height="0" fill="#e74c3c" stroke="#ffffff" stroke-width="1" opacity="1" class="highcharts-point"></rect><rect x="450.5" y="280.5" width="22" height="0" fill="#e74c3c" stroke="#ffffff" stroke-width="1" opacity="1" class="highcharts-point"></rect><rect x="494.5" y="280.5" width="22" height="0" fill="#e74c3c" stroke="#ffffff" stroke-width="1" opacity="1" class="highcharts-point"></rect></g><g class="highcharts-markers highcharts-series-0 highcharts-column-series" data-z-index="0.1" opacity="1" transform="translate(63,10) scale(1 1)" clip-path="none"></g></g><g class="highcharts-exporting-group" data-z-index="3"></g><text x="300" text-anchor="middle" class="highcharts-title" data-z-index="4" style="color:#333333;font-size:18px;fill:#333333;" y="24"></text><text x="300" text-anchor="middle" class="highcharts-subtitle" data-z-index="4" style="color:#666666;fill:#666666;" y="24"></text><text x="10" text-anchor="start" class="highcharts-caption" data-z-index="4" style="color:#666666;fill:#666666;" y="397"></text><g class="highcharts-legend" data-z-index="7" transform="translate(250,359)"><rect fill="none" class="highcharts-legend-box" rx="0" ry="0" x="0" y="0" width="100" height="26" visibility="visible"></rect><g data-z-index="1"><g><g class="highcharts-legend-item highcharts-column-series highcharts-color-undefined highcharts-series-0" data-z-index="1" transform="translate(8,3)"><text x="21" style="color:#333333;cursor:pointer;font-size:12px;font-weight:bold;fill:#333333;" text-anchor="start" data-z-index="2" y="15"><tspan>CESENATICO</tspan></text><rect x="2" y="4" width="12" height="12" fill="#e74c3c" rx="6" ry="6" class="highcharts-point" data-z-index="3"></rect></g></g></g></g><g class="highcharts-axis-labels highcharts-xaxis-labels" data-z-index="7"><text x="87.55105819768734" style="color:#666666;cursor:default;font-size:11px;fill:#666666;" text-anchor="end" transform="translate(0,0) rotate(-45 87.55105819768734 306)" y="306" opacity="1">Gennaio</text><text x="131.46772486434733" style="color:#666666;cursor:default;font-size:11px;fill:#666666;" text-anchor="end" transform="translate(0,0) rotate(-45 131.46772486434733 306)" y="306" opacity="1">Febbraio</text><text x="175.38439153101734" style="color:#666666;cursor:default;font-size:11px;fill:#666666;" text-anchor="end" transform="translate(0,0) rotate(-45 175.38439153101734 306)" y="306" opacity="1">Marzo</text><text x="219.30105819768735" style="color:#666666;cursor:default;font-size:11px;fill:#666666;" text-anchor="end" transform="translate(0,0) rotate(-45 219.30105819768735 306)" y="306" opacity="1">Aprile</text><text x="263.21772486434736" style="color:#666666;cursor:default;font-size:11px;fill:#666666;" text-anchor="end" transform="translate(0,0) rotate(-45 263.21772486434736 306)" y="306" opacity="1">Maggio</text><text x="307.13439153101734" style="color:#666666;cursor:default;font-size:11px;fill:#666666;" text-anchor="end" transform="translate(0,0) rotate(-45 307.13439153101734 306)" y="306" opacity="1">Giugno</text><text x="351.0510581976873" style="color:#666666;cursor:default;font-size:11px;fill:#666666;" text-anchor="end" transform="translate(0,0) rotate(-45 351.0510581976873 306)" y="306" opacity="1">Luglio</text><text x="394.96772486434736" style="color:#666666;cursor:default;font-size:11px;fill:#666666;" text-anchor="end" transform="translate(0,0) rotate(-45 394.96772486434736 306)" y="306" opacity="1">Agosto</text><text x="438.88439153101734" style="color:#666666;cursor:default;font-size:11px;fill:#666666;" text-anchor="end" transform="translate(0,0) rotate(-45 438.88439153101734 306)" y="306" opacity="1">Settembre</text><text x="482.8010581976873" style="color:#666666;cursor:default;font-size:11px;fill:#666666;" text-anchor="end" transform="translate(0,0) rotate(-45 482.8010581976873 306)" y="306" opacity="1">Ottobre</text><text x="526.7177248643472" style="color:#666666;cursor:default;font-size:11px;fill:#666666;" text-anchor="end" transform="translate(0,0) rotate(-45 526.7177248643472 306)" y="306" opacity="1">Novembre</text><text x="570.6343915310173" style="color:#666666;cursor:default;font-size:11px;fill:#666666;" text-anchor="end" transform="translate(0,0) rotate(-45 570.6343915310173 306)" y="306" opacity="1">Dicembre</text></g><g class="highcharts-axis-labels highcharts-yaxis-labels" data-z-index="7"><text x="48" style="color:#666666;cursor:default;font-size:11px;fill:#666666;" text-anchor="end" transform="translate(0,0)" y="294" opacity="1">0</text><text x="48" style="color:#666666;cursor:default;font-size:11px;fill:#666666;" text-anchor="end" transform="translate(0,0)" y="247" opacity="1">1M</text><text x="48" style="color:#666666;cursor:default;font-size:11px;fill:#666666;" text-anchor="end" transform="translate(0,0)" y="201" opacity="1">2M</text><text x="48" style="color:#666666;cursor:default;font-size:11px;fill:#666666;" text-anchor="end" transform="translate(0,0)" y="154" opacity="1">3M</text><text x="48" style="color:#666666;cursor:default;font-size:11px;fill:#666666;" text-anchor="end" transform="translate(0,0)" y="107" opacity="1">4M</text><text x="48" style="color:#666666;cursor:default;font-size:11px;fill:#666666;" text-anchor="end" transform="translate(0,0)" y="61" opacity="1">5M</text><text x="48" style="color:#666666;cursor:default;font-size:11px;fill:#666666;" text-anchor="end" transform="translate(0,0)" y="14" opacity="1">6M</text></g></svg>