<svg xmlns:xlink="http://www.w3.org/1999/xlink" version="1.1" class="highcharts-root" style="font-family: &quot;Lucida Grande&quot;, &quot;Lucida Sans Unicode&quot;, Arial, Helvetica, sans-serif; font-size: 12px;" xmlns="http://www.w3.org/2000/svg" width="600" height="400" viewBox="0 0 600 400" role="img" aria-label=""><desc>Created with Highcharts 10.3.2</desc><defs><clipPath id="highcharts-rij50ib-252-"><rect x="0" y="0" width="517" height="250" fill="none"></rect></clipPath><clipPath id="highcharts-rij50ib-265-"><rect x="0" y="0" width="517" height="250" fill="none"></rect></clipPath></defs><rect fill="#ffffff" class="highcharts-background" x="0" y="0" width="600" height="400" rx="0" ry="0"></rect><rect fill="none" class="highcharts-plot-background" x="73" y="10" width="517" height="250"></rect><g class="highcharts-grid highcharts-xaxis-grid" data-z-index="1"><path fill="none" stroke="#e6e6e6" stroke-width="0" stroke-dasharray="none" data-z-index="1" class="highcharts-grid-line" d="M 115.5 10 L 115.5 260" opacity="1"></path><path fill="none" stroke="#e6e6e6" stroke-width="0" stroke-dasharray="none" data-z-index="1" class="highcharts-grid-line" d="M 158.5 10 L 158.5 260" opacity="1"></path><path fill="none" stroke="#e6e6e6" stroke-width="0" stroke-dasharray="none" data-z-index="1" class="highcharts-grid-line" d="M 201.5 10 L 201.5 260" opacity="1"></path><path fill="none" stroke="#e6e6e6" stroke-width="0" stroke-dasharray="none" data-z-index="1" class="highcharts-grid-line" d="M 244.5 10 L 244.5 260" opacity="1"></path><path fill="none" stroke="#e6e6e6" stroke-width="0" stroke-dasharray="none" data-z-index="1" class="highcharts-grid-line" d="M 287.5 10 L 287.5 260" opacity="1"></path><path fill="none" stroke="#e6e6e6" stroke-width="0" stroke-dasharray="none" data-z-index="1" class="highcharts-grid-line" d="M 330.5 10 L 330.5 260" opacity="1"></path><path fill="none" stroke="#e6e6e6" stroke-width="0" stroke-dasharray="none" data-z-index="1" class="highcharts-grid-line" d="M 374.5 10 L 374.5 260" opacity="1"></path><path fill="none" stroke="#e6e6e6" stroke-width="0" stroke-dasharray="none" data-z-index="1" class="highcharts-grid-line" d="M 417.5 10 L 417.5 260" opacity="1"></path><path fill="none" stroke="#e6e6e6" stroke-width="0" stroke-dasharray="none" data-z-index="1" class="highcharts-grid-line" d="M 460.5 10 L 460.5 260" opacity="1"></path><path fill="none" stroke="#e6e6e6" stroke-width="0" stroke-dasharray="none" data-z-index="1" class="highcharts-grid-line" d="M 503.5 10 L 503.5 260" opacity="1"></path><path fill="none" stroke="#e6e6e6" stroke-width="0" stroke-dasharray="none" data-z-index="1" class="highcharts-grid-line" d="M 546.5 10 L 546.5 260" opacity="1"></path><path fill="none" stroke="#e6e6e6" stroke-width="0" stroke-dasharray="none" data-z-index="1" class="highcharts-grid-line" d="M 589.5 10 L 589.5 260" opacity="1"></path><path fill="none" stroke="#e6e6e6" stroke-width="0" stroke-dasharray="none" data-z-index="1" class="highcharts-grid-line" d="M 72.5 10 L 72.5 260" opacity="1"></path></g><g class="highcharts-grid highcharts-yaxis-grid" data-z-index="1"><path fill="none" stroke="#e6e6e6" stroke-width="1" stroke-dasharray="none" data-z-index="1" class="highcharts-grid-line" d="M 73 260.5 L 590 260.5" opacity="1"></path><path fill="none" stroke="#e6e6e6" stroke-width="1" stroke-dasharray="none" data-z-index="1" class="highcharts-grid-line" d="M 73 177.5 L 590 177.5" opacity="1"></path><path fill="none" stroke="#e6e6e6" stroke-width="1" stroke-dasharray="none" data-z-index="1" class="highcharts-grid-line" d="M 73 93.5 L 590 93.5" opacity="1"></path><path fill="none" stroke="#e6e6e6" stroke-width="1" stroke-dasharray="none" data-z-index="1" class="highcharts-grid-line" d="M 73 9.5 L 590 9.5" opacity="1"></path></g><rect fill="none" class="highcharts-plot-border" data-z-index="1" stroke="#cccccc" stroke-width="0" x="73" y="10" width="517" height="250"></rect><g class="highcharts-axis highcharts-xaxis" data-z-index="2"><path fill="none" class="highcharts-axis-line" stroke="#ccd6eb" stroke-width="1" data-z-index="7" d="M 73 260.5 L 590 260.5"></path></g><g class="highcharts-axis highcharts-yaxis" data-z-index="2"><text x="24.599014282226562" data-z-index="7" text-anchor="middle" transform="translate(0,0) rotate(270 24.599014282226562 135)" class="highcharts-axis-title" style="color: rgb(102, 102, 102); fill: rgb(102, 102, 102);" y="135">Totale</text><path fill="none" class="highcharts-axis-line" stroke="#ccd6eb" stroke-width="0" data-z-index="7" d="M 73 10 L 73 260"></path></g><text x="123" y="40" data-z-index="2" style="position: absolute; color: rgb(51, 51, 51); fill: rgb(51, 51, 51);"></text><g class="highcharts-series-group" data-z-index="3"><g class="highcharts-series highcharts-series-0 highcharts-column-series" data-z-index="0.1" opacity="1" transform="translate(73,10) scale(1 1)" clip-path="url(#highcharts-rij50ib-265-)"><rect x="8.5" y="248.5" width="4" height="2" fill="#34495e" stroke="#ffffff" stroke-width="1" opacity="1" class="highcharts-point"></rect><rect x="51.5" y="248.5" width="4" height="2" fill="#34495e" stroke="#ffffff" stroke-width="1" opacity="1" class="highcharts-point"></rect><rect x="94.5" y="247.5" width="4" height="3" fill="#34495e" stroke="#ffffff" stroke-width="1" opacity="1" class="highcharts-point"></rect><rect x="137.5" y="249.5" width="4" height="1" fill="#34495e" stroke="#ffffff" stroke-width="1" opacity="1" class="highcharts-point"></rect><rect x="180.5" y="250.5" width="4" height="0" fill="#34495e" stroke="#ffffff" stroke-width="1" opacity="1" class="highcharts-point"></rect><rect x="223.5" y="250.5" width="4" height="0" fill="#34495e" stroke="#ffffff" stroke-width="1" opacity="1" class="highcharts-point"></rect><rect x="267.5" y="250.5" width="4" height="0" fill="#34495e" stroke="#ffffff" stroke-width="1" opacity="1" class="highcharts-point"></rect><rect x="310.5" y="249.5" width="4" height="1" fill="#34495e" stroke="#ffffff" stroke-width="1" opacity="1" class="highcharts-point"></rect><rect x="353.5" y="250.5" width="4" height="0" fill="#34495e" stroke="#ffffff" stroke-width="1" opacity="1" class="highcharts-point"></rect><rect x="396.5" y="250.5" width="4" height="0" fill="#34495e" stroke="#ffffff" stroke-width="1" opacity="1" class="highcharts-point"></rect><rect x="439.5" y="248.5" width="4" height="2" fill="#34495e" stroke="#ffffff" stroke-width="1" opacity="1" class="highcharts-point"></rect><rect x="482.5" y="250.5" width="4" height="0" fill="#34495e" stroke="#ffffff" stroke-width="1" opacity="1" class="highcharts-point"></rect></g><g class="highcharts-markers highcharts-series-0 highcharts-column-series" data-z-index="0.1" opacity="1" transform="translate(73,10) scale(1 1)" clip-path="none"></g><g class="highcharts-series highcharts-series-1 highcharts-column-series" data-z-index="0.1" opacity="1" transform="translate(73,10) scale(1 1)" clip-path="url(#highcharts-rij50ib-265-)"><rect x="12.5" y="245.5" width="4" height="5" fill="#3498db" stroke="#ffffff" stroke-width="1" opacity="1" class="highcharts-point"></rect><rect x="55.5" y="245.5" width="4" height="5" fill="#3498db" stroke="#ffffff" stroke-width="1" opacity="1" class="highcharts-point"></rect><rect x="99.5" y="246.5" width="4" height="4" fill="#3498db" stroke="#ffffff" stroke-width="1" opacity="1" class="highcharts-point"></rect><rect x="142.5" y="247.5" width="4" height="3" fill="#3498db" stroke="#ffffff" stroke-width="1" opacity="1" class="highcharts-point"></rect><rect x="185.5" y="246.5" width="4" height="4" fill="#3498db" stroke="#ffffff" stroke-width="1" opacity="1" class="highcharts-point"></rect><rect x="228.5" y="242.5" width="4" height="8" fill="#3498db" stroke="#ffffff" stroke-width="1" opacity="1" class="highcharts-point"></rect><rect x="271.5" y="243.5" width="4" height="7" fill="#3498db" stroke="#ffffff" stroke-width="1" opacity="1" class="highcharts-point"></rect><rect x="314.5" y="244.5" width="4" height="6" fill="#3498db" stroke="#ffffff" stroke-width="1" opacity="1" class="highcharts-point"></rect><rect x="357.5" y="243.5" width="4" height="7" fill="#3498db" stroke="#ffffff" stroke-width="1" opacity="1" class="highcharts-point"></rect><rect x="400.5" y="247.5" width="4" height="3" fill="#3498db" stroke="#ffffff" stroke-width="1" opacity="1" class="highcharts-point"></rect><rect x="443.5" y="246.5" width="4" height="4" fill="#3498db" stroke="#ffffff" stroke-width="1" opacity="1" class="highcharts-point"></rect><rect x="486.5" y="245.5" width="4" height="5" fill="#3498db" stroke="#ffffff" stroke-width="1" opacity="1" class="highcharts-point"></rect></g><g class="highcharts-markers highcharts-series-1 highcharts-column-series" data-z-index="0.1" opacity="1" transform="translate(73,10) scale(1 1)" clip-path="none"></g><g class="highcharts-series highcharts-series-2 highcharts-column-series" data-z-index="0.1" opacity="1" transform="translate(73,10) scale(1 1)" clip-path="url(#highcharts-rij50ib-265-)"><rect x="17.5" y="13.5" width="4" height="237" fill="#3498db" stroke="#ffffff" stroke-width="1" opacity="1" class="highcharts-point"></rect><rect x="60.5" y="69.5" width="4" height="181" fill="#3498db" stroke="#ffffff" stroke-width="1" opacity="1" class="highcharts-point"></rect><rect x="103.5" y="116.5" width="4" height="134" fill="#3498db" stroke="#ffffff" stroke-width="1" opacity="1" class="highcharts-point"></rect><rect x="146.5" y="226.5" width="4" height="24" fill="#3498db" stroke="#ffffff" stroke-width="1" opacity="1" class="highcharts-point"></rect><rect x="189.5" y="226.5" width="4" height="24" fill="#3498db" stroke="#ffffff" stroke-width="1" opacity="1" class="highcharts-point"></rect><rect x="232.5" y="212.5" width="4" height="38" fill="#3498db" stroke="#ffffff" stroke-width="1" opacity="1" class="highcharts-point"></rect><rect x="275.5" y="212.5" width="4" height="38" fill="#3498db" stroke="#ffffff" stroke-width="1" opacity="1" class="highcharts-point"></rect><rect x="318.5" y="210.5" width="4" height="40" fill="#3498db" stroke="#ffffff" stroke-width="1" opacity="1" class="highcharts-point"></rect><rect x="361.5" y="210.5" width="4" height="40" fill="#3498db" stroke="#ffffff" stroke-width="1" opacity="1" class="highcharts-point"></rect><rect x="404.5" y="224.5" width="4" height="26" fill="#3498db" stroke="#ffffff" stroke-width="1" opacity="1" class="highcharts-point"></rect><rect x="447.5" y="250.5" width="4" height="0" fill="#3498db" stroke="#ffffff" stroke-width="1" opacity="1" class="highcharts-point"></rect><rect x="491.5" y="250.5" width="4" height="0" fill="#3498db" stroke="#ffffff" stroke-width="1" opacity="1" class="highcharts-point"></rect></g><g class="highcharts-markers highcharts-series-2 highcharts-column-series" data-z-index="0.1" opacity="1" transform="translate(73,10) scale(1 1)" clip-path="none"></g><g class="highcharts-series highcharts-series-3 highcharts-column-series" data-z-index="0.1" opacity="1" transform="translate(73,10) scale(1 1)" clip-path="url(#highcharts-rij50ib-265-)"><rect x="21.5" y="240.5" width="4" height="10" fill="#3498db" stroke="#ffffff" stroke-width="1" opacity="1" class="highcharts-point"></rect><rect x="64.5" y="243.5" width="4" height="7" fill="#3498db" stroke="#ffffff" stroke-width="1" opacity="1" class="highcharts-point"></rect><rect x="107.5" y="245.5" width="4" height="5" fill="#3498db" stroke="#ffffff" stroke-width="1" opacity="1" class="highcharts-point"></rect><rect x="150.5" y="247.5" width="4" height="3" fill="#3498db" stroke="#ffffff" stroke-width="1" opacity="1" class="highcharts-point"></rect><rect x="193.5" y="248.5" width="4" height="2" fill="#3498db" stroke="#ffffff" stroke-width="1" opacity="1" class="highcharts-point"></rect><rect x="236.5" y="249.5" width="4" height="1" fill="#3498db" stroke="#ffffff" stroke-width="1" opacity="1" class="highcharts-point"></rect><rect x="279.5" y="249.5" width="4" height="1" fill="#3498db" stroke="#ffffff" stroke-width="1" opacity="1" class="highcharts-point"></rect><rect x="323.5" y="249.5" width="4" height="1" fill="#3498db" stroke="#ffffff" stroke-width="1" opacity="1" class="highcharts-point"></rect><rect x="366.5" y="248.5" width="4" height="2" fill="#3498db" stroke="#ffffff" stroke-width="1" opacity="1" class="highcharts-point"></rect><rect x="409.5" y="247.5" width="4" height="3" fill="#3498db" stroke="#ffffff" stroke-width="1" opacity="1" class="highcharts-point"></rect><rect x="452.5" y="250.5" width="4" height="0" fill="#3498db" stroke="#ffffff" stroke-width="1" opacity="1" class="highcharts-point"></rect><rect x="495.5" y="250.5" width="4" height="0" fill="#3498db" stroke="#ffffff" stroke-width="1" opacity="1" class="highcharts-point"></rect></g><g class="highcharts-markers highcharts-series-3 highcharts-column-series" data-z-index="0.1" opacity="1" transform="translate(73,10) scale(1 1)" clip-path="none"></g><g class="highcharts-series highcharts-series-4 highcharts-column-series highcharts-color-0" data-z-index="0.1" opacity="1" transform="translate(73,10) scale(1 1)" clip-path="url(#highcharts-rij50ib-265-)"><rect x="25.5" y="249.5" width="4" height="1" fill="#7cb5ec" stroke="#ffffff" stroke-width="1" opacity="1" class="highcharts-point highcharts-color-0"></rect><rect x="68.5" y="249.5" width="4" height="1" fill="#7cb5ec" stroke="#ffffff" stroke-width="1" opacity="1" class="highcharts-point highcharts-color-0"></rect><rect x="111.5" y="249.5" width="4" height="1" fill="#7cb5ec" stroke="#ffffff" stroke-width="1" opacity="1" class="highcharts-point highcharts-color-0"></rect><rect x="155.5" y="249.5" width="4" height="1" fill="#7cb5ec" stroke="#ffffff" stroke-width="1" opacity="1" class="highcharts-point highcharts-color-0"></rect><rect x="198.5" y="250.5" width="4" height="0" fill="#7cb5ec" stroke="#ffffff" stroke-width="1" opacity="1" class="highcharts-point highcharts-color-0"></rect><rect x="241.5" y="250.5" width="4" height="0" fill="#7cb5ec" stroke="#ffffff" stroke-width="1" opacity="1" class="highcharts-point highcharts-color-0"></rect><rect x="284.5" y="250.5" width="4" height="0" fill="#7cb5ec" stroke="#ffffff" stroke-width="1" opacity="1" class="highcharts-point highcharts-color-0"></rect><rect x="327.5" y="250.5" width="4" height="0" fill="#7cb5ec" stroke="#ffffff" stroke-width="1" opacity="1" class="highcharts-point highcharts-color-0"></rect><rect x="370.5" y="250.5" width="4" height="0" fill="#7cb5ec" stroke="#ffffff" stroke-width="1" opacity="1" class="highcharts-point highcharts-color-0"></rect><rect x="413.5" y="249.5" width="4" height="1" fill="#7cb5ec" stroke="#ffffff" stroke-width="1" opacity="1" class="highcharts-point highcharts-color-0"></rect><rect x="456.5" y="250.5" width="4" height="0" fill="#7cb5ec" stroke="#ffffff" stroke-width="1" opacity="1" class="highcharts-point highcharts-color-0"></rect><rect x="499.5" y="250.5" width="4" height="0" fill="#7cb5ec" stroke="#ffffff" stroke-width="1" opacity="1" class="highcharts-point highcharts-color-0"></rect></g><g class="highcharts-markers highcharts-series-4 highcharts-column-series highcharts-color-0" data-z-index="0.1" opacity="1" transform="translate(73,10) scale(1 1)" clip-path="none"></g><g class="highcharts-series highcharts-series-5 highcharts-column-series" data-z-index="0.1" opacity="1" transform="translate(73,10) scale(1 1)" clip-path="url(#highcharts-rij50ib-265-)"><rect x="30.5" y="250.5" width="4" height="0" fill="#3498db" stroke="#ffffff" stroke-width="1" opacity="1" class="highcharts-point"></rect><rect x="73.5" y="250.5" width="4" height="0" fill="#3498db" stroke="#ffffff" stroke-width="1" opacity="1" class="highcharts-point"></rect><rect x="116.5" y="250.5" width="4" height="0" fill="#3498db" stroke="#ffffff" stroke-width="1" opacity="1" class="highcharts-point"></rect><rect x="159.5" y="250.5" width="4" height="0" fill="#3498db" stroke="#ffffff" stroke-width="1" opacity="1" class="highcharts-point"></rect><rect x="202.5" y="249.5" width="4" height="1" fill="#3498db" stroke="#ffffff" stroke-width="1" opacity="1" class="highcharts-point"></rect><rect x="245.5" y="246.5" width="4" height="4" fill="#3498db" stroke="#ffffff" stroke-width="1" opacity="1" class="highcharts-point"></rect><rect x="288.5" y="241.5" width="4" height="9" fill="#3498db" stroke="#ffffff" stroke-width="1" opacity="1" class="highcharts-point"></rect><rect x="331.5" y="243.5" width="4" height="7" fill="#3498db" stroke="#ffffff" stroke-width="1" opacity="1" class="highcharts-point"></rect><rect x="374.5" y="246.5" width="4" height="4" fill="#3498db" stroke="#ffffff" stroke-width="1" opacity="1" class="highcharts-point"></rect><rect x="417.5" y="248.5" width="4" height="2" fill="#3498db" stroke="#ffffff" stroke-width="1" opacity="1" class="highcharts-point"></rect><rect x="460.5" y="250.5" width="4" height="0" fill="#3498db" stroke="#ffffff" stroke-width="1" opacity="1" class="highcharts-point"></rect><rect x="504.5" y="250.5" width="4" height="0" fill="#3498db" stroke="#ffffff" stroke-width="1" opacity="1" class="highcharts-point"></rect></g><g class="highcharts-markers highcharts-series-5 highcharts-column-series" data-z-index="0.1" opacity="1" transform="translate(73,10) scale(1 1)" clip-path="none"></g></g><g class="highcharts-exporting-group" data-z-index="3"></g><text x="300" text-anchor="middle" class="highcharts-title" data-z-index="4" style="color: rgb(51, 51, 51); font-size: 18px; fill: rgb(51, 51, 51);" y="24"></text><text x="300" text-anchor="middle" class="highcharts-subtitle" data-z-index="4" style="color: rgb(102, 102, 102); fill: rgb(102, 102, 102);" y="24"></text><text x="10" text-anchor="start" class="highcharts-caption" data-z-index="4" style="color: rgb(102, 102, 102); fill: rgb(102, 102, 102);" y="397"></text><g class="highcharts-legend highcharts-no-tooltip" data-z-index="7" transform="translate(61,329)"><rect fill="none" class="highcharts-legend-box" rx="0" ry="0" stroke="#999999" stroke-width="0" x="0" y="0" width="478" height="56"></rect><g data-z-index="1"><g><g class="highcharts-legend-item highcharts-column-series highcharts-color-undefined highcharts-series-0" data-z-index="1" transform="translate(8,3)"><text x="21" text-anchor="start" data-z-index="2" y="15" style="color: rgb(51, 51, 51); cursor: pointer; font-size: 12px; font-weight: bold; fill: rgb(51, 51, 51);">OPENO11</text><rect x="2" y="4" width="12" height="12" fill="#34495e" rx="6" ry="6" class="highcharts-point" data-z-index="3"></rect></g><g class="highcharts-legend-item highcharts-column-series highcharts-color-undefined highcharts-series-1" data-z-index="1" transform="translate(249.12380981445312,3)"><text x="21" y="15" text-anchor="start" data-z-index="2" style="color: rgb(51, 51, 51); cursor: pointer; font-size: 12px; font-weight: bold; fill: rgb(51, 51, 51);">CAMPUS SANPAOLO</text><rect x="2" y="4" width="12" height="12" fill="#3498db" rx="6" ry="6" class="highcharts-point" data-z-index="3"></rect></g><g class="highcharts-legend-item highcharts-column-series highcharts-color-undefined highcharts-series-2" data-z-index="1" transform="translate(8,18)"><text x="21" y="15" text-anchor="start" data-z-index="2" style="color: rgb(51, 51, 51); cursor: pointer; font-size: 12px; font-weight: bold; fill: rgb(51, 51, 51);">VILLAGGIO OLIMPICO BARDONECCHIA</text><rect x="2" y="4" width="12" height="12" fill="#3498db" rx="6" ry="6" class="highcharts-point" data-z-index="3"></rect></g><g class="highcharts-legend-item highcharts-column-series highcharts-color-undefined highcharts-series-3" data-z-index="1" transform="translate(249.12380981445312,18)"><text x="21" y="15" text-anchor="start" data-z-index="2" style="color: rgb(51, 51, 51); cursor: pointer; font-size: 12px; font-weight: bold; fill: rgb(51, 51, 51);">SHARING TORINO</text><rect x="2" y="4" width="12" height="12" fill="#3498db" rx="6" ry="6" class="highcharts-point" data-z-index="3"></rect></g><g class="highcharts-legend-item highcharts-column-series highcharts-color-0 highcharts-series-4" data-z-index="1" transform="translate(8,33)"><text x="21" y="15" text-anchor="start" data-z-index="2" style="color: rgb(51, 51, 51); cursor: pointer; font-size: 12px; font-weight: bold; fill: rgb(51, 51, 51);"></text><rect x="2" y="4" width="12" height="12" fill="#7cb5ec" rx="6" ry="6" class="highcharts-point" data-z-index="3"></rect></g><g class="highcharts-legend-item highcharts-column-series highcharts-color-undefined highcharts-series-5" data-z-index="1" transform="translate(249.12380981445312,33)"><text x="21" y="15" text-anchor="start" data-z-index="2" style="color: rgb(51, 51, 51); cursor: pointer; font-size: 12px; font-weight: bold; fill: rgb(51, 51, 51);">CESENATICO</text><rect x="2" y="4" width="12" height="12" fill="#3498db" rx="6" ry="6" class="highcharts-point" data-z-index="3"></rect></g></g></g></g><g class="highcharts-axis-labels highcharts-xaxis-labels" data-z-index="7"><text x="97.134391531014" text-anchor="end" transform="translate(0,0) rotate(-45 97.134391531014 276)" style="color: rgb(102, 102, 102); cursor: default; font-size: 11px; fill: rgb(102, 102, 102);" y="276" opacity="1">Gennaio</text><text x="140.21772486435404" text-anchor="end" transform="translate(0,0) rotate(-45 140.21772486435404 276)" style="color: rgb(102, 102, 102); cursor: default; font-size: 11px; fill: rgb(102, 102, 102);" y="276" opacity="1">Febbraio</text><text x="183.30105819768403" text-anchor="end" transform="translate(0,0) rotate(-45 183.30105819768403 276)" style="color: rgb(102, 102, 102); cursor: default; font-size: 11px; fill: rgb(102, 102, 102);" y="276" opacity="1">Marzo</text><text x="226.38439153102402" text-anchor="end" transform="translate(0,0) rotate(-45 226.38439153102402 276)" style="color: rgb(102, 102, 102); cursor: default; font-size: 11px; fill: rgb(102, 102, 102);" y="276" opacity="1">Aprile</text><text x="269.46772486435395" text-anchor="end" transform="translate(0,0) rotate(-45 269.46772486435395 276)" style="color: rgb(102, 102, 102); cursor: default; font-size: 11px; fill: rgb(102, 102, 102);" y="276" opacity="1">Maggio</text><text x="312.551058197684" text-anchor="end" transform="translate(0,0) rotate(-45 312.551058197684 276)" style="color: rgb(102, 102, 102); cursor: default; font-size: 11px; fill: rgb(102, 102, 102);" y="276" opacity="1">Giugno</text><text x="355.634391531024" text-anchor="end" transform="translate(0,0) rotate(-45 355.634391531024 276)" style="color: rgb(102, 102, 102); cursor: default; font-size: 11px; fill: rgb(102, 102, 102);" y="276" opacity="1">Luglio</text><text x="398.71772486435395" text-anchor="end" transform="translate(0,0) rotate(-45 398.71772486435395 276)" style="color: rgb(102, 102, 102); cursor: default; font-size: 11px; fill: rgb(102, 102, 102);" y="276" opacity="1">Agosto</text><text x="441.801058197684" text-anchor="end" transform="translate(0,0) rotate(-45 441.801058197684 276)" style="color: rgb(102, 102, 102); cursor: default; font-size: 11px; fill: rgb(102, 102, 102);" y="276" opacity="1">Settembre</text><text x="484.884391531024" text-anchor="end" transform="translate(0,0) rotate(-45 484.884391531024 276)" style="color: rgb(102, 102, 102); cursor: default; font-size: 11px; fill: rgb(102, 102, 102);" y="276" opacity="1">Ottobre</text><text x="527.9677248643541" text-anchor="end" transform="translate(0,0) rotate(-45 527.9677248643541 276)" style="color: rgb(102, 102, 102); cursor: default; font-size: 11px; fill: rgb(102, 102, 102);" y="276" opacity="1">Novembre</text><text x="571.051058197684" text-anchor="end" transform="translate(0,0) rotate(-45 571.051058197684 276)" style="color: rgb(102, 102, 102); cursor: default; font-size: 11px; fill: rgb(102, 102, 102);" y="276" opacity="1">Dicembre</text></g><g class="highcharts-axis-labels highcharts-yaxis-labels" data-z-index="7"><text x="58" text-anchor="end" transform="translate(0,0)" style="color: rgb(102, 102, 102); cursor: default; font-size: 11px; fill: rgb(102, 102, 102);" y="264" opacity="1">0</text><text x="58" text-anchor="end" transform="translate(0,0)" style="color: rgb(102, 102, 102); cursor: default; font-size: 11px; fill: rgb(102, 102, 102);" y="181" opacity="1">200k</text><text x="58" text-anchor="end" transform="translate(0,0)" style="color: rgb(102, 102, 102); cursor: default; font-size: 11px; fill: rgb(102, 102, 102);" y="97" opacity="1">400k</text><text x="58" text-anchor="end" transform="translate(0,0)" style="color: rgb(102, 102, 102); cursor: default; font-size: 11px; fill: rgb(102, 102, 102);" y="14" opacity="1">600k</text></g></svg>