<svg xmlns:xlink="http://www.w3.org/1999/xlink" version="1.1" class="highcharts-root" style="font-family:&quot;Lucida Grande&quot;, &quot;Lucida Sans Unicode&quot;, Arial, Helvetica, sans-serif;font-size:12px;" xmlns="http://www.w3.org/2000/svg" width="600" height="400" viewBox="0 0 600 400"><desc>Created with Highcharts 7.2.0</desc><defs><clipPath id="highcharts-w2gyce9-95-"><rect x="0" y="0" width="513" height="280" fill="none"></rect></clipPath></defs><rect fill="#ffffff" class="highcharts-background" x="0" y="0" width="600" height="400" rx="0" ry="0"></rect><rect fill="none" class="highcharts-plot-background" x="77" y="10" width="513" height="280"></rect><g class="highcharts-grid highcharts-xaxis-grid" data-z-index="1"><path fill="none" data-z-index="1" class="highcharts-grid-line" d="M 119.5 10 L 119.5 290" opacity="1"></path><path fill="none" data-z-index="1" class="highcharts-grid-line" d="M 162.5 10 L 162.5 290" opacity="1"></path><path fill="none" data-z-index="1" class="highcharts-grid-line" d="M 204.5 10 L 204.5 290" opacity="1"></path><path fill="none" data-z-index="1" class="highcharts-grid-line" d="M 247.5 10 L 247.5 290" opacity="1"></path><path fill="none" data-z-index="1" class="highcharts-grid-line" d="M 290.5 10 L 290.5 290" opacity="1"></path><path fill="none" data-z-index="1" class="highcharts-grid-line" d="M 333.5 10 L 333.5 290" opacity="1"></path><path fill="none" data-z-index="1" class="highcharts-grid-line" d="M 375.5 10 L 375.5 290" opacity="1"></path><path fill="none" data-z-index="1" class="highcharts-grid-line" d="M 418.5 10 L 418.5 290" opacity="1"></path><path fill="none" data-z-index="1" class="highcharts-grid-line" d="M 461.5 10 L 461.5 290" opacity="1"></path><path fill="none" data-z-index="1" class="highcharts-grid-line" d="M 504.5 10 L 504.5 290" opacity="1"></path><path fill="none" data-z-index="1" class="highcharts-grid-line" d="M 546.5 10 L 546.5 290" opacity="1"></path><path fill="none" data-z-index="1" class="highcharts-grid-line" d="M 589.5 10 L 589.5 290" opacity="1"></path><path fill="none" data-z-index="1" class="highcharts-grid-line" d="M 76.5 10 L 76.5 290" opacity="1"></path></g><g class="highcharts-grid highcharts-yaxis-grid" data-z-index="1"><path fill="none" stroke="#e6e6e6" stroke-width="1" data-z-index="1" class="highcharts-grid-line" d="M 77 290.5 L 590 290.5" opacity="1"></path><path fill="none" stroke="#e6e6e6" stroke-width="1" data-z-index="1" class="highcharts-grid-line" d="M 77 234.5 L 590 234.5" opacity="1"></path><path fill="none" stroke="#e6e6e6" stroke-width="1" data-z-index="1" class="highcharts-grid-line" d="M 77 178.5 L 590 178.5" opacity="1"></path><path fill="none" stroke="#e6e6e6" stroke-width="1" data-z-index="1" class="highcharts-grid-line" d="M 77 122.5 L 590 122.5" opacity="1"></path><path fill="none" stroke="#e6e6e6" stroke-width="1" data-z-index="1" class="highcharts-grid-line" d="M 77 66.5 L 590 66.5" opacity="1"></path><path fill="none" stroke="#e6e6e6" stroke-width="1" data-z-index="1" class="highcharts-grid-line" d="M 77 9.5 L 590 9.5" opacity="1"></path></g><rect fill="none" class="highcharts-plot-border" data-z-index="1" x="77" y="10" width="513" height="280"></rect><g class="highcharts-axis highcharts-xaxis" data-z-index="2"><path fill="none" class="highcharts-axis-line" stroke="#ccd6eb" stroke-width="1" data-z-index="7" d="M 77 290.5 L 590 290.5"></path></g><g class="highcharts-axis highcharts-yaxis" data-z-index="2"><text x="25.515625" data-z-index="7" text-anchor="middle" transform="translate(0,0) rotate(270 25.515625 150)" class="highcharts-axis-title" style="color:#666666;fill:#666666;" y="150"><tspan>Totale</tspan></text><path fill="none" class="highcharts-axis-line" data-z-index="7" d="M 77 10 L 77 290"></path></g><text x="127" y="40" data-z-index="2" style="position:absolute;color:#333333;fill:#333333;"></text><g class="highcharts-series-group" data-z-index="3"><g data-z-index="0.1" class="highcharts-series highcharts-series-0 highcharts-column-series " transform="translate(77,10) scale(1 1)" clip-path="url(#highcharts-w2gyce9-95-)"><rect x="9.5" y="89.5" width="11" height="191" fill="#e73c68" stroke="#ffffff" stroke-width="1" opacity="1" class="highcharts-point"></rect><rect x="52.5" y="78.5" width="11" height="202" fill="#e73c68" stroke="#ffffff" stroke-width="1" opacity="1" class="highcharts-point"></rect><rect x="94.5" y="46.5" width="11" height="234" fill="#e73c68" stroke="#ffffff" stroke-width="1" opacity="1" class="highcharts-point"></rect><rect x="137.5" y="72.5" width="11" height="208" fill="#e73c68" stroke="#ffffff" stroke-width="1" opacity="1" class="highcharts-point"></rect><rect x="180.5" y="89.5" width="11" height="191" fill="#e73c68" stroke="#ffffff" stroke-width="1" opacity="1" class="highcharts-point"></rect><rect x="223.5" y="171.5" width="11" height="109" fill="#e73c68" stroke="#ffffff" stroke-width="1" opacity="1" class="highcharts-point"></rect><rect x="265.5" y="182.5" width="11" height="98" fill="#e73c68" stroke="#ffffff" stroke-width="1" opacity="1" class="highcharts-point"></rect><rect x="308.5" y="233.5" width="11" height="47" fill="#e73c68" stroke="#ffffff" stroke-width="1" opacity="1" class="highcharts-point"></rect><rect x="351.5" y="201.5" width="11" height="79" fill="#e73c68" stroke="#ffffff" stroke-width="1" opacity="1" class="highcharts-point"></rect><rect x="394.5" y="165.5" width="11" height="115" fill="#e73c68" stroke="#ffffff" stroke-width="1" opacity="1" class="highcharts-point"></rect><rect x="436.5" y="156.5" width="11" height="124" fill="#e73c68" stroke="#ffffff" stroke-width="1" opacity="1" class="highcharts-point"></rect><rect x="479.5" y="35.5" width="11" height="245" fill="#e73c68" stroke="#ffffff" stroke-width="1" opacity="1" class="highcharts-point"></rect></g><g data-z-index="0.1" class="highcharts-markers highcharts-series-0 highcharts-column-series " transform="translate(77,10) scale(1 1)" clip-path="none"></g><g data-z-index="0.1" class="highcharts-series highcharts-series-1 highcharts-column-series " transform="translate(77,10) scale(1 1)" clip-path="url(#highcharts-w2gyce9-95-)"><rect x="22.5" y="206.5" width="11" height="74" fill="#34495e" stroke="#ffffff" stroke-width="1" opacity="1" class="highcharts-point"></rect><rect x="64.5" y="263.5" width="11" height="17" fill="#34495e" stroke="#ffffff" stroke-width="1" opacity="1" class="highcharts-point"></rect><rect x="107.5" y="151.5" width="11" height="129" fill="#34495e" stroke="#ffffff" stroke-width="1" opacity="1" class="highcharts-point"></rect><rect x="150.5" y="206.5" width="11" height="74" fill="#34495e" stroke="#ffffff" stroke-width="1" opacity="1" class="highcharts-point"></rect><rect x="193.5" y="256.5" width="11" height="24" fill="#34495e" stroke="#ffffff" stroke-width="1" opacity="1" class="highcharts-point"></rect><rect x="235.5" y="261.5" width="11" height="19" fill="#34495e" stroke="#ffffff" stroke-width="1" opacity="1" class="highcharts-point"></rect><rect x="278.5" y="262.5" width="11" height="18" fill="#34495e" stroke="#ffffff" stroke-width="1" opacity="1" class="highcharts-point"></rect><rect x="321.5" y="260.5" width="11" height="20" fill="#34495e" stroke="#ffffff" stroke-width="1" opacity="1" class="highcharts-point"></rect><rect x="364.5" y="257.5" width="11" height="23" fill="#34495e" stroke="#ffffff" stroke-width="1" opacity="1" class="highcharts-point"></rect><rect x="406.5" y="212.5" width="11" height="68" fill="#34495e" stroke="#ffffff" stroke-width="1" opacity="1" class="highcharts-point"></rect><rect x="449.5" y="155.5" width="11" height="125" fill="#34495e" stroke="#ffffff" stroke-width="1" opacity="1" class="highcharts-point"></rect><rect x="492.5" y="97.5" width="11" height="183" fill="#34495e" stroke="#ffffff" stroke-width="1" opacity="1" class="highcharts-point"></rect></g><g data-z-index="0.1" class="highcharts-markers highcharts-series-1 highcharts-column-series " transform="translate(77,10) scale(1 1)" clip-path="none"></g></g><g class="highcharts-exporting-group" data-z-index="3"></g><text x="300" text-anchor="middle" class="highcharts-title" data-z-index="4" style="color:#333333;font-size:18px;fill:#333333;" y="24"></text><text x="300" text-anchor="middle" class="highcharts-subtitle" data-z-index="4" style="color:#666666;fill:#666666;" y="24"></text><text x="10" text-anchor="start" class="highcharts-caption" data-z-index="4" style="color:#666666;fill:#666666;" y="397"></text><g class="highcharts-legend" data-z-index="7" transform="translate(187,359)"><rect fill="none" class="highcharts-legend-box" rx="0" ry="0" x="0" y="0" width="226" height="26" visibility="visible"></rect><g data-z-index="1"><g><g class="highcharts-legend-item highcharts-column-series highcharts-color-undefined highcharts-series-0" data-z-index="1" transform="translate(8,3)"><text x="21" style="color:#333333;cursor:pointer;font-size:12px;font-weight:bold;fill:#333333;" text-anchor="start" data-z-index="2" y="15"><tspan>CAMPUS SANPAOLO</tspan></text><rect x="2" y="4" width="12" height="12" fill="#e73c68" rx="6" ry="6" class="highcharts-point" data-z-index="3"></rect></g><g class="highcharts-legend-item highcharts-column-series highcharts-color-undefined highcharts-series-1" data-z-index="1" transform="translate(149.125,3)"><text x="21" y="15" style="color:#333333;cursor:pointer;font-size:12px;font-weight:bold;fill:#333333;" text-anchor="start" data-z-index="2"><tspan>OPENO11</tspan></text><rect x="2" y="4" width="12" height="12" fill="#34495e" rx="6" ry="6" class="highcharts-point" data-z-index="3"></rect></g></g></g></g><g class="highcharts-axis-labels highcharts-xaxis-labels" data-z-index="7"><text x="100.96772486435067" style="color:#666666;cursor:default;font-size:11px;fill:#666666;" text-anchor="end" transform="translate(0,0) rotate(-45 100.96772486435067 306)" y="306" opacity="1">Gennaio</text><text x="143.71772486435069" style="color:#666666;cursor:default;font-size:11px;fill:#666666;" text-anchor="end" transform="translate(0,0) rotate(-45 143.71772486435069 306)" y="306" opacity="1">Febbraio</text><text x="186.46772486435069" style="color:#666666;cursor:default;font-size:11px;fill:#666666;" text-anchor="end" transform="translate(0,0) rotate(-45 186.46772486435069 306)" y="306" opacity="1">Marzo</text><text x="229.21772486435069" style="color:#666666;cursor:default;font-size:11px;fill:#666666;" text-anchor="end" transform="translate(0,0) rotate(-45 229.21772486435069 306)" y="306" opacity="1">Aprile</text><text x="271.96772486435066" style="color:#666666;cursor:default;font-size:11px;fill:#666666;" text-anchor="end" transform="translate(0,0) rotate(-45 271.96772486435066 306)" y="306" opacity="1">Maggio</text><text x="314.71772486435066" style="color:#666666;cursor:default;font-size:11px;fill:#666666;" text-anchor="end" transform="translate(0,0) rotate(-45 314.71772486435066 306)" y="306" opacity="1">Giugno</text><text x="357.46772486435066" style="color:#666666;cursor:default;font-size:11px;fill:#666666;" text-anchor="end" transform="translate(0,0) rotate(-45 357.46772486435066 306)" y="306" opacity="1">Luglio</text><text x="400.21772486435066" style="color:#666666;cursor:default;font-size:11px;fill:#666666;" text-anchor="end" transform="translate(0,0) rotate(-45 400.21772486435066 306)" y="306" opacity="1">Agosto</text><text x="442.96772486435066" style="color:#666666;cursor:default;font-size:11px;fill:#666666;" text-anchor="end" transform="translate(0,0) rotate(-45 442.96772486435066 306)" y="306" opacity="1">Settembre</text><text x="485.71772486435066" style="color:#666666;cursor:default;font-size:11px;fill:#666666;" text-anchor="end" transform="translate(0,0) rotate(-45 485.71772486435066 306)" y="306" opacity="1">Ottobre</text><text x="528.4677248643507" style="color:#666666;cursor:default;font-size:11px;fill:#666666;" text-anchor="end" transform="translate(0,0) rotate(-45 528.4677248643507 306)" y="306" opacity="1">Novembre</text><text x="571.2177248643507" style="color:#666666;cursor:default;font-size:11px;fill:#666666;" text-anchor="end" transform="translate(0,0) rotate(-45 571.2177248643507 306)" y="306" opacity="1">Dicembre</text></g><g class="highcharts-axis-labels highcharts-yaxis-labels" data-z-index="7"><text x="62" style="color:#666666;cursor:default;font-size:11px;fill:#666666;" text-anchor="end" transform="translate(0,0)" y="294" opacity="1">0</text><text x="62" style="color:#666666;cursor:default;font-size:11px;fill:#666666;" text-anchor="end" transform="translate(0,0)" y="238" opacity="1">2.5k</text><text x="62" style="color:#666666;cursor:default;font-size:11px;fill:#666666;" text-anchor="end" transform="translate(0,0)" y="182" opacity="1">5k</text><text x="62" style="color:#666666;cursor:default;font-size:11px;fill:#666666;" text-anchor="end" transform="translate(0,0)" y="126" opacity="1">7.5k</text><text x="62" style="color:#666666;cursor:default;font-size:11px;fill:#666666;" text-anchor="end" transform="translate(0,0)" y="70" opacity="1">10k</text><text x="62" style="color:#666666;cursor:default;font-size:11px;fill:#666666;" text-anchor="end" transform="translate(0,0)" y="14" opacity="1">12.5k</text></g></svg>