<svg xmlns:xlink="http://www.w3.org/1999/xlink" version="1.1" class="highcharts-root" style="font-family:&quot;Lucida Grande&quot;, &quot;Lucida Sans Unicode&quot;, Arial, Helvetica, sans-serif;font-size:12px;" xmlns="http://www.w3.org/2000/svg" width="600" height="400" viewBox="0 0 600 400"><desc>Created with Highcharts 7.2.0</desc><defs><clipPath id="highcharts-w2gyce9-185-"><rect x="0" y="0" width="523" height="280" fill="none"></rect></clipPath></defs><rect fill="#ffffff" class="highcharts-background" x="0" y="0" width="600" height="400" rx="0" ry="0"></rect><rect fill="none" class="highcharts-plot-background" x="67" y="10" width="523" height="280"></rect><g class="highcharts-grid highcharts-xaxis-grid" data-z-index="1"><path fill="none" data-z-index="1" class="highcharts-grid-line" d="M 110.5 10 L 110.5 290" opacity="1"></path><path fill="none" data-z-index="1" class="highcharts-grid-line" d="M 153.5 10 L 153.5 290" opacity="1"></path><path fill="none" data-z-index="1" class="highcharts-grid-line" d="M 197.5 10 L 197.5 290" opacity="1"></path><path fill="none" data-z-index="1" class="highcharts-grid-line" d="M 240.5 10 L 240.5 290" opacity="1"></path><path fill="none" data-z-index="1" class="highcharts-grid-line" d="M 284.5 10 L 284.5 290" opacity="1"></path><path fill="none" data-z-index="1" class="highcharts-grid-line" d="M 328.5 10 L 328.5 290" opacity="1"></path><path fill="none" data-z-index="1" class="highcharts-grid-line" d="M 371.5 10 L 371.5 290" opacity="1"></path><path fill="none" data-z-index="1" class="highcharts-grid-line" d="M 415.5 10 L 415.5 290" opacity="1"></path><path fill="none" data-z-index="1" class="highcharts-grid-line" d="M 458.5 10 L 458.5 290" opacity="1"></path><path fill="none" data-z-index="1" class="highcharts-grid-line" d="M 502.5 10 L 502.5 290" opacity="1"></path><path fill="none" data-z-index="1" class="highcharts-grid-line" d="M 545.5 10 L 545.5 290" opacity="1"></path><path fill="none" data-z-index="1" class="highcharts-grid-line" d="M 589.5 10 L 589.5 290" opacity="1"></path><path fill="none" data-z-index="1" class="highcharts-grid-line" d="M 66.5 10 L 66.5 290" opacity="1"></path></g><g class="highcharts-grid highcharts-yaxis-grid" data-z-index="1"><path fill="none" stroke="#e6e6e6" stroke-width="1" data-z-index="1" class="highcharts-grid-line" d="M 67 290.5 L 590 290.5" opacity="1"></path><path fill="none" stroke="#e6e6e6" stroke-width="1" data-z-index="1" class="highcharts-grid-line" d="M 67 243.5 L 590 243.5" opacity="1"></path><path fill="none" stroke="#e6e6e6" stroke-width="1" data-z-index="1" class="highcharts-grid-line" d="M 67 197.5 L 590 197.5" opacity="1"></path><path fill="none" stroke="#e6e6e6" stroke-width="1" data-z-index="1" class="highcharts-grid-line" d="M 67 150.5 L 590 150.5" opacity="1"></path><path fill="none" stroke="#e6e6e6" stroke-width="1" data-z-index="1" class="highcharts-grid-line" d="M 67 103.5 L 590 103.5" opacity="1"></path><path fill="none" stroke="#e6e6e6" stroke-width="1" data-z-index="1" class="highcharts-grid-line" d="M 67 57.5 L 590 57.5" opacity="1"></path><path fill="none" stroke="#e6e6e6" stroke-width="1" data-z-index="1" class="highcharts-grid-line" d="M 67 9.5 L 590 9.5" opacity="1"></path></g><rect fill="none" class="highcharts-plot-border" data-z-index="1" x="67" y="10" width="523" height="280"></rect><g class="highcharts-axis highcharts-xaxis" data-z-index="2"><path fill="none" class="highcharts-axis-line" stroke="#ccd6eb" stroke-width="1" data-z-index="7" d="M 67 290.5 L 590 290.5"></path></g><g class="highcharts-axis highcharts-yaxis" data-z-index="2"><text x="25.59375" data-z-index="7" text-anchor="middle" transform="translate(0,0) rotate(270 25.59375 150)" class="highcharts-axis-title" style="color:#666666;fill:#666666;" y="150"><tspan>Totale</tspan></text><path fill="none" class="highcharts-axis-line" data-z-index="7" d="M 67 10 L 67 290"></path></g><text x="117" y="40" data-z-index="2" style="position:absolute;color:#333333;fill:#333333;"></text><g class="highcharts-series-group" data-z-index="3"><g data-z-index="0.1" class="highcharts-series highcharts-series-0 highcharts-column-series " transform="translate(67,10) scale(1 1)" clip-path="url(#highcharts-w2gyce9-185-)"><rect x="10.5" y="149.5" width="21" height="131" fill="#34495e" stroke="#ffffff" stroke-width="1" opacity="1" class="highcharts-point"></rect><rect x="54.5" y="280.5" width="21" height="0" fill="#34495e" stroke="#ffffff" stroke-width="1" opacity="1" class="highcharts-point"></rect><rect x="97.5" y="56.5" width="21" height="224" fill="#34495e" stroke="#ffffff" stroke-width="1" opacity="1" class="highcharts-point"></rect><rect x="141.5" y="75.5" width="21" height="205" fill="#34495e" stroke="#ffffff" stroke-width="1" opacity="1" class="highcharts-point"></rect><rect x="185.5" y="149.5" width="21" height="131" fill="#34495e" stroke="#ffffff" stroke-width="1" opacity="1" class="highcharts-point"></rect><rect x="228.5" y="280.5" width="21" height="0" fill="#34495e" stroke="#ffffff" stroke-width="1" opacity="1" class="highcharts-point"></rect><rect x="272.5" y="112.5" width="21" height="168" fill="#34495e" stroke="#ffffff" stroke-width="1" opacity="1" class="highcharts-point"></rect><rect x="315.5" y="280.5" width="21" height="0" fill="#34495e" stroke="#ffffff" stroke-width="1" opacity="1" class="highcharts-point"></rect><rect x="359.5" y="280.5" width="21" height="0" fill="#34495e" stroke="#ffffff" stroke-width="1" opacity="1" class="highcharts-point"></rect><rect x="403.5" y="112.5" width="21" height="168" fill="#34495e" stroke="#ffffff" stroke-width="1" opacity="1" class="highcharts-point"></rect><rect x="446.5" y="280.5" width="21" height="0" fill="#34495e" stroke="#ffffff" stroke-width="1" opacity="1" class="highcharts-point"></rect><rect x="490.5" y="280.5" width="21" height="0" fill="#34495e" stroke="#ffffff" stroke-width="1" opacity="1" class="highcharts-point"></rect></g><g data-z-index="0.1" class="highcharts-markers highcharts-series-0 highcharts-column-series " transform="translate(67,10) scale(1 1)" clip-path="none"></g></g><g class="highcharts-exporting-group" data-z-index="3"></g><text x="300" text-anchor="middle" class="highcharts-title" data-z-index="4" style="color:#333333;font-size:18px;fill:#333333;" y="24"></text><text x="300" text-anchor="middle" class="highcharts-subtitle" data-z-index="4" style="color:#666666;fill:#666666;" y="24"></text><text x="10" text-anchor="start" class="highcharts-caption" data-z-index="4" style="color:#666666;fill:#666666;" y="397"></text><g class="highcharts-legend" data-z-index="7" transform="translate(257,359)"><rect fill="none" class="highcharts-legend-box" rx="0" ry="0" x="0" y="0" width="85" height="26" visibility="visible"></rect><g data-z-index="1"><g><g class="highcharts-legend-item highcharts-column-series highcharts-color-undefined highcharts-series-0" data-z-index="1" transform="translate(8,3)"><text x="21" style="color:#333333;cursor:pointer;font-size:12px;font-weight:bold;fill:#333333;" text-anchor="start" data-z-index="2" y="15"><tspan>OPENO11</tspan></text><rect x="2" y="4" width="12" height="12" fill="#34495e" rx="6" ry="6" class="highcharts-point" data-z-index="3"></rect></g></g></g></g><g class="highcharts-axis-labels highcharts-xaxis-labels" data-z-index="7"><text x="91.384391531014" style="color:#666666;cursor:default;font-size:11px;fill:#666666;" text-anchor="end" transform="translate(0,0) rotate(-45 91.384391531014 306)" y="306" opacity="1">Gennaio</text><text x="134.96772486435404" style="color:#666666;cursor:default;font-size:11px;fill:#666666;" text-anchor="end" transform="translate(0,0) rotate(-45 134.96772486435404 306)" y="306" opacity="1">Febbraio</text><text x="178.55105819768403" style="color:#666666;cursor:default;font-size:11px;fill:#666666;" text-anchor="end" transform="translate(0,0) rotate(-45 178.55105819768403 306)" y="306" opacity="1">Marzo</text><text x="222.13439153101402" style="color:#666666;cursor:default;font-size:11px;fill:#666666;" text-anchor="end" transform="translate(0,0) rotate(-45 222.13439153101402 306)" y="306" opacity="1">Aprile</text><text x="265.71772486435395" style="color:#666666;cursor:default;font-size:11px;fill:#666666;" text-anchor="end" transform="translate(0,0) rotate(-45 265.71772486435395 306)" y="306" opacity="1">Maggio</text><text x="309.301058197684" style="color:#666666;cursor:default;font-size:11px;fill:#666666;" text-anchor="end" transform="translate(0,0) rotate(-45 309.301058197684 306)" y="306" opacity="1">Giugno</text><text x="352.884391531014" style="color:#666666;cursor:default;font-size:11px;fill:#666666;" text-anchor="end" transform="translate(0,0) rotate(-45 352.884391531014 306)" y="306" opacity="1">Luglio</text><text x="396.46772486435395" style="color:#666666;cursor:default;font-size:11px;fill:#666666;" text-anchor="end" transform="translate(0,0) rotate(-45 396.46772486435395 306)" y="306" opacity="1">Agosto</text><text x="440.051058197684" style="color:#666666;cursor:default;font-size:11px;fill:#666666;" text-anchor="end" transform="translate(0,0) rotate(-45 440.051058197684 306)" y="306" opacity="1">Settembre</text><text x="483.634391531014" style="color:#666666;cursor:default;font-size:11px;fill:#666666;" text-anchor="end" transform="translate(0,0) rotate(-45 483.634391531014 306)" y="306" opacity="1">Ottobre</text><text x="527.2177248643541" style="color:#666666;cursor:default;font-size:11px;fill:#666666;" text-anchor="end" transform="translate(0,0) rotate(-45 527.2177248643541 306)" y="306" opacity="1">Novembre</text><text x="570.801058197684" style="color:#666666;cursor:default;font-size:11px;fill:#666666;" text-anchor="end" transform="translate(0,0) rotate(-45 570.801058197684 306)" y="306" opacity="1">Dicembre</text></g><g class="highcharts-axis-labels highcharts-yaxis-labels" data-z-index="7"><text x="52" style="color:#666666;cursor:default;font-size:11px;fill:#666666;" text-anchor="end" transform="translate(0,0)" y="294" opacity="1">0</text><text x="52" style="color:#666666;cursor:default;font-size:11px;fill:#666666;" text-anchor="end" transform="translate(0,0)" y="247" opacity="1">25</text><text x="52" style="color:#666666;cursor:default;font-size:11px;fill:#666666;" text-anchor="end" transform="translate(0,0)" y="201" opacity="1">50</text><text x="52" style="color:#666666;cursor:default;font-size:11px;fill:#666666;" text-anchor="end" transform="translate(0,0)" y="154" opacity="1">75</text><text x="52" style="color:#666666;cursor:default;font-size:11px;fill:#666666;" text-anchor="end" transform="translate(0,0)" y="107" opacity="1">100</text><text x="52" style="color:#666666;cursor:default;font-size:11px;fill:#666666;" text-anchor="end" transform="translate(0,0)" y="61" opacity="1">125</text><text x="52" style="color:#666666;cursor:default;font-size:11px;fill:#666666;" text-anchor="end" transform="translate(0,0)" y="14" opacity="1">150</text></g></svg>