<svg xmlns:xlink="http://www.w3.org/1999/xlink" version="1.1" class="highcharts-root" style="font-family:&quot;Lucida Grande&quot;, &quot;Lucida Sans Unicode&quot;, Arial, Helvetica, sans-serif;font-size:12px;" xmlns="http://www.w3.org/2000/svg" width="600" height="400" viewBox="0 0 600 400"><desc>Created with Highcharts 8.2.2</desc><defs><clipPath id="highcharts-kv646e4-93-"><rect x="0" y="0" width="528" height="280" fill="none"></rect></clipPath></defs><rect fill="#ffffff" class="highcharts-background" x="0" y="0" width="600" height="400" rx="0" ry="0"></rect><rect fill="none" class="highcharts-plot-background" x="62" y="10" width="528" height="280"></rect><g class="highcharts-grid highcharts-xaxis-grid" data-z-index="1"><path fill="none" data-z-index="1" class="highcharts-grid-line" d="M 105.5 10 L 105.5 290" opacity="1"></path><path fill="none" data-z-index="1" class="highcharts-grid-line" d="M 149.5 10 L 149.5 290" opacity="1"></path><path fill="none" data-z-index="1" class="highcharts-grid-line" d="M 193.5 10 L 193.5 290" opacity="1"></path><path fill="none" data-z-index="1" class="highcharts-grid-line" d="M 237.5 10 L 237.5 290" opacity="1"></path><path fill="none" data-z-index="1" class="highcharts-grid-line" d="M 281.5 10 L 281.5 290" opacity="1"></path><path fill="none" data-z-index="1" class="highcharts-grid-line" d="M 325.5 10 L 325.5 290" opacity="1"></path><path fill="none" data-z-index="1" class="highcharts-grid-line" d="M 369.5 10 L 369.5 290" opacity="1"></path><path fill="none" data-z-index="1" class="highcharts-grid-line" d="M 413.5 10 L 413.5 290" opacity="1"></path><path fill="none" data-z-index="1" class="highcharts-grid-line" d="M 457.5 10 L 457.5 290" opacity="1"></path><path fill="none" data-z-index="1" class="highcharts-grid-line" d="M 501.5 10 L 501.5 290" opacity="1"></path><path fill="none" data-z-index="1" class="highcharts-grid-line" d="M 545.5 10 L 545.5 290" opacity="1"></path><path fill="none" data-z-index="1" class="highcharts-grid-line" d="M 589.5 10 L 589.5 290" opacity="1"></path><path fill="none" data-z-index="1" class="highcharts-grid-line" d="M 61.5 10 L 61.5 290" opacity="1"></path></g><g class="highcharts-grid highcharts-yaxis-grid" data-z-index="1"><path fill="none" stroke="#e6e6e6" stroke-width="1" data-z-index="1" class="highcharts-grid-line" d="M 62 290.5 L 590 290.5" opacity="1"></path><path fill="none" stroke="#e6e6e6" stroke-width="1" data-z-index="1" class="highcharts-grid-line" d="M 62 234.5 L 590 234.5" opacity="1"></path><path fill="none" stroke="#e6e6e6" stroke-width="1" data-z-index="1" class="highcharts-grid-line" d="M 62 178.5 L 590 178.5" opacity="1"></path><path fill="none" stroke="#e6e6e6" stroke-width="1" data-z-index="1" class="highcharts-grid-line" d="M 62 122.5 L 590 122.5" opacity="1"></path><path fill="none" stroke="#e6e6e6" stroke-width="1" data-z-index="1" class="highcharts-grid-line" d="M 62 66.5 L 590 66.5" opacity="1"></path><path fill="none" stroke="#e6e6e6" stroke-width="1" data-z-index="1" class="highcharts-grid-line" d="M 62 9.5 L 590 9.5" opacity="1"></path></g><rect fill="none" class="highcharts-plot-border" data-z-index="1" x="62" y="10" width="528" height="280"></rect><g class="highcharts-axis highcharts-xaxis" data-z-index="2"><path fill="none" class="highcharts-axis-line" stroke="#ccd6eb" stroke-width="1" data-z-index="7" d="M 62 290.5 L 590 290.5"></path></g><g class="highcharts-axis highcharts-yaxis" data-z-index="2"><text x="24.53125" data-z-index="7" text-anchor="middle" transform="translate(0,0) rotate(270 24.53125 150)" class="highcharts-axis-title" style="color:#666666;fill:#666666;" y="150"><tspan>Totale</tspan></text><path fill="none" class="highcharts-axis-line" data-z-index="7" d="M 62 10 L 62 290"></path></g><text x="112" y="40" data-z-index="2" style="position:absolute;color:#333333;fill:#333333;"></text><g class="highcharts-series-group" data-z-index="3"><g class="highcharts-series highcharts-series-0 highcharts-column-series" data-z-index="0.1" opacity="1" transform="translate(62,10) scale(1 1)" clip-path="url(#highcharts-kv646e4-93-)"><rect x="9.5" y="173.5" width="11" height="107" fill="#e73c68" stroke="#ffffff" stroke-width="1" opacity="1" class="highcharts-point"></rect><rect x="53.5" y="112.5" width="11" height="168" fill="#e73c68" stroke="#ffffff" stroke-width="1" opacity="1" class="highcharts-point"></rect><rect x="97.5" y="160.5" width="11" height="120" fill="#e73c68" stroke="#ffffff" stroke-width="1" opacity="1" class="highcharts-point"></rect><rect x="141.5" y="149.5" width="11" height="131" fill="#e73c68" stroke="#ffffff" stroke-width="1" opacity="1" class="highcharts-point"></rect><rect x="185.5" y="152.5" width="11" height="128" fill="#e73c68" stroke="#ffffff" stroke-width="1" opacity="1" class="highcharts-point"></rect><rect x="229.5" y="143.5" width="11" height="137" fill="#e73c68" stroke="#ffffff" stroke-width="1" opacity="1" class="highcharts-point"></rect><rect x="273.5" y="127.5" width="11" height="153" fill="#e73c68" stroke="#ffffff" stroke-width="1" opacity="1" class="highcharts-point"></rect><rect x="317.5" y="177.5" width="11" height="103" fill="#e73c68" stroke="#ffffff" stroke-width="1" opacity="1" class="highcharts-point"></rect><rect x="361.5" y="141.5" width="11" height="139" fill="#e73c68" stroke="#ffffff" stroke-width="1" opacity="1" class="highcharts-point"></rect><rect x="405.5" y="61.5" width="11" height="219" fill="#e73c68" stroke="#ffffff" stroke-width="1" opacity="1" class="highcharts-point"></rect><rect x="449.5" y="280.5" width="11" height="0" fill="#e73c68" stroke="#ffffff" stroke-width="1" opacity="1" class="highcharts-point"></rect><rect x="493.5" y="280.5" width="11" height="0" fill="#e73c68" stroke="#ffffff" stroke-width="1" opacity="1" class="highcharts-point"></rect></g><g class="highcharts-markers highcharts-series-0 highcharts-column-series" data-z-index="0.1" opacity="1" transform="translate(62,10) scale(1 1)" clip-path="none"></g><g class="highcharts-series highcharts-series-1 highcharts-column-series" data-z-index="0.1" opacity="1" transform="translate(62,10) scale(1 1)" clip-path="url(#highcharts-kv646e4-93-)"><rect x="22.5" y="213.5" width="11" height="67" fill="#34495e" stroke="#ffffff" stroke-width="1" opacity="1" class="highcharts-point"></rect><rect x="66.5" y="218.5" width="11" height="62" fill="#34495e" stroke="#ffffff" stroke-width="1" opacity="1" class="highcharts-point"></rect><rect x="110.5" y="235.5" width="11" height="45" fill="#34495e" stroke="#ffffff" stroke-width="1" opacity="1" class="highcharts-point"></rect><rect x="154.5" y="280.5" width="11" height="0" fill="#34495e" stroke="#ffffff" stroke-width="1" opacity="1" class="highcharts-point"></rect><rect x="198.5" y="280.5" width="11" height="0" fill="#34495e" stroke="#ffffff" stroke-width="1" opacity="1" class="highcharts-point"></rect><rect x="242.5" y="258.5" width="11" height="22" fill="#34495e" stroke="#ffffff" stroke-width="1" opacity="1" class="highcharts-point"></rect><rect x="286.5" y="266.5" width="11" height="14" fill="#34495e" stroke="#ffffff" stroke-width="1" opacity="1" class="highcharts-point"></rect><rect x="330.5" y="275.5" width="11" height="5" fill="#34495e" stroke="#ffffff" stroke-width="1" opacity="1" class="highcharts-point"></rect><rect x="374.5" y="235.5" width="11" height="45" fill="#34495e" stroke="#ffffff" stroke-width="1" opacity="1" class="highcharts-point"></rect><rect x="418.5" y="100.5" width="11" height="180" fill="#34495e" stroke="#ffffff" stroke-width="1" opacity="1" class="highcharts-point"></rect><rect x="462.5" y="280.5" width="11" height="0" fill="#34495e" stroke="#ffffff" stroke-width="1" opacity="1" class="highcharts-point"></rect><rect x="506.5" y="280.5" width="11" height="0" fill="#34495e" stroke="#ffffff" stroke-width="1" opacity="1" class="highcharts-point"></rect></g><g class="highcharts-markers highcharts-series-1 highcharts-column-series" data-z-index="0.1" opacity="1" transform="translate(62,10) scale(1 1)" clip-path="none"></g></g><g class="highcharts-exporting-group" data-z-index="3"></g><text x="300" text-anchor="middle" class="highcharts-title" data-z-index="4" style="color:#333333;font-size:18px;fill:#333333;" y="24"></text><text x="300" text-anchor="middle" class="highcharts-subtitle" data-z-index="4" style="color:#666666;fill:#666666;" y="24"></text><text x="10" text-anchor="start" class="highcharts-caption" data-z-index="4" style="color:#666666;fill:#666666;" y="397"></text><g class="highcharts-legend" data-z-index="7" transform="translate(187,359)"><rect fill="none" class="highcharts-legend-box" rx="0" ry="0" x="0" y="0" width="226" height="26" visibility="visible"></rect><g data-z-index="1"><g><g class="highcharts-legend-item highcharts-column-series highcharts-color-undefined highcharts-series-0" data-z-index="1" transform="translate(8,3)"><text x="21" style="color:#333333;cursor:pointer;font-size:12px;font-weight:bold;fill:#333333;" text-anchor="start" data-z-index="2" y="15"><tspan>CAMPUS SANPAOLO</tspan></text><rect x="2" y="4" width="12" height="12" fill="#e73c68" rx="6" ry="6" class="highcharts-point" data-z-index="3"></rect></g><g class="highcharts-legend-item highcharts-column-series highcharts-color-undefined highcharts-series-1" data-z-index="1" transform="translate(149.125,3)"><text x="21" y="15" style="color:#333333;cursor:pointer;font-size:12px;font-weight:bold;fill:#333333;" text-anchor="start" data-z-index="2"><tspan>OPENO11</tspan></text><rect x="2" y="4" width="12" height="12" fill="#34495e" rx="6" ry="6" class="highcharts-point" data-z-index="3"></rect></g></g></g></g><g class="highcharts-axis-labels highcharts-xaxis-labels" data-z-index="7"><text x="86.59272486435067" style="color:#666666;cursor:default;font-size:11px;fill:#666666;" text-anchor="end" transform="translate(0,0) rotate(-45 86.59272486435067 306)" y="306" opacity="1">Gennaio</text><text x="130.59272486435069" style="color:#666666;cursor:default;font-size:11px;fill:#666666;" text-anchor="end" transform="translate(0,0) rotate(-45 130.59272486435069 306)" y="306" opacity="1">Febbraio</text><text x="174.59272486435069" style="color:#666666;cursor:default;font-size:11px;fill:#666666;" text-anchor="end" transform="translate(0,0) rotate(-45 174.59272486435069 306)" y="306" opacity="1">Marzo</text><text x="218.59272486435069" style="color:#666666;cursor:default;font-size:11px;fill:#666666;" text-anchor="end" transform="translate(0,0) rotate(-45 218.59272486435069 306)" y="306" opacity="1">Aprile</text><text x="262.59272486435066" style="color:#666666;cursor:default;font-size:11px;fill:#666666;" text-anchor="end" transform="translate(0,0) rotate(-45 262.59272486435066 306)" y="306" opacity="1">Maggio</text><text x="306.59272486435066" style="color:#666666;cursor:default;font-size:11px;fill:#666666;" text-anchor="end" transform="translate(0,0) rotate(-45 306.59272486435066 306)" y="306" opacity="1">Giugno</text><text x="350.59272486435066" style="color:#666666;cursor:default;font-size:11px;fill:#666666;" text-anchor="end" transform="translate(0,0) rotate(-45 350.59272486435066 306)" y="306" opacity="1">Luglio</text><text x="394.59272486435066" style="color:#666666;cursor:default;font-size:11px;fill:#666666;" text-anchor="end" transform="translate(0,0) rotate(-45 394.59272486435066 306)" y="306" opacity="1">Agosto</text><text x="438.59272486435066" style="color:#666666;cursor:default;font-size:11px;fill:#666666;" text-anchor="end" transform="translate(0,0) rotate(-45 438.59272486435066 306)" y="306" opacity="1">Settembre</text><text x="482.59272486435066" style="color:#666666;cursor:default;font-size:11px;fill:#666666;" text-anchor="end" transform="translate(0,0) rotate(-45 482.59272486435066 306)" y="306" opacity="1">Ottobre</text><text x="526.5927248643507" style="color:#666666;cursor:default;font-size:11px;fill:#666666;" text-anchor="end" transform="translate(0,0) rotate(-45 526.5927248643507 306)" y="306" opacity="1">Novembre</text><text x="570.5927248643507" style="color:#666666;cursor:default;font-size:11px;fill:#666666;" text-anchor="end" transform="translate(0,0) rotate(-45 570.5927248643507 306)" y="306" opacity="1">Dicembre</text></g><g class="highcharts-axis-labels highcharts-yaxis-labels" data-z-index="7"><text x="47" style="color:#666666;cursor:default;font-size:11px;fill:#666666;" text-anchor="end" transform="translate(0,0)" y="294" opacity="1">0</text><text x="47" style="color:#666666;cursor:default;font-size:11px;fill:#666666;" text-anchor="end" transform="translate(0,0)" y="238" opacity="1">1k</text><text x="47" style="color:#666666;cursor:default;font-size:11px;fill:#666666;" text-anchor="end" transform="translate(0,0)" y="182" opacity="1">2k</text><text x="47" style="color:#666666;cursor:default;font-size:11px;fill:#666666;" text-anchor="end" transform="translate(0,0)" y="126" opacity="1">3k</text><text x="47" style="color:#666666;cursor:default;font-size:11px;fill:#666666;" text-anchor="end" transform="translate(0,0)" y="70" opacity="1">4k</text><text x="47" style="color:#666666;cursor:default;font-size:11px;fill:#666666;" text-anchor="end" transform="translate(0,0)" y="14" opacity="1">5k</text></g></svg>