<svg xmlns:xlink="http://www.w3.org/1999/xlink" version="1.1" class="highcharts-root" style="font-family:&quot;Lucida Grande&quot;, &quot;Lucida Sans Unicode&quot;, Arial, Helvetica, sans-serif;font-size:12px;" xmlns="http://www.w3.org/2000/svg" width="600" height="400" viewBox="0 0 600 400"><desc>Created with Highcharts 8.2.2</desc><defs><clipPath id="highcharts-kv646e4-153-"><rect x="0" y="0" width="517" height="280" fill="none"></rect></clipPath></defs><rect fill="#ffffff" class="highcharts-background" x="0" y="0" width="600" height="400" rx="0" ry="0"></rect><rect fill="none" class="highcharts-plot-background" x="73" y="10" width="517" height="280"></rect><g class="highcharts-grid highcharts-xaxis-grid" data-z-index="1"><path fill="none" data-z-index="1" class="highcharts-grid-line" d="M 115.5 10 L 115.5 290" opacity="1"></path><path fill="none" data-z-index="1" class="highcharts-grid-line" d="M 158.5 10 L 158.5 290" opacity="1"></path><path fill="none" data-z-index="1" class="highcharts-grid-line" d="M 201.5 10 L 201.5 290" opacity="1"></path><path fill="none" data-z-index="1" class="highcharts-grid-line" d="M 244.5 10 L 244.5 290" opacity="1"></path><path fill="none" data-z-index="1" class="highcharts-grid-line" d="M 287.5 10 L 287.5 290" opacity="1"></path><path fill="none" data-z-index="1" class="highcharts-grid-line" d="M 331.5 10 L 331.5 290" opacity="1"></path><path fill="none" data-z-index="1" class="highcharts-grid-line" d="M 374.5 10 L 374.5 290" opacity="1"></path><path fill="none" data-z-index="1" class="highcharts-grid-line" d="M 417.5 10 L 417.5 290" opacity="1"></path><path fill="none" data-z-index="1" class="highcharts-grid-line" d="M 460.5 10 L 460.5 290" opacity="1"></path><path fill="none" data-z-index="1" class="highcharts-grid-line" d="M 503.5 10 L 503.5 290" opacity="1"></path><path fill="none" data-z-index="1" class="highcharts-grid-line" d="M 546.5 10 L 546.5 290" opacity="1"></path><path fill="none" data-z-index="1" class="highcharts-grid-line" d="M 589.5 10 L 589.5 290" opacity="1"></path><path fill="none" data-z-index="1" class="highcharts-grid-line" d="M 72.5 10 L 72.5 290" opacity="1"></path></g><g class="highcharts-grid highcharts-yaxis-grid" data-z-index="1"><path fill="none" stroke="#e6e6e6" stroke-width="1" data-z-index="1" class="highcharts-grid-line" d="M 73 290.5 L 590 290.5" opacity="1"></path><path fill="none" stroke="#e6e6e6" stroke-width="1" data-z-index="1" class="highcharts-grid-line" d="M 73 243.5 L 590 243.5" opacity="1"></path><path fill="none" stroke="#e6e6e6" stroke-width="1" data-z-index="1" class="highcharts-grid-line" d="M 73 197.5 L 590 197.5" opacity="1"></path><path fill="none" stroke="#e6e6e6" stroke-width="1" data-z-index="1" class="highcharts-grid-line" d="M 73 150.5 L 590 150.5" opacity="1"></path><path fill="none" stroke="#e6e6e6" stroke-width="1" data-z-index="1" class="highcharts-grid-line" d="M 73 103.5 L 590 103.5" opacity="1"></path><path fill="none" stroke="#e6e6e6" stroke-width="1" data-z-index="1" class="highcharts-grid-line" d="M 73 57.5 L 590 57.5" opacity="1"></path><path fill="none" stroke="#e6e6e6" stroke-width="1" data-z-index="1" class="highcharts-grid-line" d="M 73 9.5 L 590 9.5" opacity="1"></path></g><rect fill="none" class="highcharts-plot-border" data-z-index="1" x="73" y="10" width="517" height="280"></rect><g class="highcharts-axis highcharts-xaxis" data-z-index="2"><path fill="none" class="highcharts-axis-line" stroke="#ccd6eb" stroke-width="1" data-z-index="7" d="M 73 290.5 L 590 290.5"></path></g><g class="highcharts-axis highcharts-yaxis" data-z-index="2"><text x="24.59375" data-z-index="7" text-anchor="middle" transform="translate(0,0) rotate(270 24.59375 150)" class="highcharts-axis-title" style="color:#666666;fill:#666666;" y="150"><tspan>Totale</tspan></text><path fill="none" class="highcharts-axis-line" data-z-index="7" d="M 73 10 L 73 290"></path></g><text x="123" y="40" data-z-index="2" style="position:absolute;color:#333333;fill:#333333;"></text><g class="highcharts-series-group" data-z-index="3"><g class="highcharts-series highcharts-series-0 highcharts-column-series" data-z-index="0.1" opacity="1" transform="translate(73,10) scale(1 1)" clip-path="url(#highcharts-kv646e4-153-)"><rect x="8.5" y="51.5" width="7" height="229" fill="#e73c68" stroke="#ffffff" stroke-width="1" opacity="1" class="highcharts-point"></rect><rect x="52.5" y="102.5" width="7" height="178" fill="#e73c68" stroke="#ffffff" stroke-width="1" opacity="1" class="highcharts-point"></rect><rect x="95.5" y="138.5" width="7" height="142" fill="#e73c68" stroke="#ffffff" stroke-width="1" opacity="1" class="highcharts-point"></rect><rect x="138.5" y="205.5" width="7" height="75" fill="#e73c68" stroke="#ffffff" stroke-width="1" opacity="1" class="highcharts-point"></rect><rect x="181.5" y="225.5" width="7" height="55" fill="#e73c68" stroke="#ffffff" stroke-width="1" opacity="1" class="highcharts-point"></rect><rect x="224.5" y="212.5" width="7" height="68" fill="#e73c68" stroke="#ffffff" stroke-width="1" opacity="1" class="highcharts-point"></rect><rect x="267.5" y="141.5" width="7" height="139" fill="#e73c68" stroke="#ffffff" stroke-width="1" opacity="1" class="highcharts-point"></rect><rect x="310.5" y="146.5" width="7" height="134" fill="#e73c68" stroke="#ffffff" stroke-width="1" opacity="1" class="highcharts-point"></rect><rect x="353.5" y="160.5" width="7" height="120" fill="#e73c68" stroke="#ffffff" stroke-width="1" opacity="1" class="highcharts-point"></rect><rect x="396.5" y="152.5" width="7" height="128" fill="#e73c68" stroke="#ffffff" stroke-width="1" opacity="1" class="highcharts-point"></rect><rect x="439.5" y="280.5" width="7" height="0" fill="#e73c68" stroke="#ffffff" stroke-width="1" opacity="1" class="highcharts-point"></rect><rect x="482.5" y="280.5" width="7" height="0" fill="#e73c68" stroke="#ffffff" stroke-width="1" opacity="1" class="highcharts-point"></rect></g><g class="highcharts-markers highcharts-series-0 highcharts-column-series" data-z-index="0.1" opacity="1" transform="translate(73,10) scale(1 1)" clip-path="none"></g><g class="highcharts-series highcharts-series-1 highcharts-column-series" data-z-index="0.1" opacity="1" transform="translate(73,10) scale(1 1)" clip-path="url(#highcharts-kv646e4-153-)"><rect x="17.5" y="209.5" width="7" height="71" fill="#e67e22" stroke="#ffffff" stroke-width="1" opacity="1" class="highcharts-point"></rect><rect x="60.5" y="216.5" width="7" height="64" fill="#e67e22" stroke="#ffffff" stroke-width="1" opacity="1" class="highcharts-point"></rect><rect x="103.5" y="213.5" width="7" height="67" fill="#e67e22" stroke="#ffffff" stroke-width="1" opacity="1" class="highcharts-point"></rect><rect x="146.5" y="218.5" width="7" height="62" fill="#e67e22" stroke="#ffffff" stroke-width="1" opacity="1" class="highcharts-point"></rect><rect x="189.5" y="220.5" width="7" height="60" fill="#e67e22" stroke="#ffffff" stroke-width="1" opacity="1" class="highcharts-point"></rect><rect x="233.5" y="226.5" width="7" height="54" fill="#e67e22" stroke="#ffffff" stroke-width="1" opacity="1" class="highcharts-point"></rect><rect x="276.5" y="198.5" width="7" height="82" fill="#e67e22" stroke="#ffffff" stroke-width="1" opacity="1" class="highcharts-point"></rect><rect x="319.5" y="192.5" width="7" height="88" fill="#e67e22" stroke="#ffffff" stroke-width="1" opacity="1" class="highcharts-point"></rect><rect x="362.5" y="209.5" width="7" height="71" fill="#e67e22" stroke="#ffffff" stroke-width="1" opacity="1" class="highcharts-point"></rect><rect x="405.5" y="280.5" width="7" height="0" fill="#e67e22" stroke="#ffffff" stroke-width="1" opacity="1" class="highcharts-point"></rect><rect x="448.5" y="280.5" width="7" height="0" fill="#e67e22" stroke="#ffffff" stroke-width="1" opacity="1" class="highcharts-point"></rect><rect x="491.5" y="280.5" width="7" height="0" fill="#e67e22" stroke="#ffffff" stroke-width="1" opacity="1" class="highcharts-point"></rect></g><g class="highcharts-markers highcharts-series-1 highcharts-column-series" data-z-index="0.1" opacity="1" transform="translate(73,10) scale(1 1)" clip-path="none"></g><g class="highcharts-series highcharts-series-2 highcharts-column-series" data-z-index="0.1" opacity="1" transform="translate(73,10) scale(1 1)" clip-path="url(#highcharts-kv646e4-153-)"><rect x="26.5" y="256.5" width="7" height="24" fill="#34495e" stroke="#ffffff" stroke-width="1" opacity="1" class="highcharts-point"></rect><rect x="69.5" y="260.5" width="7" height="20" fill="#34495e" stroke="#ffffff" stroke-width="1" opacity="1" class="highcharts-point"></rect><rect x="112.5" y="267.5" width="7" height="13" fill="#34495e" stroke="#ffffff" stroke-width="1" opacity="1" class="highcharts-point"></rect><rect x="155.5" y="275.5" width="7" height="5" fill="#34495e" stroke="#ffffff" stroke-width="1" opacity="1" class="highcharts-point"></rect><rect x="198.5" y="275.5" width="7" height="5" fill="#34495e" stroke="#ffffff" stroke-width="1" opacity="1" class="highcharts-point"></rect><rect x="241.5" y="273.5" width="7" height="7" fill="#34495e" stroke="#ffffff" stroke-width="1" opacity="1" class="highcharts-point"></rect><rect x="284.5" y="272.5" width="7" height="8" fill="#34495e" stroke="#ffffff" stroke-width="1" opacity="1" class="highcharts-point"></rect><rect x="327.5" y="275.5" width="7" height="5" fill="#34495e" stroke="#ffffff" stroke-width="1" opacity="1" class="highcharts-point"></rect><rect x="370.5" y="267.5" width="7" height="13" fill="#34495e" stroke="#ffffff" stroke-width="1" opacity="1" class="highcharts-point"></rect><rect x="413.5" y="265.5" width="7" height="15" fill="#34495e" stroke="#ffffff" stroke-width="1" opacity="1" class="highcharts-point"></rect><rect x="457.5" y="280.5" width="7" height="0" fill="#34495e" stroke="#ffffff" stroke-width="1" opacity="1" class="highcharts-point"></rect><rect x="500.5" y="280.5" width="7" height="0" fill="#34495e" stroke="#ffffff" stroke-width="1" opacity="1" class="highcharts-point"></rect></g><g class="highcharts-markers highcharts-series-2 highcharts-column-series" data-z-index="0.1" opacity="1" transform="translate(73,10) scale(1 1)" clip-path="none"></g></g><g class="highcharts-exporting-group" data-z-index="3"></g><text x="300" text-anchor="middle" class="highcharts-title" data-z-index="4" style="color:#333333;font-size:18px;fill:#333333;" y="24"></text><text x="300" text-anchor="middle" class="highcharts-subtitle" data-z-index="4" style="color:#666666;fill:#666666;" y="24"></text><text x="10" text-anchor="start" class="highcharts-caption" data-z-index="4" style="color:#666666;fill:#666666;" y="397"></text><g class="highcharts-legend" data-z-index="7" transform="translate(122,359)"><rect fill="none" class="highcharts-legend-box" rx="0" ry="0" x="0" y="0" width="356" height="26" visibility="visible"></rect><g data-z-index="1"><g><g class="highcharts-legend-item highcharts-column-series highcharts-color-undefined highcharts-series-0" data-z-index="1" transform="translate(8,3)"><text x="21" style="color:#333333;cursor:pointer;font-size:12px;font-weight:bold;fill:#333333;" text-anchor="start" data-z-index="2" y="15"><tspan>CAMPUS SANPAOLO</tspan></text><rect x="2" y="4" width="12" height="12" fill="#e73c68" rx="6" ry="6" class="highcharts-point" data-z-index="3"></rect></g><g class="highcharts-legend-item highcharts-column-series highcharts-color-undefined highcharts-series-1" data-z-index="1" transform="translate(149.125,3)"><text x="21" y="15" style="color:#333333;cursor:pointer;font-size:12px;font-weight:bold;fill:#333333;" text-anchor="start" data-z-index="2"><tspan>SHARING TORINO</tspan></text><rect x="2" y="4" width="12" height="12" fill="#e67e22" rx="6" ry="6" class="highcharts-point" data-z-index="3"></rect></g><g class="highcharts-legend-item highcharts-column-series highcharts-color-undefined highcharts-series-2" data-z-index="1" transform="translate(278.296875,3)"><text x="21" y="15" style="color:#333333;cursor:pointer;font-size:12px;font-weight:bold;fill:#333333;" text-anchor="start" data-z-index="2"><tspan>OPENO11</tspan></text><rect x="2" y="4" width="12" height="12" fill="#34495e" rx="6" ry="6" class="highcharts-point" data-z-index="3"></rect></g></g></g></g><g class="highcharts-axis-labels highcharts-xaxis-labels" data-z-index="7"><text x="97.134391531014" style="color:#666666;cursor:default;font-size:11px;fill:#666666;" text-anchor="end" transform="translate(0,0) rotate(-45 97.134391531014 306)" y="306" opacity="1">Gennaio</text><text x="140.21772486435404" style="color:#666666;cursor:default;font-size:11px;fill:#666666;" text-anchor="end" transform="translate(0,0) rotate(-45 140.21772486435404 306)" y="306" opacity="1">Febbraio</text><text x="183.30105819768403" style="color:#666666;cursor:default;font-size:11px;fill:#666666;" text-anchor="end" transform="translate(0,0) rotate(-45 183.30105819768403 306)" y="306" opacity="1">Marzo</text><text x="226.38439153101402" style="color:#666666;cursor:default;font-size:11px;fill:#666666;" text-anchor="end" transform="translate(0,0) rotate(-45 226.38439153101402 306)" y="306" opacity="1">Aprile</text><text x="269.46772486435395" style="color:#666666;cursor:default;font-size:11px;fill:#666666;" text-anchor="end" transform="translate(0,0) rotate(-45 269.46772486435395 306)" y="306" opacity="1">Maggio</text><text x="312.551058197684" style="color:#666666;cursor:default;font-size:11px;fill:#666666;" text-anchor="end" transform="translate(0,0) rotate(-45 312.551058197684 306)" y="306" opacity="1">Giugno</text><text x="355.634391531014" style="color:#666666;cursor:default;font-size:11px;fill:#666666;" text-anchor="end" transform="translate(0,0) rotate(-45 355.634391531014 306)" y="306" opacity="1">Luglio</text><text x="398.71772486435395" style="color:#666666;cursor:default;font-size:11px;fill:#666666;" text-anchor="end" transform="translate(0,0) rotate(-45 398.71772486435395 306)" y="306" opacity="1">Agosto</text><text x="441.801058197684" style="color:#666666;cursor:default;font-size:11px;fill:#666666;" text-anchor="end" transform="translate(0,0) rotate(-45 441.801058197684 306)" y="306" opacity="1">Settembre</text><text x="484.884391531014" style="color:#666666;cursor:default;font-size:11px;fill:#666666;" text-anchor="end" transform="translate(0,0) rotate(-45 484.884391531014 306)" y="306" opacity="1">Ottobre</text><text x="527.9677248643541" style="color:#666666;cursor:default;font-size:11px;fill:#666666;" text-anchor="end" transform="translate(0,0) rotate(-45 527.9677248643541 306)" y="306" opacity="1">Novembre</text><text x="571.051058197684" style="color:#666666;cursor:default;font-size:11px;fill:#666666;" text-anchor="end" transform="translate(0,0) rotate(-45 571.051058197684 306)" y="306" opacity="1">Dicembre</text></g><g class="highcharts-axis-labels highcharts-yaxis-labels" data-z-index="7"><text x="58" style="color:#666666;cursor:default;font-size:11px;fill:#666666;" text-anchor="end" transform="translate(0,0)" y="294" opacity="1">0</text><text x="58" style="color:#666666;cursor:default;font-size:11px;fill:#666666;" text-anchor="end" transform="translate(0,0)" y="247" opacity="1">25k</text><text x="58" style="color:#666666;cursor:default;font-size:11px;fill:#666666;" text-anchor="end" transform="translate(0,0)" y="201" opacity="1">50k</text><text x="58" style="color:#666666;cursor:default;font-size:11px;fill:#666666;" text-anchor="end" transform="translate(0,0)" y="154" opacity="1">75k</text><text x="58" style="color:#666666;cursor:default;font-size:11px;fill:#666666;" text-anchor="end" transform="translate(0,0)" y="107" opacity="1">100k</text><text x="58" style="color:#666666;cursor:default;font-size:11px;fill:#666666;" text-anchor="end" transform="translate(0,0)" y="61" opacity="1">125k</text><text x="58" style="color:#666666;cursor:default;font-size:11px;fill:#666666;" text-anchor="end" transform="translate(0,0)" y="14" opacity="1">150k</text></g></svg>